<?xml version="1.0" encoding="utf-8"?>
<svg xmlns="http://www.w3.org/2000/svg" xmlns:xlink="http://www.w3.org/1999/xlink" width="600" height="400" viewBox="0 0 2400 1600">
<defs>
  <clipPath id="clip940">
    <rect x="0" y="0" width="2400" height="1600"/>
  </clipPath>
</defs>
<path clip-path="url(#clip940)" d="M0 1600 L2400 1600 L2400 0 L0 0  Z" fill="#ffffff" fill-rule="evenodd" fill-opacity="1"/>
<defs>
  <clipPath id="clip941">
    <rect x="480" y="0" width="1681" height="1600"/>
  </clipPath>
</defs>
<defs>
  <clipPath id="clip942">
    <rect x="234" y="47" width="2120" height="1377"/>
  </clipPath>
</defs>
<path clip-path="url(#clip940)" d="M368.631 1423.18 L2352.76 1423.18 L2352.76 47.2441 L368.631 47.2441  Z" fill="#ffffff" fill-rule="evenodd" fill-opacity="1"/>
<defs>
  <clipPath id="clip943">
    <rect x="368" y="47" width="1985" height="1377"/>
  </clipPath>
</defs>
<polyline clip-path="url(#clip943)" style="stroke:#000000; stroke-linecap:round; stroke-linejoin:round; stroke-width:2; stroke-opacity:0.1; fill:none" points="424.786,1423.18 424.786,47.2441 "/>
<polyline clip-path="url(#clip943)" style="stroke:#000000; stroke-linecap:round; stroke-linejoin:round; stroke-width:2; stroke-opacity:0.1; fill:none" points="892.74,1423.18 892.74,47.2441 "/>
<polyline clip-path="url(#clip943)" style="stroke:#000000; stroke-linecap:round; stroke-linejoin:round; stroke-width:2; stroke-opacity:0.1; fill:none" points="1360.69,1423.18 1360.69,47.2441 "/>
<polyline clip-path="url(#clip943)" style="stroke:#000000; stroke-linecap:round; stroke-linejoin:round; stroke-width:2; stroke-opacity:0.1; fill:none" points="1828.65,1423.18 1828.65,47.2441 "/>
<polyline clip-path="url(#clip943)" style="stroke:#000000; stroke-linecap:round; stroke-linejoin:round; stroke-width:2; stroke-opacity:0.1; fill:none" points="2296.6,1423.18 2296.6,47.2441 "/>
<polyline clip-path="url(#clip940)" style="stroke:#000000; stroke-linecap:round; stroke-linejoin:round; stroke-width:4; stroke-opacity:1; fill:none" points="368.631,1423.18 2352.76,1423.18 "/>
<polyline clip-path="url(#clip940)" style="stroke:#000000; stroke-linecap:round; stroke-linejoin:round; stroke-width:4; stroke-opacity:1; fill:none" points="424.786,1423.18 424.786,1404.28 "/>
<polyline clip-path="url(#clip940)" style="stroke:#000000; stroke-linecap:round; stroke-linejoin:round; stroke-width:4; stroke-opacity:1; fill:none" points="892.74,1423.18 892.74,1404.28 "/>
<polyline clip-path="url(#clip940)" style="stroke:#000000; stroke-linecap:round; stroke-linejoin:round; stroke-width:4; stroke-opacity:1; fill:none" points="1360.69,1423.18 1360.69,1404.28 "/>
<polyline clip-path="url(#clip940)" style="stroke:#000000; stroke-linecap:round; stroke-linejoin:round; stroke-width:4; stroke-opacity:1; fill:none" points="1828.65,1423.18 1828.65,1404.28 "/>
<polyline clip-path="url(#clip940)" style="stroke:#000000; stroke-linecap:round; stroke-linejoin:round; stroke-width:4; stroke-opacity:1; fill:none" points="2296.6,1423.18 2296.6,1404.28 "/>
<path clip-path="url(#clip940)" d="M414.126 1466.95 Q417.483 1467.66 419.358 1469.93 Q421.256 1472.2 421.256 1475.53 Q421.256 1480.65 417.737 1483.45 Q414.219 1486.25 407.737 1486.25 Q405.561 1486.25 403.247 1485.81 Q400.955 1485.39 398.501 1484.54 L398.501 1480.02 Q400.446 1481.16 402.761 1481.74 Q405.075 1482.32 407.598 1482.32 Q411.997 1482.32 414.288 1480.58 Q416.603 1478.84 416.603 1475.53 Q416.603 1472.48 414.45 1470.77 Q412.321 1469.03 408.501 1469.03 L404.473 1469.03 L404.473 1465.19 L408.686 1465.19 Q412.135 1465.19 413.964 1463.82 Q415.793 1462.43 415.793 1459.84 Q415.793 1457.18 413.895 1455.77 Q412.02 1454.33 408.501 1454.33 Q406.58 1454.33 404.381 1454.75 Q402.182 1455.16 399.543 1456.04 L399.543 1451.88 Q402.205 1451.14 404.52 1450.77 Q406.858 1450.39 408.918 1450.39 Q414.242 1450.39 417.344 1452.83 Q420.446 1455.23 420.446 1459.35 Q420.446 1462.22 418.802 1464.21 Q417.159 1466.18 414.126 1466.95 Z" fill="#000000" fill-rule="nonzero" fill-opacity="1" /><path clip-path="url(#clip940)" d="M430.168 1451.02 L448.524 1451.02 L448.524 1454.96 L434.45 1454.96 L434.45 1463.43 Q435.469 1463.08 436.487 1462.92 Q437.506 1462.73 438.524 1462.73 Q444.311 1462.73 447.691 1465.9 Q451.07 1469.08 451.07 1474.49 Q451.07 1480.07 447.598 1483.17 Q444.126 1486.25 437.807 1486.25 Q435.631 1486.25 433.362 1485.88 Q431.117 1485.51 428.709 1484.77 L428.709 1480.07 Q430.793 1481.2 433.015 1481.76 Q435.237 1482.32 437.714 1482.32 Q441.719 1482.32 444.057 1480.21 Q446.395 1478.1 446.395 1474.49 Q446.395 1470.88 444.057 1468.77 Q441.719 1466.67 437.714 1466.67 Q435.839 1466.67 433.964 1467.08 Q432.112 1467.5 430.168 1468.38 L430.168 1451.02 Z" fill="#000000" fill-rule="nonzero" fill-opacity="1" /><path clip-path="url(#clip940)" d="M881.501 1466.95 Q884.858 1467.66 886.733 1469.93 Q888.631 1472.2 888.631 1475.53 Q888.631 1480.65 885.112 1483.45 Q881.594 1486.25 875.113 1486.25 Q872.937 1486.25 870.622 1485.81 Q868.33 1485.39 865.876 1484.54 L865.876 1480.02 Q867.821 1481.16 870.136 1481.74 Q872.451 1482.32 874.974 1482.32 Q879.372 1482.32 881.663 1480.58 Q883.978 1478.84 883.978 1475.53 Q883.978 1472.48 881.825 1470.77 Q879.696 1469.03 875.876 1469.03 L871.849 1469.03 L871.849 1465.19 L876.062 1465.19 Q879.511 1465.19 881.339 1463.82 Q883.168 1462.43 883.168 1459.84 Q883.168 1457.18 881.27 1455.77 Q879.395 1454.33 875.876 1454.33 Q873.955 1454.33 871.756 1454.75 Q869.557 1455.16 866.918 1456.04 L866.918 1451.88 Q869.58 1451.14 871.895 1450.77 Q874.233 1450.39 876.293 1450.39 Q881.617 1450.39 884.719 1452.83 Q887.821 1455.23 887.821 1459.35 Q887.821 1462.22 886.177 1464.21 Q884.534 1466.18 881.501 1466.95 Z" fill="#000000" fill-rule="nonzero" fill-opacity="1" /><path clip-path="url(#clip940)" d="M908.075 1466.44 Q904.927 1466.44 903.075 1468.59 Q901.247 1470.74 901.247 1474.49 Q901.247 1478.22 903.075 1480.39 Q904.927 1482.55 908.075 1482.55 Q911.223 1482.55 913.052 1480.39 Q914.904 1478.22 914.904 1474.49 Q914.904 1470.74 913.052 1468.59 Q911.223 1466.44 908.075 1466.44 M917.358 1451.78 L917.358 1456.04 Q915.598 1455.21 913.793 1454.77 Q912.01 1454.33 910.251 1454.33 Q905.622 1454.33 903.168 1457.45 Q900.737 1460.58 900.39 1466.9 Q901.756 1464.89 903.816 1463.82 Q905.876 1462.73 908.353 1462.73 Q913.561 1462.73 916.571 1465.9 Q919.603 1469.05 919.603 1474.49 Q919.603 1479.82 916.455 1483.03 Q913.307 1486.25 908.075 1486.25 Q902.08 1486.25 898.909 1481.67 Q895.737 1477.06 895.737 1468.33 Q895.737 1460.14 899.626 1455.28 Q903.515 1450.39 910.066 1450.39 Q911.825 1450.39 913.608 1450.74 Q915.413 1451.09 917.358 1451.78 Z" fill="#000000" fill-rule="nonzero" fill-opacity="1" /><path clip-path="url(#clip940)" d="M1349.99 1466.95 Q1353.34 1467.66 1355.22 1469.93 Q1357.12 1472.2 1357.12 1475.53 Q1357.12 1480.65 1353.6 1483.45 Q1350.08 1486.25 1343.6 1486.25 Q1341.42 1486.25 1339.11 1485.81 Q1336.82 1485.39 1334.36 1484.54 L1334.36 1480.02 Q1336.31 1481.16 1338.62 1481.74 Q1340.94 1482.32 1343.46 1482.32 Q1347.86 1482.32 1350.15 1480.58 Q1352.46 1478.84 1352.46 1475.53 Q1352.46 1472.48 1350.31 1470.77 Q1348.18 1469.03 1344.36 1469.03 L1340.33 1469.03 L1340.33 1465.19 L1344.55 1465.19 Q1348 1465.19 1349.83 1463.82 Q1351.65 1462.43 1351.65 1459.84 Q1351.65 1457.18 1349.76 1455.77 Q1347.88 1454.33 1344.36 1454.33 Q1342.44 1454.33 1340.24 1454.75 Q1338.04 1455.16 1335.4 1456.04 L1335.4 1451.88 Q1338.07 1451.14 1340.38 1450.77 Q1342.72 1450.39 1344.78 1450.39 Q1350.1 1450.39 1353.21 1452.83 Q1356.31 1455.23 1356.31 1459.35 Q1356.31 1462.22 1354.66 1464.21 Q1353.02 1466.18 1349.99 1466.95 Z" fill="#000000" fill-rule="nonzero" fill-opacity="1" /><path clip-path="url(#clip940)" d="M1364.8 1451.02 L1387.02 1451.02 L1387.02 1453.01 L1374.48 1485.58 L1369.59 1485.58 L1381.4 1454.96 L1364.8 1454.96 L1364.8 1451.02 Z" fill="#000000" fill-rule="nonzero" fill-opacity="1" /><path clip-path="url(#clip940)" d="M1817.54 1466.95 Q1820.89 1467.66 1822.77 1469.93 Q1824.67 1472.2 1824.67 1475.53 Q1824.67 1480.65 1821.15 1483.45 Q1817.63 1486.25 1811.15 1486.25 Q1808.97 1486.25 1806.66 1485.81 Q1804.37 1485.39 1801.91 1484.54 L1801.91 1480.02 Q1803.86 1481.16 1806.17 1481.74 Q1808.49 1482.32 1811.01 1482.32 Q1815.41 1482.32 1817.7 1480.58 Q1820.01 1478.84 1820.01 1475.53 Q1820.01 1472.48 1817.86 1470.77 Q1815.73 1469.03 1811.91 1469.03 L1807.88 1469.03 L1807.88 1465.19 L1812.1 1465.19 Q1815.55 1465.19 1817.37 1463.82 Q1819.2 1462.43 1819.2 1459.84 Q1819.2 1457.18 1817.31 1455.77 Q1815.43 1454.33 1811.91 1454.33 Q1809.99 1454.33 1807.79 1454.75 Q1805.59 1455.16 1802.95 1456.04 L1802.95 1451.88 Q1805.62 1451.14 1807.93 1450.77 Q1810.27 1450.39 1812.33 1450.39 Q1817.65 1450.39 1820.75 1452.83 Q1823.86 1455.23 1823.86 1459.35 Q1823.86 1462.22 1822.21 1464.21 Q1820.57 1466.18 1817.54 1466.95 Z" fill="#000000" fill-rule="nonzero" fill-opacity="1" /><path clip-path="url(#clip940)" d="M1843.53 1469.17 Q1840.2 1469.17 1838.28 1470.95 Q1836.38 1472.73 1836.38 1475.86 Q1836.38 1478.98 1838.28 1480.77 Q1840.2 1482.55 1843.53 1482.55 Q1846.87 1482.55 1848.79 1480.77 Q1850.71 1478.96 1850.71 1475.86 Q1850.71 1472.73 1848.79 1470.95 Q1846.89 1469.17 1843.53 1469.17 M1838.86 1467.18 Q1835.85 1466.44 1834.16 1464.38 Q1832.49 1462.32 1832.49 1459.35 Q1832.49 1455.21 1835.43 1452.8 Q1838.39 1450.39 1843.53 1450.39 Q1848.69 1450.39 1851.63 1452.8 Q1854.57 1455.21 1854.57 1459.35 Q1854.57 1462.32 1852.88 1464.38 Q1851.22 1466.44 1848.23 1467.18 Q1851.61 1467.96 1853.49 1470.26 Q1855.38 1472.55 1855.38 1475.86 Q1855.38 1480.88 1852.3 1483.57 Q1849.25 1486.25 1843.53 1486.25 Q1837.81 1486.25 1834.74 1483.57 Q1831.68 1480.88 1831.68 1475.86 Q1831.68 1472.55 1833.58 1470.26 Q1835.48 1467.96 1838.86 1467.18 M1837.14 1459.79 Q1837.14 1462.48 1838.81 1463.98 Q1840.5 1465.49 1843.53 1465.49 Q1846.54 1465.49 1848.23 1463.98 Q1849.94 1462.48 1849.94 1459.79 Q1849.94 1457.11 1848.23 1455.6 Q1846.54 1454.1 1843.53 1454.1 Q1840.5 1454.1 1838.81 1455.6 Q1837.14 1457.11 1837.14 1459.79 Z" fill="#000000" fill-rule="nonzero" fill-opacity="1" /><path clip-path="url(#clip940)" d="M2285.54 1466.95 Q2288.89 1467.66 2290.77 1469.93 Q2292.67 1472.2 2292.67 1475.53 Q2292.67 1480.65 2289.15 1483.45 Q2285.63 1486.25 2279.15 1486.25 Q2276.97 1486.25 2274.66 1485.81 Q2272.37 1485.39 2269.91 1484.54 L2269.91 1480.02 Q2271.86 1481.16 2274.17 1481.74 Q2276.49 1482.32 2279.01 1482.32 Q2283.41 1482.32 2285.7 1480.58 Q2288.01 1478.84 2288.01 1475.53 Q2288.01 1472.48 2285.86 1470.77 Q2283.73 1469.03 2279.91 1469.03 L2275.88 1469.03 L2275.88 1465.19 L2280.1 1465.19 Q2283.55 1465.19 2285.37 1463.82 Q2287.2 1462.43 2287.2 1459.84 Q2287.2 1457.18 2285.31 1455.77 Q2283.43 1454.33 2279.91 1454.33 Q2277.99 1454.33 2275.79 1454.75 Q2273.59 1455.16 2270.95 1456.04 L2270.95 1451.88 Q2273.62 1451.14 2275.93 1450.77 Q2278.27 1450.39 2280.33 1450.39 Q2285.65 1450.39 2288.75 1452.83 Q2291.86 1455.23 2291.86 1459.35 Q2291.86 1462.22 2290.21 1464.21 Q2288.57 1466.18 2285.54 1466.95 Z" fill="#000000" fill-rule="nonzero" fill-opacity="1" /><path clip-path="url(#clip940)" d="M2301.67 1484.86 L2301.67 1480.6 Q2303.43 1481.44 2305.24 1481.88 Q2307.04 1482.32 2308.78 1482.32 Q2313.41 1482.32 2315.84 1479.21 Q2318.29 1476.09 2318.64 1469.75 Q2317.3 1471.74 2315.24 1472.8 Q2313.18 1473.87 2310.68 1473.87 Q2305.49 1473.87 2302.46 1470.74 Q2299.45 1467.59 2299.45 1462.15 Q2299.45 1456.83 2302.6 1453.61 Q2305.74 1450.39 2310.98 1450.39 Q2316.97 1450.39 2320.12 1455 Q2323.29 1459.58 2323.29 1468.33 Q2323.29 1476.51 2319.4 1481.39 Q2315.54 1486.25 2308.99 1486.25 Q2307.23 1486.25 2305.42 1485.9 Q2303.62 1485.56 2301.67 1484.86 M2310.98 1470.21 Q2314.12 1470.21 2315.95 1468.06 Q2317.81 1465.9 2317.81 1462.15 Q2317.81 1458.43 2315.95 1456.27 Q2314.12 1454.1 2310.98 1454.1 Q2307.83 1454.1 2305.98 1456.27 Q2304.15 1458.43 2304.15 1462.15 Q2304.15 1465.9 2305.98 1468.06 Q2307.83 1470.21 2310.98 1470.21 Z" fill="#000000" fill-rule="nonzero" fill-opacity="1" /><path clip-path="url(#clip940)" d="M1260.1 1509.56 L1250.99 1546.24 Q1250.73 1547.4 1250.73 1547.69 Q1250.73 1548.08 1250.83 1548.24 Q1250.96 1548.43 1251.67 1548.6 Q1252.41 1548.76 1253.89 1548.76 Q1254.44 1548.76 1254.63 1548.76 Q1254.82 1548.76 1255.11 1548.82 Q1255.4 1548.89 1255.5 1549.05 Q1255.6 1549.21 1255.6 1549.47 Q1255.6 1550.79 1254.44 1550.79 Q1253.34 1550.79 1251.06 1550.69 Q1248.77 1550.59 1247.64 1550.59 Q1246.55 1550.59 1244.32 1550.69 Q1242.1 1550.79 1241.04 1550.79 Q1240.65 1550.79 1240.43 1550.59 Q1240.2 1550.43 1240.2 1550.24 L1240.17 1550.08 Q1240.17 1549.18 1240.52 1548.95 Q1240.88 1548.76 1241.68 1548.76 Q1244.45 1548.72 1245.26 1548.34 Q1246.06 1547.95 1246.45 1546.57 L1249.41 1534.78 Q1245.45 1538.74 1241.62 1538.74 Q1237.92 1538.74 1235.4 1535.84 Q1232.92 1532.91 1232.92 1528.18 Q1232.92 1524.67 1234.31 1521.12 Q1235.73 1517.58 1237.92 1514.91 Q1240.14 1512.24 1243.04 1510.56 Q1245.93 1508.85 1248.8 1508.85 Q1250.64 1508.85 1252.28 1509.92 Q1253.95 1510.98 1254.95 1513.46 Q1255.79 1512.04 1257.34 1510.5 Q1258.88 1508.92 1259.43 1508.92 Q1259.75 1508.92 1259.91 1509.14 Q1260.1 1509.34 1260.1 1509.56 M1254.02 1516.1 Q1254.02 1515.78 1253.76 1514.97 Q1253.53 1514.17 1253.02 1513.07 Q1252.54 1511.95 1251.41 1511.14 Q1250.28 1510.3 1248.8 1510.3 Q1246.68 1510.3 1244.39 1512.36 Q1242.13 1514.39 1240.65 1517.94 Q1239.72 1520.25 1238.66 1524.57 Q1237.59 1528.89 1237.59 1531.08 Q1237.59 1531.59 1237.63 1532.17 Q1237.69 1532.75 1237.95 1533.72 Q1238.2 1534.68 1238.59 1535.42 Q1239.01 1536.16 1239.85 1536.71 Q1240.68 1537.26 1241.81 1537.26 Q1244.26 1537.26 1246.71 1535.17 Q1249.15 1533.07 1250.19 1531.2 Q1250.31 1531.01 1252.15 1523.7 Q1254.02 1516.39 1254.02 1516.1 Z" fill="#000000" fill-rule="nonzero" fill-opacity="1" /><path clip-path="url(#clip940)" d="M1266.89 1554.17 Q1266.89 1547.38 1268.6 1543.68 Q1270.99 1538.18 1276.62 1538.18 Q1277.82 1538.18 1279.06 1538.52 Q1280.32 1538.84 1281.9 1540.08 Q1283.5 1541.32 1284.47 1543.35 Q1286.32 1547.27 1286.32 1554.17 Q1286.32 1560.91 1284.6 1564.58 Q1282.1 1569.95 1276.58 1569.95 Q1274.51 1569.95 1272.39 1568.89 Q1270.29 1567.83 1268.96 1565.28 Q1266.89 1561.47 1266.89 1554.17 M1270.72 1553.6 Q1270.72 1560.57 1271.21 1563.34 Q1271.78 1566.34 1273.31 1567.65 Q1274.87 1568.93 1276.58 1568.93 Q1278.43 1568.93 1279.96 1567.56 Q1281.52 1566.16 1281.99 1563.16 Q1282.51 1560.21 1282.49 1553.6 Q1282.49 1547.18 1282.03 1544.61 Q1281.43 1541.61 1279.8 1540.41 Q1278.2 1539.2 1276.58 1539.2 Q1275.97 1539.2 1275.32 1539.38 Q1274.69 1539.56 1273.76 1540.08 Q1272.84 1540.59 1272.12 1541.88 Q1271.42 1543.16 1271.08 1545.1 Q1270.72 1547.61 1270.72 1553.6 Z" fill="#000000" fill-rule="nonzero" fill-opacity="1" /><path clip-path="url(#clip940)" d="M1315.83 1502.35 L1322.03 1502.35 L1333.17 1532.27 L1344.31 1502.35 L1350.52 1502.35 L1337.15 1538 L1329.19 1538 L1315.83 1502.35 Z" fill="#000000" fill-rule="nonzero" fill-opacity="1" /><path clip-path="url(#clip940)" d="M1374.8 1520.08 Q1367.71 1520.08 1364.97 1521.7 Q1362.23 1523.33 1362.23 1527.24 Q1362.23 1530.36 1364.27 1532.21 Q1366.34 1534.02 1369.87 1534.02 Q1374.74 1534.02 1377.67 1530.58 Q1380.63 1527.11 1380.63 1521.39 L1380.63 1520.08 L1374.8 1520.08 M1386.49 1517.66 L1386.49 1538 L1380.63 1538 L1380.63 1532.59 Q1378.62 1535.84 1375.63 1537.4 Q1372.64 1538.92 1368.31 1538.92 Q1362.84 1538.92 1359.59 1535.87 Q1356.38 1532.78 1356.38 1527.62 Q1356.38 1521.61 1360.39 1518.55 Q1364.43 1515.5 1372.42 1515.5 L1380.63 1515.5 L1380.63 1514.92 Q1380.63 1510.88 1377.96 1508.69 Q1375.31 1506.46 1370.51 1506.46 Q1367.45 1506.46 1364.56 1507.19 Q1361.66 1507.92 1358.99 1509.39 L1358.99 1503.98 Q1362.2 1502.73 1365.22 1502.13 Q1368.25 1501.49 1371.11 1501.49 Q1378.85 1501.49 1382.67 1505.5 Q1386.49 1509.51 1386.49 1517.66 Z" fill="#000000" fill-rule="nonzero" fill-opacity="1" /><path clip-path="url(#clip940)" d="M1398.55 1488.47 L1404.4 1488.47 L1404.4 1538 L1398.55 1538 L1398.55 1488.47 Z" fill="#000000" fill-rule="nonzero" fill-opacity="1" /><path clip-path="url(#clip940)" d="M1416.05 1523.93 L1416.05 1502.35 L1421.91 1502.35 L1421.91 1523.71 Q1421.91 1528.77 1423.88 1531.32 Q1425.86 1533.83 1429.8 1533.83 Q1434.55 1533.83 1437.28 1530.81 Q1440.05 1527.78 1440.05 1522.56 L1440.05 1502.35 L1445.91 1502.35 L1445.91 1538 L1440.05 1538 L1440.05 1532.53 Q1437.92 1535.77 1435.09 1537.36 Q1432.29 1538.92 1428.56 1538.92 Q1422.42 1538.92 1419.24 1535.1 Q1416.05 1531.28 1416.05 1523.93 M1430.79 1501.49 L1430.79 1501.49 Z" fill="#000000" fill-rule="nonzero" fill-opacity="1" /><path clip-path="url(#clip940)" d="M1488.46 1518.71 L1488.46 1521.58 L1461.54 1521.58 Q1461.92 1527.62 1465.17 1530.81 Q1468.44 1533.96 1474.27 1533.96 Q1477.64 1533.96 1480.79 1533.13 Q1483.98 1532.3 1487.1 1530.65 L1487.1 1536.19 Q1483.94 1537.52 1480.63 1538.22 Q1477.32 1538.92 1473.92 1538.92 Q1465.39 1538.92 1460.39 1533.96 Q1455.43 1528.99 1455.43 1520.53 Q1455.43 1511.77 1460.14 1506.65 Q1464.88 1501.49 1472.9 1501.49 Q1480.09 1501.49 1484.26 1506.14 Q1488.46 1510.75 1488.46 1518.71 M1482.61 1516.99 Q1482.54 1512.19 1479.9 1509.32 Q1477.29 1506.46 1472.96 1506.46 Q1468.06 1506.46 1465.1 1509.23 Q1462.17 1512 1461.73 1517.02 L1482.61 1516.99 Z" fill="#000000" fill-rule="nonzero" fill-opacity="1" /><polyline clip-path="url(#clip943)" style="stroke:#000000; stroke-linecap:round; stroke-linejoin:round; stroke-width:2; stroke-opacity:0.1; fill:none" points="368.631,1406.45 2352.76,1406.45 "/>
<polyline clip-path="url(#clip943)" style="stroke:#000000; stroke-linecap:round; stroke-linejoin:round; stroke-width:2; stroke-opacity:0.1; fill:none" points="368.631,1098.69 2352.76,1098.69 "/>
<polyline clip-path="url(#clip943)" style="stroke:#000000; stroke-linecap:round; stroke-linejoin:round; stroke-width:2; stroke-opacity:0.1; fill:none" points="368.631,790.937 2352.76,790.937 "/>
<polyline clip-path="url(#clip943)" style="stroke:#000000; stroke-linecap:round; stroke-linejoin:round; stroke-width:2; stroke-opacity:0.1; fill:none" points="368.631,483.179 2352.76,483.179 "/>
<polyline clip-path="url(#clip943)" style="stroke:#000000; stroke-linecap:round; stroke-linejoin:round; stroke-width:2; stroke-opacity:0.1; fill:none" points="368.631,175.421 2352.76,175.421 "/>
<polyline clip-path="url(#clip940)" style="stroke:#000000; stroke-linecap:round; stroke-linejoin:round; stroke-width:4; stroke-opacity:1; fill:none" points="368.631,1423.18 368.631,47.2441 "/>
<polyline clip-path="url(#clip940)" style="stroke:#000000; stroke-linecap:round; stroke-linejoin:round; stroke-width:4; stroke-opacity:1; fill:none" points="368.631,1406.45 387.529,1406.45 "/>
<polyline clip-path="url(#clip940)" style="stroke:#000000; stroke-linecap:round; stroke-linejoin:round; stroke-width:4; stroke-opacity:1; fill:none" points="368.631,1098.69 387.529,1098.69 "/>
<polyline clip-path="url(#clip940)" style="stroke:#000000; stroke-linecap:round; stroke-linejoin:round; stroke-width:4; stroke-opacity:1; fill:none" points="368.631,790.937 387.529,790.937 "/>
<polyline clip-path="url(#clip940)" style="stroke:#000000; stroke-linecap:round; stroke-linejoin:round; stroke-width:4; stroke-opacity:1; fill:none" points="368.631,483.179 387.529,483.179 "/>
<polyline clip-path="url(#clip940)" style="stroke:#000000; stroke-linecap:round; stroke-linejoin:round; stroke-width:4; stroke-opacity:1; fill:none" points="368.631,175.421 387.529,175.421 "/>
<path clip-path="url(#clip940)" d="M117.126 1395.62 L135.483 1395.62 L135.483 1399.56 L121.409 1399.56 L121.409 1408.03 Q122.427 1407.68 123.446 1407.52 Q124.464 1407.33 125.483 1407.33 Q131.27 1407.33 134.649 1410.5 Q138.029 1413.68 138.029 1419.09 Q138.029 1424.67 134.557 1427.77 Q131.084 1430.85 124.765 1430.85 Q122.589 1430.85 120.321 1430.48 Q118.075 1430.11 115.668 1429.37 L115.668 1424.67 Q117.751 1425.8 119.973 1426.36 Q122.196 1426.92 124.672 1426.92 Q128.677 1426.92 131.015 1424.81 Q133.353 1422.7 133.353 1419.09 Q133.353 1415.48 131.015 1413.37 Q128.677 1411.27 124.672 1411.27 Q122.797 1411.27 120.922 1411.68 Q119.071 1412.1 117.126 1412.98 L117.126 1395.62 Z" fill="#000000" fill-rule="nonzero" fill-opacity="1" /><path clip-path="url(#clip940)" d="M147.242 1424.3 L152.126 1424.3 L152.126 1430.18 L147.242 1430.18 L147.242 1424.3 Z" fill="#000000" fill-rule="nonzero" fill-opacity="1" /><path clip-path="url(#clip940)" d="M172.311 1398.7 Q168.7 1398.7 166.871 1402.26 Q165.066 1405.81 165.066 1412.93 Q165.066 1420.04 166.871 1423.61 Q168.7 1427.15 172.311 1427.15 Q175.945 1427.15 177.751 1423.61 Q179.58 1420.04 179.58 1412.93 Q179.58 1405.81 177.751 1402.26 Q175.945 1398.7 172.311 1398.7 M172.311 1394.99 Q178.121 1394.99 181.177 1399.6 Q184.255 1404.18 184.255 1412.93 Q184.255 1421.66 181.177 1426.27 Q178.121 1430.85 172.311 1430.85 Q166.501 1430.85 163.422 1426.27 Q160.367 1421.66 160.367 1412.93 Q160.367 1404.18 163.422 1399.6 Q166.501 1394.99 172.311 1394.99 Z" fill="#000000" fill-rule="nonzero" fill-opacity="1" /><path clip-path="url(#clip940)" d="M202.473 1398.7 Q198.862 1398.7 197.033 1402.26 Q195.228 1405.81 195.228 1412.93 Q195.228 1420.04 197.033 1423.61 Q198.862 1427.15 202.473 1427.15 Q206.107 1427.15 207.913 1423.61 Q209.741 1420.04 209.741 1412.93 Q209.741 1405.81 207.913 1402.26 Q206.107 1398.7 202.473 1398.7 M202.473 1394.99 Q208.283 1394.99 211.339 1399.6 Q214.417 1404.18 214.417 1412.93 Q214.417 1421.66 211.339 1426.27 Q208.283 1430.85 202.473 1430.85 Q196.663 1430.85 193.584 1426.27 Q190.529 1421.66 190.529 1412.93 Q190.529 1404.18 193.584 1399.6 Q196.663 1394.99 202.473 1394.99 Z" fill="#000000" fill-rule="nonzero" fill-opacity="1" /><path clip-path="url(#clip940)" d="M250.806 1404.72 L240.227 1415.34 L250.806 1425.92 L248.051 1428.72 L237.426 1418.1 L226.802 1428.72 L224.07 1425.92 L234.626 1415.34 L224.07 1404.72 L226.802 1401.92 L237.426 1412.54 L248.051 1401.92 L250.806 1404.72 Z" fill="#000000" fill-rule="nonzero" fill-opacity="1" /><path clip-path="url(#clip940)" d="M263.167 1426.24 L270.806 1426.24 L270.806 1399.88 L262.496 1401.55 L262.496 1397.29 L270.76 1395.62 L275.436 1395.62 L275.436 1426.24 L283.074 1426.24 L283.074 1430.18 L263.167 1430.18 L263.167 1426.24 Z" fill="#000000" fill-rule="nonzero" fill-opacity="1" /><path clip-path="url(#clip940)" d="M302.519 1398.7 Q298.908 1398.7 297.079 1402.26 Q295.273 1405.81 295.273 1412.93 Q295.273 1420.04 297.079 1423.61 Q298.908 1427.15 302.519 1427.15 Q306.153 1427.15 307.958 1423.61 Q309.787 1420.04 309.787 1412.93 Q309.787 1405.81 307.958 1402.26 Q306.153 1398.7 302.519 1398.7 M302.519 1394.99 Q308.329 1394.99 311.384 1399.6 Q314.463 1404.18 314.463 1412.93 Q314.463 1421.66 311.384 1426.27 Q308.329 1430.85 302.519 1430.85 Q296.709 1430.85 293.63 1426.27 Q290.574 1421.66 290.574 1412.93 Q290.574 1404.18 293.63 1399.6 Q296.709 1394.99 302.519 1394.99 Z" fill="#000000" fill-rule="nonzero" fill-opacity="1" /><path clip-path="url(#clip940)" d="M315.648 1374.69 L330.563 1374.69 L330.563 1377.89 L319.127 1377.89 L319.127 1384.77 Q319.955 1384.49 320.782 1384.36 Q321.61 1384.21 322.438 1384.21 Q327.14 1384.21 329.885 1386.78 Q332.631 1389.36 332.631 1393.76 Q332.631 1398.29 329.81 1400.81 Q326.989 1403.31 321.855 1403.31 Q320.087 1403.31 318.243 1403.01 Q316.419 1402.71 314.463 1402.11 L314.463 1398.29 Q316.156 1399.21 317.961 1399.67 Q319.767 1400.12 321.779 1400.12 Q325.033 1400.12 326.933 1398.41 Q328.832 1396.69 328.832 1393.76 Q328.832 1390.83 326.933 1389.12 Q325.033 1387.4 321.779 1387.4 Q320.256 1387.4 318.732 1387.74 Q317.228 1388.08 315.648 1388.8 L315.648 1374.69 Z" fill="#000000" fill-rule="nonzero" fill-opacity="1" /><path clip-path="url(#clip940)" d="M116.668 1118.49 L124.306 1118.49 L124.306 1092.12 L115.996 1093.79 L115.996 1089.53 L124.26 1087.86 L128.936 1087.86 L128.936 1118.49 L136.575 1118.49 L136.575 1122.42 L116.668 1122.42 L116.668 1118.49 Z" fill="#000000" fill-rule="nonzero" fill-opacity="1" /><path clip-path="url(#clip940)" d="M146.019 1116.54 L150.903 1116.54 L150.903 1122.42 L146.019 1122.42 L146.019 1116.54 Z" fill="#000000" fill-rule="nonzero" fill-opacity="1" /><path clip-path="url(#clip940)" d="M171.089 1090.94 Q167.477 1090.94 165.649 1094.51 Q163.843 1098.05 163.843 1105.18 Q163.843 1112.28 165.649 1115.85 Q167.477 1119.39 171.089 1119.39 Q174.723 1119.39 176.528 1115.85 Q178.357 1112.28 178.357 1105.18 Q178.357 1098.05 176.528 1094.51 Q174.723 1090.94 171.089 1090.94 M171.089 1087.24 Q176.899 1087.24 179.954 1091.84 Q183.033 1096.43 183.033 1105.18 Q183.033 1113.9 179.954 1118.51 Q176.899 1123.09 171.089 1123.09 Q165.278 1123.09 162.2 1118.51 Q159.144 1113.9 159.144 1105.18 Q159.144 1096.43 162.2 1091.84 Q165.278 1087.24 171.089 1087.24 Z" fill="#000000" fill-rule="nonzero" fill-opacity="1" /><path clip-path="url(#clip940)" d="M201.25 1090.94 Q197.639 1090.94 195.811 1094.51 Q194.005 1098.05 194.005 1105.18 Q194.005 1112.28 195.811 1115.85 Q197.639 1119.39 201.25 1119.39 Q204.885 1119.39 206.69 1115.85 Q208.519 1112.28 208.519 1105.18 Q208.519 1098.05 206.69 1094.51 Q204.885 1090.94 201.25 1090.94 M201.25 1087.24 Q207.061 1087.24 210.116 1091.84 Q213.195 1096.43 213.195 1105.18 Q213.195 1113.9 210.116 1118.51 Q207.061 1123.09 201.25 1123.09 Q195.44 1123.09 192.362 1118.51 Q189.306 1113.9 189.306 1105.18 Q189.306 1096.43 192.362 1091.84 Q195.44 1087.24 201.25 1087.24 Z" fill="#000000" fill-rule="nonzero" fill-opacity="1" /><path clip-path="url(#clip940)" d="M249.584 1096.96 L239.005 1107.58 L249.584 1118.16 L246.829 1120.96 L236.204 1110.34 L225.579 1120.96 L222.848 1118.16 L233.403 1107.58 L222.848 1096.96 L225.579 1094.16 L236.204 1104.78 L246.829 1094.16 L249.584 1096.96 Z" fill="#000000" fill-rule="nonzero" fill-opacity="1" /><path clip-path="url(#clip940)" d="M261.945 1118.49 L269.583 1118.49 L269.583 1092.12 L261.273 1093.79 L261.273 1089.53 L269.537 1087.86 L274.213 1087.86 L274.213 1118.49 L281.852 1118.49 L281.852 1122.42 L261.945 1122.42 L261.945 1118.49 Z" fill="#000000" fill-rule="nonzero" fill-opacity="1" /><path clip-path="url(#clip940)" d="M301.296 1090.94 Q297.685 1090.94 295.856 1094.51 Q294.051 1098.05 294.051 1105.18 Q294.051 1112.28 295.856 1115.85 Q297.685 1119.39 301.296 1119.39 Q304.93 1119.39 306.736 1115.85 Q308.565 1112.28 308.565 1105.18 Q308.565 1098.05 306.736 1094.51 Q304.93 1090.94 301.296 1090.94 M301.296 1087.24 Q307.106 1087.24 310.162 1091.84 Q313.241 1096.43 313.241 1105.18 Q313.241 1113.9 310.162 1118.51 Q307.106 1123.09 301.296 1123.09 Q295.486 1123.09 292.407 1118.51 Q289.352 1113.9 289.352 1105.18 Q289.352 1096.43 292.407 1091.84 Q295.486 1087.24 301.296 1087.24 Z" fill="#000000" fill-rule="nonzero" fill-opacity="1" /><path clip-path="url(#clip940)" d="M323.265 1079.46 Q320.707 1079.46 319.203 1081.21 Q317.717 1082.96 317.717 1086 Q317.717 1089.03 319.203 1090.8 Q320.707 1092.55 323.265 1092.55 Q325.823 1092.55 327.309 1090.8 Q328.813 1089.03 328.813 1086 Q328.813 1082.96 327.309 1081.21 Q325.823 1079.46 323.265 1079.46 M330.807 1067.55 L330.807 1071.01 Q329.378 1070.34 327.911 1069.98 Q326.462 1069.62 325.033 1069.62 Q321.271 1069.62 319.278 1072.16 Q317.303 1074.7 317.021 1079.83 Q318.131 1078.2 319.804 1077.33 Q321.478 1076.45 323.491 1076.45 Q327.723 1076.45 330.168 1079.03 Q332.631 1081.58 332.631 1086 Q332.631 1090.33 330.074 1092.94 Q327.516 1095.56 323.265 1095.56 Q318.394 1095.56 315.817 1091.83 Q313.241 1088.09 313.241 1081 Q313.241 1074.34 316.4 1070.39 Q319.56 1066.42 324.883 1066.42 Q326.312 1066.42 327.76 1066.71 Q329.227 1066.99 330.807 1067.55 Z" fill="#000000" fill-rule="nonzero" fill-opacity="1" /><path clip-path="url(#clip940)" d="M116.668 810.729 L124.306 810.729 L124.306 784.364 L115.996 786.03 L115.996 781.771 L124.26 780.104 L128.936 780.104 L128.936 810.729 L136.575 810.729 L136.575 814.664 L116.668 814.664 L116.668 810.729 Z" fill="#000000" fill-rule="nonzero" fill-opacity="1" /><path clip-path="url(#clip940)" d="M146.019 808.785 L150.903 808.785 L150.903 814.664 L146.019 814.664 L146.019 808.785 Z" fill="#000000" fill-rule="nonzero" fill-opacity="1" /><path clip-path="url(#clip940)" d="M161.135 780.104 L179.491 780.104 L179.491 784.04 L165.417 784.04 L165.417 792.512 Q166.436 792.165 167.454 792.002 Q168.473 791.817 169.491 791.817 Q175.278 791.817 178.658 794.989 Q182.038 798.16 182.038 803.577 Q182.038 809.155 178.565 812.257 Q175.093 815.336 168.774 815.336 Q166.598 815.336 164.329 814.965 Q162.084 814.595 159.677 813.854 L159.677 809.155 Q161.76 810.289 163.982 810.845 Q166.204 811.401 168.681 811.401 Q172.686 811.401 175.024 809.294 Q177.362 807.188 177.362 803.577 Q177.362 799.965 175.024 797.859 Q172.686 795.752 168.681 795.752 Q166.806 795.752 164.931 796.169 Q163.079 796.586 161.135 797.465 L161.135 780.104 Z" fill="#000000" fill-rule="nonzero" fill-opacity="1" /><path clip-path="url(#clip940)" d="M201.25 783.183 Q197.639 783.183 195.811 786.748 Q194.005 790.29 194.005 797.419 Q194.005 804.526 195.811 808.09 Q197.639 811.632 201.25 811.632 Q204.885 811.632 206.69 808.09 Q208.519 804.526 208.519 797.419 Q208.519 790.29 206.69 786.748 Q204.885 783.183 201.25 783.183 M201.25 779.479 Q207.061 779.479 210.116 784.086 Q213.195 788.669 213.195 797.419 Q213.195 806.146 210.116 810.752 Q207.061 815.336 201.25 815.336 Q195.44 815.336 192.362 810.752 Q189.306 806.146 189.306 797.419 Q189.306 788.669 192.362 784.086 Q195.44 779.479 201.25 779.479 Z" fill="#000000" fill-rule="nonzero" fill-opacity="1" /><path clip-path="url(#clip940)" d="M249.584 789.202 L239.005 799.827 L249.584 810.405 L246.829 813.206 L236.204 802.581 L225.579 813.206 L222.848 810.405 L233.403 799.827 L222.848 789.202 L225.579 786.401 L236.204 797.026 L246.829 786.401 L249.584 789.202 Z" fill="#000000" fill-rule="nonzero" fill-opacity="1" /><path clip-path="url(#clip940)" d="M261.945 810.729 L269.583 810.729 L269.583 784.364 L261.273 786.03 L261.273 781.771 L269.537 780.104 L274.213 780.104 L274.213 810.729 L281.852 810.729 L281.852 814.664 L261.945 814.664 L261.945 810.729 Z" fill="#000000" fill-rule="nonzero" fill-opacity="1" /><path clip-path="url(#clip940)" d="M301.296 783.183 Q297.685 783.183 295.856 786.748 Q294.051 790.29 294.051 797.419 Q294.051 804.526 295.856 808.09 Q297.685 811.632 301.296 811.632 Q304.93 811.632 306.736 808.09 Q308.565 804.526 308.565 797.419 Q308.565 790.29 306.736 786.748 Q304.93 783.183 301.296 783.183 M301.296 779.479 Q307.106 779.479 310.162 784.086 Q313.241 788.669 313.241 797.419 Q313.241 806.146 310.162 810.752 Q307.106 815.336 301.296 815.336 Q295.486 815.336 292.407 810.752 Q289.352 806.146 289.352 797.419 Q289.352 788.669 292.407 784.086 Q295.486 779.479 301.296 779.479 Z" fill="#000000" fill-rule="nonzero" fill-opacity="1" /><path clip-path="url(#clip940)" d="M323.265 771.7 Q320.707 771.7 319.203 773.449 Q317.717 775.198 317.717 778.245 Q317.717 781.273 319.203 783.041 Q320.707 784.79 323.265 784.79 Q325.823 784.79 327.309 783.041 Q328.813 781.273 328.813 778.245 Q328.813 775.198 327.309 773.449 Q325.823 771.7 323.265 771.7 M330.807 759.795 L330.807 763.255 Q329.378 762.578 327.911 762.221 Q326.462 761.864 325.033 761.864 Q321.271 761.864 319.278 764.403 Q317.303 766.942 317.021 772.076 Q318.131 770.44 319.804 769.575 Q321.478 768.691 323.491 768.691 Q327.723 768.691 330.168 771.267 Q332.631 773.825 332.631 778.245 Q332.631 782.571 330.074 785.185 Q327.516 787.799 323.265 787.799 Q318.394 787.799 315.817 784.075 Q313.241 780.333 313.241 773.242 Q313.241 766.584 316.4 762.635 Q319.56 758.666 324.883 758.666 Q326.312 758.666 327.76 758.948 Q329.227 759.23 330.807 759.795 Z" fill="#000000" fill-rule="nonzero" fill-opacity="1" /><path clip-path="url(#clip940)" d="M119.885 502.972 L136.204 502.972 L136.204 506.907 L114.26 506.907 L114.26 502.972 Q116.922 500.217 121.505 495.587 Q126.112 490.935 127.292 489.592 Q129.538 487.069 130.417 485.333 Q131.32 483.573 131.32 481.884 Q131.32 479.129 129.376 477.393 Q127.455 475.657 124.353 475.657 Q122.154 475.657 119.7 476.421 Q117.269 477.185 114.492 478.736 L114.492 474.013 Q117.316 472.879 119.769 472.3 Q122.223 471.722 124.26 471.722 Q129.63 471.722 132.825 474.407 Q136.019 477.092 136.019 481.583 Q136.019 483.712 135.209 485.634 Q134.422 487.532 132.316 490.124 Q131.737 490.796 128.635 494.013 Q125.533 497.208 119.885 502.972 Z" fill="#000000" fill-rule="nonzero" fill-opacity="1" /><path clip-path="url(#clip940)" d="M146.019 501.027 L150.903 501.027 L150.903 506.907 L146.019 506.907 L146.019 501.027 Z" fill="#000000" fill-rule="nonzero" fill-opacity="1" /><path clip-path="url(#clip940)" d="M171.089 475.425 Q167.477 475.425 165.649 478.99 Q163.843 482.532 163.843 489.661 Q163.843 496.768 165.649 500.333 Q167.477 503.874 171.089 503.874 Q174.723 503.874 176.528 500.333 Q178.357 496.768 178.357 489.661 Q178.357 482.532 176.528 478.99 Q174.723 475.425 171.089 475.425 M171.089 471.722 Q176.899 471.722 179.954 476.328 Q183.033 480.911 183.033 489.661 Q183.033 498.388 179.954 502.995 Q176.899 507.578 171.089 507.578 Q165.278 507.578 162.2 502.995 Q159.144 498.388 159.144 489.661 Q159.144 480.911 162.2 476.328 Q165.278 471.722 171.089 471.722 Z" fill="#000000" fill-rule="nonzero" fill-opacity="1" /><path clip-path="url(#clip940)" d="M201.25 475.425 Q197.639 475.425 195.811 478.99 Q194.005 482.532 194.005 489.661 Q194.005 496.768 195.811 500.333 Q197.639 503.874 201.25 503.874 Q204.885 503.874 206.69 500.333 Q208.519 496.768 208.519 489.661 Q208.519 482.532 206.69 478.99 Q204.885 475.425 201.25 475.425 M201.25 471.722 Q207.061 471.722 210.116 476.328 Q213.195 480.911 213.195 489.661 Q213.195 498.388 210.116 502.995 Q207.061 507.578 201.25 507.578 Q195.44 507.578 192.362 502.995 Q189.306 498.388 189.306 489.661 Q189.306 480.911 192.362 476.328 Q195.44 471.722 201.25 471.722 Z" fill="#000000" fill-rule="nonzero" fill-opacity="1" /><path clip-path="url(#clip940)" d="M249.584 481.444 L239.005 492.069 L249.584 502.647 L246.829 505.448 L236.204 494.823 L225.579 505.448 L222.848 502.647 L233.403 492.069 L222.848 481.444 L225.579 478.643 L236.204 489.268 L246.829 478.643 L249.584 481.444 Z" fill="#000000" fill-rule="nonzero" fill-opacity="1" /><path clip-path="url(#clip940)" d="M261.945 502.972 L269.583 502.972 L269.583 476.606 L261.273 478.273 L261.273 474.013 L269.537 472.347 L274.213 472.347 L274.213 502.972 L281.852 502.972 L281.852 506.907 L261.945 506.907 L261.945 502.972 Z" fill="#000000" fill-rule="nonzero" fill-opacity="1" /><path clip-path="url(#clip940)" d="M301.296 475.425 Q297.685 475.425 295.856 478.99 Q294.051 482.532 294.051 489.661 Q294.051 496.768 295.856 500.333 Q297.685 503.874 301.296 503.874 Q304.93 503.874 306.736 500.333 Q308.565 496.768 308.565 489.661 Q308.565 482.532 306.736 478.99 Q304.93 475.425 301.296 475.425 M301.296 471.722 Q307.106 471.722 310.162 476.328 Q313.241 480.911 313.241 489.661 Q313.241 498.388 310.162 502.995 Q307.106 507.578 301.296 507.578 Q295.486 507.578 292.407 502.995 Q289.352 498.388 289.352 489.661 Q289.352 480.911 292.407 476.328 Q295.486 471.722 301.296 471.722 Z" fill="#000000" fill-rule="nonzero" fill-opacity="1" /><path clip-path="url(#clip940)" d="M323.265 463.942 Q320.707 463.942 319.203 465.691 Q317.717 467.44 317.717 470.487 Q317.717 473.515 319.203 475.283 Q320.707 477.032 323.265 477.032 Q325.823 477.032 327.309 475.283 Q328.813 473.515 328.813 470.487 Q328.813 467.44 327.309 465.691 Q325.823 463.942 323.265 463.942 M330.807 452.037 L330.807 455.498 Q329.378 454.82 327.911 454.463 Q326.462 454.106 325.033 454.106 Q321.271 454.106 319.278 456.645 Q317.303 459.184 317.021 464.318 Q318.131 462.682 319.804 461.817 Q321.478 460.933 323.491 460.933 Q327.723 460.933 330.168 463.51 Q332.631 466.068 332.631 470.487 Q332.631 474.813 330.074 477.427 Q327.516 480.042 323.265 480.042 Q318.394 480.042 315.817 476.318 Q313.241 472.575 313.241 465.484 Q313.241 458.827 316.4 454.877 Q319.56 450.908 324.883 450.908 Q326.312 450.908 327.76 451.191 Q329.227 451.473 330.807 452.037 Z" fill="#000000" fill-rule="nonzero" fill-opacity="1" /><path clip-path="url(#clip940)" d="M119.885 195.214 L136.204 195.214 L136.204 199.149 L114.26 199.149 L114.26 195.214 Q116.922 192.459 121.505 187.83 Q126.112 183.177 127.292 181.834 Q129.538 179.311 130.417 177.575 Q131.32 175.816 131.32 174.126 Q131.32 171.371 129.376 169.635 Q127.455 167.899 124.353 167.899 Q122.154 167.899 119.7 168.663 Q117.269 169.427 114.492 170.978 L114.492 166.256 Q117.316 165.121 119.769 164.543 Q122.223 163.964 124.26 163.964 Q129.63 163.964 132.825 166.649 Q136.019 169.334 136.019 173.825 Q136.019 175.955 135.209 177.876 Q134.422 179.774 132.316 182.367 Q131.737 183.038 128.635 186.255 Q125.533 189.45 119.885 195.214 Z" fill="#000000" fill-rule="nonzero" fill-opacity="1" /><path clip-path="url(#clip940)" d="M146.019 193.269 L150.903 193.269 L150.903 199.149 L146.019 199.149 L146.019 193.269 Z" fill="#000000" fill-rule="nonzero" fill-opacity="1" /><path clip-path="url(#clip940)" d="M161.135 164.589 L179.491 164.589 L179.491 168.524 L165.417 168.524 L165.417 176.996 Q166.436 176.649 167.454 176.487 Q168.473 176.302 169.491 176.302 Q175.278 176.302 178.658 179.473 Q182.038 182.644 182.038 188.061 Q182.038 193.64 178.565 196.742 Q175.093 199.82 168.774 199.82 Q166.598 199.82 164.329 199.45 Q162.084 199.079 159.677 198.339 L159.677 193.64 Q161.76 194.774 163.982 195.33 Q166.204 195.885 168.681 195.885 Q172.686 195.885 175.024 193.779 Q177.362 191.672 177.362 188.061 Q177.362 184.45 175.024 182.343 Q172.686 180.237 168.681 180.237 Q166.806 180.237 164.931 180.654 Q163.079 181.07 161.135 181.95 L161.135 164.589 Z" fill="#000000" fill-rule="nonzero" fill-opacity="1" /><path clip-path="url(#clip940)" d="M201.25 167.668 Q197.639 167.668 195.811 171.232 Q194.005 174.774 194.005 181.904 Q194.005 189.01 195.811 192.575 Q197.639 196.117 201.25 196.117 Q204.885 196.117 206.69 192.575 Q208.519 189.01 208.519 181.904 Q208.519 174.774 206.69 171.232 Q204.885 167.668 201.25 167.668 M201.25 163.964 Q207.061 163.964 210.116 168.57 Q213.195 173.154 213.195 181.904 Q213.195 190.63 210.116 195.237 Q207.061 199.82 201.25 199.82 Q195.44 199.82 192.362 195.237 Q189.306 190.63 189.306 181.904 Q189.306 173.154 192.362 168.57 Q195.44 163.964 201.25 163.964 Z" fill="#000000" fill-rule="nonzero" fill-opacity="1" /><path clip-path="url(#clip940)" d="M249.584 173.686 L239.005 184.311 L249.584 194.89 L246.829 197.691 L236.204 187.066 L225.579 197.691 L222.848 194.89 L233.403 184.311 L222.848 173.686 L225.579 170.885 L236.204 181.51 L246.829 170.885 L249.584 173.686 Z" fill="#000000" fill-rule="nonzero" fill-opacity="1" /><path clip-path="url(#clip940)" d="M261.945 195.214 L269.583 195.214 L269.583 168.848 L261.273 170.515 L261.273 166.256 L269.537 164.589 L274.213 164.589 L274.213 195.214 L281.852 195.214 L281.852 199.149 L261.945 199.149 L261.945 195.214 Z" fill="#000000" fill-rule="nonzero" fill-opacity="1" /><path clip-path="url(#clip940)" d="M301.296 167.668 Q297.685 167.668 295.856 171.232 Q294.051 174.774 294.051 181.904 Q294.051 189.01 295.856 192.575 Q297.685 196.117 301.296 196.117 Q304.93 196.117 306.736 192.575 Q308.565 189.01 308.565 181.904 Q308.565 174.774 306.736 171.232 Q304.93 167.668 301.296 167.668 M301.296 163.964 Q307.106 163.964 310.162 168.57 Q313.241 173.154 313.241 181.904 Q313.241 190.63 310.162 195.237 Q307.106 199.82 301.296 199.82 Q295.486 199.82 292.407 195.237 Q289.352 190.63 289.352 181.904 Q289.352 173.154 292.407 168.57 Q295.486 163.964 301.296 163.964 Z" fill="#000000" fill-rule="nonzero" fill-opacity="1" /><path clip-path="url(#clip940)" d="M323.265 156.185 Q320.707 156.185 319.203 157.934 Q317.717 159.683 317.717 162.73 Q317.717 165.758 319.203 167.526 Q320.707 169.275 323.265 169.275 Q325.823 169.275 327.309 167.526 Q328.813 165.758 328.813 162.73 Q328.813 159.683 327.309 157.934 Q325.823 156.185 323.265 156.185 M330.807 144.279 L330.807 147.74 Q329.378 147.063 327.911 146.705 Q326.462 146.348 325.033 146.348 Q321.271 146.348 319.278 148.887 Q317.303 151.426 317.021 156.561 Q318.131 154.924 319.804 154.059 Q321.478 153.175 323.491 153.175 Q327.723 153.175 330.168 155.752 Q332.631 158.31 332.631 162.73 Q332.631 167.055 330.074 169.67 Q327.516 172.284 323.265 172.284 Q318.394 172.284 315.817 168.56 Q313.241 164.817 313.241 157.727 Q313.241 151.069 316.4 147.119 Q319.56 143.151 324.883 143.151 Q326.312 143.151 327.76 143.433 Q329.227 143.715 330.807 144.279 Z" fill="#000000" fill-rule="nonzero" fill-opacity="1" /><path clip-path="url(#clip940)" d="M39.9715 732.838 Q40.197 732.612 40.519 732.612 Q40.8411 732.612 41.5818 733.353 L59.1662 749.037 Q80.2289 743.047 80.2289 739.762 Q80.2289 738.764 79.4559 737.733 Q78.7152 736.67 77.588 736.251 Q77.0405 736.09 76.8473 735.929 Q76.654 735.768 76.654 735.317 Q76.654 734.545 77.3948 734.545 Q77.7812 734.545 78.4253 734.899 Q79.1017 735.253 79.8424 735.897 Q80.6153 736.541 81.1306 737.669 Q81.6781 738.796 81.6781 740.148 Q81.6781 741.823 81.2917 743.176 Q80.9052 744.528 80.4221 745.301 Q79.939 746.074 79.0695 746.783 Q78.2321 747.459 77.7168 747.717 Q77.2337 747.942 76.3964 748.329 Q74.5928 749.102 72.5961 749.81 Q70.5993 750.519 69.1501 750.97 Q67.7008 751.42 63.2564 752.805 L80.2289 767.91 Q80.9374 768.618 80.9374 768.973 Q80.9374 769.262 80.6798 769.52 Q80.4543 769.778 80.1645 769.778 Q79.8424 769.778 79.1017 769.037 L62.1614 753.868 Q61.9359 753.643 61.7427 753.514 Q61.5495 753.385 61.4851 753.385 L61.4206 753.353 Q61.2596 753.353 59.1984 753.932 Q57.1373 754.512 53.9489 755.575 Q50.7283 756.606 48.3773 757.572 Q46.7992 758.184 45.833 758.602 Q44.8668 759.021 43.4176 759.762 Q41.9683 760.47 41.2276 761.211 Q40.4546 761.952 40.4546 762.628 Q40.4546 762.853 40.5512 763.208 Q40.6479 763.562 40.9055 764.142 Q41.131 764.689 41.7751 765.237 Q42.387 765.784 43.2887 766.138 Q43.9973 766.428 43.9973 766.976 Q43.9973 767.33 43.8362 767.556 Q43.6752 767.749 43.5142 767.749 L43.3532 767.781 Q42.7735 767.781 41.8073 767.233 Q40.8411 766.686 39.9393 765.333 Q39.0054 763.981 39.0054 762.242 Q39.0054 760.599 39.3918 759.246 Q39.7783 757.894 40.2292 757.153 Q40.6801 756.38 41.5174 755.704 Q42.3226 755.027 42.709 754.834 Q43.0633 754.609 43.804 754.255 Q46.3161 753.16 48.4739 752.451 Q50.5995 751.71 57.3305 749.585 L40.519 734.48 Q39.7139 733.804 39.7139 733.417 Q39.7139 733.063 39.9715 732.838 Z" fill="#000000" fill-rule="nonzero" fill-opacity="1" /><path clip-path="url(#clip940)" d="M48.415 725.941 Q47.5808 725.941 47.3328 725.873 Q47.0849 725.783 46.7016 725.422 L36.8273 716.563 Q31.3716 711.716 26.6148 711.716 Q23.5263 711.716 21.3169 713.339 Q19.1076 714.939 19.1076 717.893 Q19.1076 719.922 20.3475 721.635 Q21.5875 723.348 23.7968 724.137 Q23.7517 724.002 23.7517 723.529 Q23.7517 722.379 24.4731 721.748 Q25.1945 721.094 26.1639 721.094 Q27.4039 721.094 28.0125 721.905 Q28.5987 722.695 28.5987 723.484 Q28.5987 723.799 28.5311 724.228 Q28.4634 724.633 27.8322 725.287 Q27.1784 725.941 26.0287 725.941 Q22.8049 725.941 20.2348 723.506 Q17.6648 721.049 17.6648 717.306 Q17.6648 713.068 20.1897 710.295 Q22.6921 707.5 26.6148 707.5 Q27.99 707.5 29.2525 707.928 Q30.4924 708.334 31.4618 708.898 Q32.4312 709.439 33.9867 710.927 Q35.5423 712.414 36.6469 713.609 Q37.7516 714.804 40.0962 717.487 L44.853 722.379 L44.853 714.06 Q44.853 710.002 44.4923 709.687 Q43.8385 709.236 40.3893 708.672 L40.3893 707.5 L48.415 708.807 L48.415 725.941 Z" fill="#000000" fill-rule="nonzero" fill-opacity="1" /><polyline clip-path="url(#clip943)" style="stroke:#009af9; stroke-linecap:round; stroke-linejoin:round; stroke-width:4; stroke-opacity:1; fill:none" points="424.786,617.962 443.504,532.687 462.222,497.474 480.94,499.566 499.658,526.208 518.377,564.646 537.095,604.25 555.813,642.893 574.531,680.573 593.249,717.289 611.967,753.04 630.686,787.823 649.404,821.638 668.122,854.483 686.84,886.357 705.558,917.257 724.276,947.182 742.995,976.131 761.713,1004.1 780.431,1031.1 799.149,1057.11 817.867,1082.14 836.585,1106.18 855.303,1129.24 874.022,1151.32 892.74,1172.4 911.458,1192.49 930.176,1211.6 948.894,1229.71 967.612,1246.82 986.331,1262.94 1005.05,1278.06 1023.77,1292.19 1042.48,1305.31 1061.2,1317.43 1079.92,1328.54 1098.64,1338.65 1117.36,1347.75 1136.08,1355.85 1154.79,1362.93 1173.51,1369 1192.23,1374.06 1210.95,1378.1 1229.67,1381.13 1248.38,1383.14 1267.1,1384.13 1285.82,1384.09 1304.54,1383.04 1323.26,1380.96 1341.98,1377.85 1360.69,1373.71 1379.41,1368.55 1398.13,1362.35 1416.85,1355.12 1435.57,1346.86 1454.28,1337.56 1473,1327.22 1491.72,1315.85 1510.44,1303.42 1529.16,1289.96 1547.88,1275.44 1566.59,1259.87 1585.31,1243.25 1604.03,1225.58 1622.75,1206.85 1641.47,1187.08 1660.18,1166.26 1678.9,1144.38 1697.62,1121.45 1716.34,1097.46 1735.06,1072.42 1753.77,1046.31 1772.49,1019.14 1791.21,990.902 1809.93,961.599 1828.65,931.229 1847.37,899.792 1866.08,867.295 1884.8,833.747 1903.52,799.156 1922.24,763.531 1940.96,726.891 1959.67,689.294 1978.39,650.811 1997.11,611.511 2015.83,571.461 2034.55,530.746 2053.27,489.494 2071.98,447.849 2090.7,405.955 2109.42,363.954 2128.14,321.948 2146.86,279.869 2165.57,237.606 2184.29,195.05 2203.01,152.09 2221.73,111.324 2240.45,86.1857 2259.17,92.816 2277.88,147.356 2296.6,265.948 "/>
<circle clip-path="url(#clip943)" cx="424.786" cy="617.962" r="14.4" fill="#008000" fill-rule="evenodd" fill-opacity="1" stroke="#000000" stroke-opacity="1" stroke-width="3.2"/>
<circle clip-path="url(#clip943)" cx="518.377" cy="564.646" r="14.4" fill="#008000" fill-rule="evenodd" fill-opacity="1" stroke="#000000" stroke-opacity="1" stroke-width="3.2"/>
<circle clip-path="url(#clip943)" cx="611.967" cy="753.04" r="14.4" fill="#008000" fill-rule="evenodd" fill-opacity="1" stroke="#000000" stroke-opacity="1" stroke-width="3.2"/>
<circle clip-path="url(#clip943)" cx="705.558" cy="917.257" r="14.4" fill="#008000" fill-rule="evenodd" fill-opacity="1" stroke="#000000" stroke-opacity="1" stroke-width="3.2"/>
<circle clip-path="url(#clip943)" cx="799.149" cy="1057.11" r="14.4" fill="#008000" fill-rule="evenodd" fill-opacity="1" stroke="#000000" stroke-opacity="1" stroke-width="3.2"/>
<circle clip-path="url(#clip943)" cx="892.74" cy="1172.4" r="14.4" fill="#008000" fill-rule="evenodd" fill-opacity="1" stroke="#000000" stroke-opacity="1" stroke-width="3.2"/>
<circle clip-path="url(#clip943)" cx="986.331" cy="1262.94" r="14.4" fill="#008000" fill-rule="evenodd" fill-opacity="1" stroke="#000000" stroke-opacity="1" stroke-width="3.2"/>
<circle clip-path="url(#clip943)" cx="1079.92" cy="1328.54" r="14.4" fill="#008000" fill-rule="evenodd" fill-opacity="1" stroke="#000000" stroke-opacity="1" stroke-width="3.2"/>
<circle clip-path="url(#clip943)" cx="1173.51" cy="1369" r="14.4" fill="#008000" fill-rule="evenodd" fill-opacity="1" stroke="#000000" stroke-opacity="1" stroke-width="3.2"/>
<circle clip-path="url(#clip943)" cx="1267.1" cy="1384.13" r="14.4" fill="#008000" fill-rule="evenodd" fill-opacity="1" stroke="#000000" stroke-opacity="1" stroke-width="3.2"/>
<circle clip-path="url(#clip943)" cx="1360.69" cy="1373.71" r="14.4" fill="#008000" fill-rule="evenodd" fill-opacity="1" stroke="#000000" stroke-opacity="1" stroke-width="3.2"/>
<circle clip-path="url(#clip943)" cx="1454.28" cy="1337.56" r="14.4" fill="#008000" fill-rule="evenodd" fill-opacity="1" stroke="#000000" stroke-opacity="1" stroke-width="3.2"/>
<circle clip-path="url(#clip943)" cx="1547.88" cy="1275.44" r="14.4" fill="#008000" fill-rule="evenodd" fill-opacity="1" stroke="#000000" stroke-opacity="1" stroke-width="3.2"/>
<circle clip-path="url(#clip943)" cx="1641.47" cy="1187.08" r="14.4" fill="#008000" fill-rule="evenodd" fill-opacity="1" stroke="#000000" stroke-opacity="1" stroke-width="3.2"/>
<circle clip-path="url(#clip943)" cx="1735.06" cy="1072.42" r="14.4" fill="#008000" fill-rule="evenodd" fill-opacity="1" stroke="#000000" stroke-opacity="1" stroke-width="3.2"/>
<circle clip-path="url(#clip943)" cx="1828.65" cy="931.229" r="14.4" fill="#008000" fill-rule="evenodd" fill-opacity="1" stroke="#000000" stroke-opacity="1" stroke-width="3.2"/>
<circle clip-path="url(#clip943)" cx="1922.24" cy="763.531" r="14.4" fill="#008000" fill-rule="evenodd" fill-opacity="1" stroke="#000000" stroke-opacity="1" stroke-width="3.2"/>
<circle clip-path="url(#clip943)" cx="2015.83" cy="571.461" r="14.4" fill="#008000" fill-rule="evenodd" fill-opacity="1" stroke="#000000" stroke-opacity="1" stroke-width="3.2"/>
<circle clip-path="url(#clip943)" cx="2109.42" cy="363.954" r="14.4" fill="#008000" fill-rule="evenodd" fill-opacity="1" stroke="#000000" stroke-opacity="1" stroke-width="3.2"/>
<circle clip-path="url(#clip943)" cx="2203.01" cy="152.09" r="14.4" fill="#008000" fill-rule="evenodd" fill-opacity="1" stroke="#000000" stroke-opacity="1" stroke-width="3.2"/>
<circle clip-path="url(#clip943)" cx="2296.6" cy="265.948" r="14.4" fill="#008000" fill-rule="evenodd" fill-opacity="1" stroke="#000000" stroke-opacity="1" stroke-width="3.2"/>
<circle clip-path="url(#clip943)" cx="1275.85" cy="1384.24" r="14.4" fill="#ff0000" fill-rule="evenodd" fill-opacity="1" stroke="#000000" stroke-opacity="1" stroke-width="3.2"/>
<path clip-path="url(#clip940)" d="M875.576 314.384 L1845.81 314.384 L1845.81 93.1086 L875.576 93.1086  Z" fill="#ffffff" fill-rule="evenodd" fill-opacity="1"/>
<polyline clip-path="url(#clip940)" style="stroke:#000000; stroke-linecap:round; stroke-linejoin:round; stroke-width:4; stroke-opacity:1; fill:none" points="875.576,314.384 1845.81,314.384 1845.81,93.1086 875.576,93.1086 875.576,314.384 "/>
<polyline clip-path="url(#clip940)" style="stroke:#009af9; stroke-linecap:round; stroke-linejoin:round; stroke-width:4; stroke-opacity:1; fill:none" points="897.621,148.427 1029.9,148.427 "/>
<path clip-path="url(#clip940)" d="M1079.81 129.906 L1079.81 134.837 Q1077.45 132.638 1074.77 131.55 Q1072.1 130.462 1069.09 130.462 Q1063.17 130.462 1060.02 134.096 Q1056.87 137.707 1056.87 144.559 Q1056.87 151.388 1060.02 155.022 Q1063.17 158.633 1069.09 158.633 Q1072.1 158.633 1074.77 157.545 Q1077.45 156.457 1079.81 154.258 L1079.81 159.142 Q1077.36 160.809 1074.6 161.642 Q1071.87 162.476 1068.82 162.476 Q1060.97 162.476 1056.46 157.684 Q1051.94 152.869 1051.94 144.559 Q1051.94 136.226 1056.46 131.434 Q1060.97 126.619 1068.82 126.619 Q1071.92 126.619 1074.65 127.453 Q1077.41 128.263 1079.81 129.906 Z" fill="#000000" fill-rule="nonzero" fill-opacity="1" /><path clip-path="url(#clip940)" d="M1086.41 151.573 L1086.41 135.879 L1090.67 135.879 L1090.67 151.411 Q1090.67 155.091 1092.1 156.943 Q1093.54 158.772 1096.41 158.772 Q1099.86 158.772 1101.85 156.573 Q1103.86 154.374 1103.86 150.578 L1103.86 135.879 L1108.12 135.879 L1108.12 161.804 L1103.86 161.804 L1103.86 157.823 Q1102.31 160.184 1100.25 161.341 Q1098.22 162.476 1095.51 162.476 Q1091.04 162.476 1088.72 159.698 Q1086.41 156.92 1086.41 151.573 M1097.13 135.254 L1097.13 135.254 Z" fill="#000000" fill-rule="nonzero" fill-opacity="1" /><path clip-path="url(#clip940)" d="M1135.51 148.865 Q1135.51 144.166 1133.56 141.504 Q1131.64 138.818 1128.26 138.818 Q1124.88 138.818 1122.94 141.504 Q1121.02 144.166 1121.02 148.865 Q1121.02 153.564 1122.94 156.249 Q1124.88 158.911 1128.26 158.911 Q1131.64 158.911 1133.56 156.249 Q1135.51 153.564 1135.51 148.865 M1121.02 139.814 Q1122.36 137.499 1124.4 136.388 Q1126.46 135.254 1129.3 135.254 Q1134.03 135.254 1136.96 139.004 Q1139.93 142.753 1139.93 148.865 Q1139.93 154.976 1136.96 158.726 Q1134.03 162.476 1129.3 162.476 Q1126.46 162.476 1124.4 161.365 Q1122.36 160.23 1121.02 157.915 L1121.02 161.804 L1116.73 161.804 L1116.73 125.786 L1121.02 125.786 L1121.02 139.814 Z" fill="#000000" fill-rule="nonzero" fill-opacity="1" /><path clip-path="url(#clip940)" d="M1146.99 135.879 L1151.25 135.879 L1151.25 161.804 L1146.99 161.804 L1146.99 135.879 M1146.99 125.786 L1151.25 125.786 L1151.25 131.179 L1146.99 131.179 L1146.99 125.786 Z" fill="#000000" fill-rule="nonzero" fill-opacity="1" /><path clip-path="url(#clip940)" d="M1178.82 136.874 L1178.82 140.855 Q1177.01 139.86 1175.18 139.374 Q1173.38 138.865 1171.52 138.865 Q1167.38 138.865 1165.09 141.504 Q1162.8 144.119 1162.8 148.865 Q1162.8 153.61 1165.09 156.249 Q1167.38 158.865 1171.52 158.865 Q1173.38 158.865 1175.18 158.378 Q1177.01 157.869 1178.82 156.874 L1178.82 160.809 Q1177.03 161.642 1175.11 162.059 Q1173.21 162.476 1171.06 162.476 Q1165.21 162.476 1161.76 158.795 Q1158.31 155.115 1158.31 148.865 Q1158.31 142.522 1161.78 138.888 Q1165.27 135.254 1171.34 135.254 Q1173.31 135.254 1175.18 135.67 Q1177.06 136.064 1178.82 136.874 Z" fill="#000000" fill-rule="nonzero" fill-opacity="1" /><path clip-path="url(#clip940)" d="M1206.15 145.3 L1206.15 157.962 L1213.65 157.962 Q1217.43 157.962 1219.23 156.411 Q1221.06 154.837 1221.06 151.619 Q1221.06 148.378 1219.23 146.851 Q1217.43 145.3 1213.65 145.3 L1206.15 145.3 M1206.15 131.087 L1206.15 141.504 L1213.08 141.504 Q1216.5 141.504 1218.17 140.23 Q1219.86 138.934 1219.86 136.295 Q1219.86 133.679 1218.17 132.383 Q1216.5 131.087 1213.08 131.087 L1206.15 131.087 M1201.48 127.244 L1213.42 127.244 Q1218.77 127.244 1221.66 129.467 Q1224.56 131.689 1224.56 135.786 Q1224.56 138.957 1223.08 140.832 Q1221.59 142.707 1218.72 143.17 Q1222.17 143.911 1224.07 146.272 Q1225.99 148.61 1225.99 152.128 Q1225.99 156.758 1222.84 159.281 Q1219.7 161.804 1213.89 161.804 L1201.48 161.804 L1201.48 127.244 Z" fill="#000000" fill-rule="nonzero" fill-opacity="1" /><path clip-path="url(#clip940)" d="M1253.89 128.379 L1253.89 132.939 Q1251.22 131.666 1248.86 131.041 Q1246.5 130.416 1244.3 130.416 Q1240.48 130.416 1238.4 131.897 Q1236.34 133.379 1236.34 136.11 Q1236.34 138.402 1237.71 139.582 Q1239.09 140.74 1242.94 141.457 L1245.76 142.036 Q1250.99 143.031 1253.47 145.554 Q1255.97 148.054 1255.97 152.267 Q1255.97 157.29 1252.59 159.883 Q1249.23 162.476 1242.73 162.476 Q1240.27 162.476 1237.5 161.92 Q1234.74 161.365 1231.78 160.277 L1231.78 155.462 Q1234.63 157.059 1237.36 157.869 Q1240.09 158.679 1242.73 158.679 Q1246.73 158.679 1248.91 157.105 Q1251.08 155.531 1251.08 152.615 Q1251.08 150.068 1249.51 148.633 Q1247.96 147.198 1244.39 146.48 L1241.55 145.925 Q1236.32 144.883 1233.98 142.661 Q1231.64 140.439 1231.64 136.48 Q1231.64 131.897 1234.86 129.258 Q1238.1 126.619 1243.77 126.619 Q1246.2 126.619 1248.72 127.059 Q1251.25 127.499 1253.89 128.379 Z" fill="#000000" fill-rule="nonzero" fill-opacity="1" /><path clip-path="url(#clip940)" d="M1267.2 157.915 L1267.2 171.665 L1262.91 171.665 L1262.91 135.879 L1267.2 135.879 L1267.2 139.814 Q1268.54 137.499 1270.58 136.388 Q1272.64 135.254 1275.48 135.254 Q1280.2 135.254 1283.14 139.004 Q1286.11 142.753 1286.11 148.865 Q1286.11 154.976 1283.14 158.726 Q1280.2 162.476 1275.48 162.476 Q1272.64 162.476 1270.58 161.365 Q1268.54 160.23 1267.2 157.915 M1281.69 148.865 Q1281.69 144.166 1279.74 141.504 Q1277.82 138.818 1274.44 138.818 Q1271.06 138.818 1269.12 141.504 Q1267.2 144.166 1267.2 148.865 Q1267.2 153.564 1269.12 156.249 Q1271.06 158.911 1274.44 158.911 Q1277.82 158.911 1279.74 156.249 Q1281.69 153.564 1281.69 148.865 Z" fill="#000000" fill-rule="nonzero" fill-opacity="1" /><path clip-path="url(#clip940)" d="M1293.17 125.786 L1297.43 125.786 L1297.43 161.804 L1293.17 161.804 L1293.17 125.786 Z" fill="#000000" fill-rule="nonzero" fill-opacity="1" /><path clip-path="url(#clip940)" d="M1306.34 135.879 L1310.6 135.879 L1310.6 161.804 L1306.34 161.804 L1306.34 135.879 M1306.34 125.786 L1310.6 125.786 L1310.6 131.179 L1306.34 131.179 L1306.34 125.786 Z" fill="#000000" fill-rule="nonzero" fill-opacity="1" /><path clip-path="url(#clip940)" d="M1341.06 146.156 L1341.06 161.804 L1336.8 161.804 L1336.8 146.295 Q1336.8 142.615 1335.37 140.786 Q1333.93 138.957 1331.06 138.957 Q1327.61 138.957 1325.62 141.156 Q1323.63 143.355 1323.63 147.152 L1323.63 161.804 L1319.35 161.804 L1319.35 135.879 L1323.63 135.879 L1323.63 139.906 Q1325.16 137.568 1327.22 136.411 Q1329.3 135.254 1332.01 135.254 Q1336.48 135.254 1338.77 138.031 Q1341.06 140.786 1341.06 146.156 Z" fill="#000000" fill-rule="nonzero" fill-opacity="1" /><path clip-path="url(#clip940)" d="M1371.73 147.777 L1371.73 149.86 L1352.15 149.86 Q1352.43 154.258 1354.79 156.573 Q1357.17 158.865 1361.41 158.865 Q1363.86 158.865 1366.15 158.263 Q1368.47 157.661 1370.74 156.457 L1370.74 160.485 Q1368.45 161.457 1366.04 161.966 Q1363.63 162.476 1361.15 162.476 Q1354.95 162.476 1351.32 158.865 Q1347.7 155.253 1347.7 149.096 Q1347.7 142.73 1351.13 139.004 Q1354.58 135.254 1360.41 135.254 Q1365.64 135.254 1368.68 138.633 Q1371.73 141.99 1371.73 147.777 M1367.47 146.527 Q1367.43 143.031 1365.51 140.948 Q1363.61 138.865 1360.46 138.865 Q1356.89 138.865 1354.74 140.879 Q1352.61 142.892 1352.29 146.55 L1367.47 146.527 Z" fill="#000000" fill-rule="nonzero" fill-opacity="1" /><path clip-path="url(#clip940)" d="M1403.84 138.865 Q1400.41 138.865 1398.42 141.55 Q1396.43 144.212 1396.43 148.865 Q1396.43 153.517 1398.4 156.203 Q1400.39 158.865 1403.84 158.865 Q1407.24 158.865 1409.23 156.179 Q1411.22 153.494 1411.22 148.865 Q1411.22 144.258 1409.23 141.573 Q1407.24 138.865 1403.84 138.865 M1403.84 135.254 Q1409.39 135.254 1412.57 138.865 Q1415.74 142.476 1415.74 148.865 Q1415.74 155.23 1412.57 158.865 Q1409.39 162.476 1403.84 162.476 Q1398.26 162.476 1395.09 158.865 Q1391.94 155.23 1391.94 148.865 Q1391.94 142.476 1395.09 138.865 Q1398.26 135.254 1403.84 135.254 Z" fill="#000000" fill-rule="nonzero" fill-opacity="1" /><path clip-path="url(#clip940)" d="M1435.92 125.786 L1435.92 129.328 L1431.85 129.328 Q1429.56 129.328 1428.65 130.254 Q1427.77 131.179 1427.77 133.587 L1427.77 135.879 L1434.79 135.879 L1434.79 139.189 L1427.77 139.189 L1427.77 161.804 L1423.49 161.804 L1423.49 139.189 L1419.42 139.189 L1419.42 135.879 L1423.49 135.879 L1423.49 134.073 Q1423.49 129.744 1425.51 127.777 Q1427.52 125.786 1431.89 125.786 L1435.92 125.786 Z" fill="#000000" fill-rule="nonzero" fill-opacity="1" /><path clip-path="url(#clip940)" d="M1476.95 141.31 Q1477.12 141.474 1477.12 141.708 Q1477.12 141.942 1476.58 142.481 L1465.17 155.269 Q1469.53 170.588 1471.92 170.588 Q1472.64 170.588 1473.39 170.026 Q1474.17 169.487 1474.47 168.667 Q1474.59 168.269 1474.71 168.128 Q1474.82 167.988 1475.15 167.988 Q1475.71 167.988 1475.71 168.527 Q1475.71 168.808 1475.45 169.276 Q1475.2 169.768 1474.73 170.307 Q1474.26 170.869 1473.44 171.244 Q1472.62 171.642 1471.64 171.642 Q1470.42 171.642 1469.44 171.361 Q1468.45 171.08 1467.89 170.728 Q1467.33 170.377 1466.81 169.745 Q1466.32 169.136 1466.13 168.761 Q1465.97 168.409 1465.69 167.8 Q1465.13 166.489 1464.61 165.037 Q1464.09 163.584 1463.77 162.53 Q1463.44 161.476 1462.43 158.244 L1451.45 170.588 Q1450.93 171.103 1450.67 171.103 Q1450.46 171.103 1450.28 170.916 Q1450.09 170.752 1450.09 170.541 Q1450.09 170.307 1450.63 169.768 L1461.66 157.448 Q1461.82 157.284 1461.92 157.143 Q1462.01 157.003 1462.01 156.956 L1462.03 156.909 Q1462.03 156.792 1461.61 155.293 Q1461.19 153.794 1460.42 151.475 Q1459.67 149.133 1458.97 147.423 Q1458.52 146.275 1458.22 145.573 Q1457.91 144.87 1457.37 143.816 Q1456.86 142.762 1456.32 142.223 Q1455.78 141.661 1455.29 141.661 Q1455.12 141.661 1454.87 141.731 Q1454.61 141.802 1454.19 141.989 Q1453.79 142.153 1453.39 142.621 Q1452.99 143.066 1452.74 143.722 Q1452.52 144.237 1452.13 144.237 Q1451.87 144.237 1451.7 144.12 Q1451.56 144.003 1451.56 143.886 L1451.54 143.769 Q1451.54 143.347 1451.94 142.645 Q1452.34 141.942 1453.32 141.286 Q1454.3 140.607 1455.57 140.607 Q1456.76 140.607 1457.75 140.888 Q1458.73 141.169 1459.27 141.497 Q1459.83 141.825 1460.32 142.434 Q1460.82 143.02 1460.96 143.301 Q1461.12 143.558 1461.38 144.097 Q1462.17 145.924 1462.69 147.493 Q1463.23 149.039 1464.77 153.934 L1475.76 141.708 Q1476.25 141.122 1476.53 141.122 Q1476.79 141.122 1476.95 141.31 Z" fill="#000000" fill-rule="nonzero" fill-opacity="1" /><path clip-path="url(#clip940)" d="M1481.97 147.464 Q1481.97 146.858 1482.02 146.677 Q1482.09 146.497 1482.35 146.218 L1488.79 139.037 Q1492.32 135.069 1492.32 131.61 Q1492.32 129.364 1491.14 127.757 Q1489.98 126.15 1487.83 126.15 Q1486.35 126.15 1485.11 127.052 Q1483.86 127.954 1483.29 129.56 Q1483.38 129.528 1483.73 129.528 Q1484.56 129.528 1485.02 130.052 Q1485.5 130.577 1485.5 131.282 Q1485.5 132.184 1484.91 132.626 Q1484.33 133.053 1483.76 133.053 Q1483.53 133.053 1483.22 133.003 Q1482.92 132.954 1482.45 132.495 Q1481.97 132.02 1481.97 131.184 Q1481.97 128.839 1483.74 126.97 Q1485.53 125.101 1488.25 125.101 Q1491.34 125.101 1493.35 126.937 Q1495.39 128.757 1495.39 131.61 Q1495.39 132.61 1495.07 133.528 Q1494.78 134.43 1494.37 135.135 Q1493.98 135.84 1492.89 136.971 Q1491.81 138.103 1490.94 138.906 Q1490.07 139.709 1488.12 141.414 L1484.56 144.874 L1490.61 144.874 Q1493.57 144.874 1493.8 144.612 Q1494.12 144.136 1494.53 141.628 L1495.39 141.628 L1494.43 147.464 L1481.97 147.464 Z" fill="#000000" fill-rule="nonzero" fill-opacity="1" /><circle clip-path="url(#clip940)" cx="963.759" cy="203.746" r="20.48" fill="#008000" fill-rule="evenodd" fill-opacity="1" stroke="#000000" stroke-opacity="1" stroke-width="4.55111"/>
<path clip-path="url(#clip940)" d="M1078.81 196.628 Q1078.97 196.792 1078.97 197.027 Q1078.97 197.261 1078.43 197.8 L1067.03 210.588 Q1071.38 225.906 1073.77 225.906 Q1074.5 225.906 1075.25 225.344 Q1076.02 224.806 1076.33 223.986 Q1076.44 223.588 1076.56 223.447 Q1076.68 223.307 1077 223.307 Q1077.57 223.307 1077.57 223.845 Q1077.57 224.126 1077.31 224.595 Q1077.05 225.087 1076.58 225.625 Q1076.11 226.188 1075.29 226.562 Q1074.47 226.96 1073.49 226.96 Q1072.27 226.96 1071.29 226.679 Q1070.31 226.398 1069.74 226.047 Q1069.18 225.696 1068.67 225.063 Q1068.17 224.454 1067.99 224.08 Q1067.82 223.728 1067.54 223.119 Q1066.98 221.808 1066.46 220.355 Q1065.95 218.903 1065.62 217.849 Q1065.29 216.795 1064.29 213.563 L1053.3 225.906 Q1052.79 226.422 1052.53 226.422 Q1052.32 226.422 1052.13 226.234 Q1051.94 226.07 1051.94 225.86 Q1051.94 225.625 1052.48 225.087 L1063.51 212.766 Q1063.68 212.603 1063.77 212.462 Q1063.86 212.321 1063.86 212.275 L1063.89 212.228 Q1063.89 212.111 1063.47 210.612 Q1063.04 209.113 1062.27 206.794 Q1061.52 204.452 1060.82 202.742 Q1060.37 201.594 1060.07 200.891 Q1059.77 200.189 1059.23 199.135 Q1058.71 198.081 1058.17 197.542 Q1057.63 196.98 1057.14 196.98 Q1056.98 196.98 1056.72 197.05 Q1056.46 197.12 1056.04 197.308 Q1055.64 197.472 1055.24 197.94 Q1054.85 198.385 1054.59 199.041 Q1054.38 199.556 1053.98 199.556 Q1053.72 199.556 1053.56 199.439 Q1053.42 199.322 1053.42 199.205 L1053.39 199.088 Q1053.39 198.666 1053.79 197.964 Q1054.19 197.261 1055.17 196.605 Q1056.16 195.926 1057.42 195.926 Q1058.62 195.926 1059.6 196.207 Q1060.59 196.488 1061.12 196.816 Q1061.69 197.144 1062.18 197.753 Q1062.67 198.338 1062.81 198.619 Q1062.97 198.877 1063.23 199.416 Q1064.03 201.243 1064.54 202.812 Q1065.08 204.358 1066.63 209.253 L1077.61 197.027 Q1078.11 196.441 1078.39 196.441 Q1078.64 196.441 1078.81 196.628 Z" fill="#000000" fill-rule="nonzero" fill-opacity="1" /><path clip-path="url(#clip940)" d="M1083.83 202.783 Q1083.83 202.177 1083.88 201.996 Q1083.94 201.816 1084.2 201.537 L1090.65 194.356 Q1094.17 190.388 1094.17 186.929 Q1094.17 184.682 1092.99 183.076 Q1091.83 181.469 1089.68 181.469 Q1088.21 181.469 1086.96 182.371 Q1085.71 183.272 1085.14 184.879 Q1085.24 184.846 1085.58 184.846 Q1086.42 184.846 1086.88 185.371 Q1087.35 185.896 1087.35 186.601 Q1087.35 187.502 1086.76 187.945 Q1086.19 188.371 1085.62 188.371 Q1085.39 188.371 1085.07 188.322 Q1084.78 188.273 1084.3 187.814 Q1083.83 187.338 1083.83 186.502 Q1083.83 184.158 1085.6 182.289 Q1087.39 180.419 1090.11 180.419 Q1093.19 180.419 1095.21 182.256 Q1097.24 184.076 1097.24 186.929 Q1097.24 187.929 1096.93 188.847 Q1096.63 189.749 1096.22 190.454 Q1095.83 191.159 1094.75 192.29 Q1093.67 193.421 1092.8 194.225 Q1091.93 195.028 1089.98 196.733 L1086.42 200.193 L1092.47 200.193 Q1095.42 200.193 1095.65 199.93 Q1095.98 199.455 1096.39 196.946 L1097.24 196.946 L1096.29 202.783 L1083.83 202.783 Z" fill="#000000" fill-rule="nonzero" fill-opacity="1" /><circle clip-path="url(#clip940)" cx="963.759" cy="259.065" r="20.48" fill="#ff0000" fill-rule="evenodd" fill-opacity="1" stroke="#000000" stroke-opacity="1" stroke-width="4.55111"/>
<path clip-path="url(#clip940)" d="M1067.78 233.546 L1061.43 250.745 L1074.14 250.745 L1067.78 233.546 M1065.14 228.939 L1070.44 228.939 L1083.61 263.499 L1078.75 263.499 L1075.6 254.634 L1060.02 254.634 L1056.87 263.499 L1051.94 263.499 L1065.14 228.939 Z" fill="#000000" fill-rule="nonzero" fill-opacity="1" /><path clip-path="url(#clip940)" d="M1092.59 259.61 L1092.59 273.36 L1088.31 273.36 L1088.31 237.573 L1092.59 237.573 L1092.59 241.509 Q1093.93 239.194 1095.97 238.083 Q1098.03 236.948 1100.88 236.948 Q1105.6 236.948 1108.54 240.698 Q1111.5 244.448 1111.5 250.559 Q1111.5 256.671 1108.54 260.421 Q1105.6 264.171 1100.88 264.171 Q1098.03 264.171 1095.97 263.059 Q1093.93 261.925 1092.59 259.61 M1107.08 250.559 Q1107.08 245.86 1105.14 243.198 Q1103.22 240.513 1099.84 240.513 Q1096.46 240.513 1094.51 243.198 Q1092.59 245.86 1092.59 250.559 Q1092.59 255.259 1094.51 257.944 Q1096.46 260.606 1099.84 260.606 Q1103.22 260.606 1105.14 257.944 Q1107.08 255.259 1107.08 250.559 Z" fill="#000000" fill-rule="nonzero" fill-opacity="1" /><path clip-path="url(#clip940)" d="M1122.68 259.61 L1122.68 273.36 L1118.4 273.36 L1118.4 237.573 L1122.68 237.573 L1122.68 241.509 Q1124.03 239.194 1126.06 238.083 Q1128.12 236.948 1130.97 236.948 Q1135.69 236.948 1138.63 240.698 Q1141.59 244.448 1141.59 250.559 Q1141.59 256.671 1138.63 260.421 Q1135.69 264.171 1130.97 264.171 Q1128.12 264.171 1126.06 263.059 Q1124.03 261.925 1122.68 259.61 M1137.17 250.559 Q1137.17 245.86 1135.23 243.198 Q1133.31 240.513 1129.93 240.513 Q1126.55 240.513 1124.6 243.198 Q1122.68 245.86 1122.68 250.559 Q1122.68 255.259 1124.6 257.944 Q1126.55 260.606 1129.93 260.606 Q1133.31 260.606 1135.23 257.944 Q1137.17 255.259 1137.17 250.559 Z" fill="#000000" fill-rule="nonzero" fill-opacity="1" /><path clip-path="url(#clip940)" d="M1158.7 240.56 Q1155.28 240.56 1153.28 243.245 Q1151.29 245.907 1151.29 250.559 Q1151.29 255.212 1153.26 257.897 Q1155.25 260.559 1158.7 260.559 Q1162.1 260.559 1164.09 257.874 Q1166.09 255.189 1166.09 250.559 Q1166.09 245.953 1164.09 243.268 Q1162.1 240.56 1158.7 240.56 M1158.7 236.948 Q1164.26 236.948 1167.43 240.56 Q1170.6 244.171 1170.6 250.559 Q1170.6 256.925 1167.43 260.559 Q1164.26 264.171 1158.7 264.171 Q1153.12 264.171 1149.95 260.559 Q1146.8 256.925 1146.8 250.559 Q1146.8 244.171 1149.95 240.56 Q1153.12 236.948 1158.7 236.948 Z" fill="#000000" fill-rule="nonzero" fill-opacity="1" /><path clip-path="url(#clip940)" d="M1197.75 237.573 L1188.38 250.189 L1198.24 263.499 L1193.21 263.499 L1185.67 253.314 L1178.12 263.499 L1173.1 263.499 L1183.17 249.935 L1173.96 237.573 L1178.98 237.573 L1185.85 246.81 L1192.73 237.573 L1197.75 237.573 Z" fill="#000000" fill-rule="nonzero" fill-opacity="1" /><path clip-path="url(#clip940)" d="M1204.86 257.62 L1209.74 257.62 L1209.74 263.499 L1204.86 263.499 L1204.86 257.62 Z" fill="#000000" fill-rule="nonzero" fill-opacity="1" /><path clip-path="url(#clip940)" d="M1229.93 263.499 L1229.93 262.024 Q1232.48 262.024 1233.07 261.719 Q1233.65 261.391 1233.65 259.845 L1233.65 246.986 Q1233.65 245.206 1233.02 244.761 Q1232.41 244.316 1229.93 244.316 L1229.93 242.817 L1236.67 242.302 L1236.67 247.338 Q1238.92 242.302 1243.77 242.302 Q1249.39 242.302 1250.16 246.986 Q1250.98 245.159 1252.69 243.731 Q1254.43 242.302 1257.12 242.302 Q1260.73 242.302 1262.16 244.082 Q1263.21 245.277 1263.42 246.612 Q1263.63 247.947 1263.63 251.413 L1263.63 260.571 Q1263.68 261.579 1264.45 261.813 Q1265.23 262.024 1267.38 262.024 L1267.38 263.499 Q1262.48 263.359 1262.02 263.359 Q1261.64 263.359 1256.58 263.499 L1256.58 262.024 Q1259.14 262.024 1259.72 261.719 Q1260.33 261.391 1260.33 259.845 L1260.33 248.673 Q1260.33 246.237 1259.58 244.808 Q1258.83 243.356 1256.77 243.356 Q1254.29 243.356 1252.3 245.441 Q1250.3 247.525 1250.3 251.039 L1250.3 259.845 Q1250.3 261.391 1250.89 261.719 Q1251.5 262.024 1254.05 262.024 L1254.05 263.499 Q1249.16 263.359 1248.67 263.359 Q1248.29 263.359 1243.25 263.499 L1243.25 262.024 Q1245.81 262.024 1246.39 261.719 Q1247 261.391 1247 259.845 L1247 248.673 Q1247 246.237 1246.25 244.808 Q1245.5 243.356 1243.44 243.356 Q1240.96 243.356 1238.97 245.441 Q1236.98 247.525 1236.98 251.039 L1236.98 259.845 Q1236.98 261.391 1237.56 261.719 Q1238.17 262.024 1240.7 262.024 L1240.7 263.499 Q1235.81 263.359 1235.34 263.359 Q1234.96 263.359 1229.93 263.499 Z" fill="#000000" fill-rule="nonzero" fill-opacity="1" /><path clip-path="url(#clip940)" d="M1269.28 263.499 L1269.28 262.024 Q1271.83 262.024 1272.42 261.719 Q1273 261.391 1273 259.845 L1273 246.94 Q1273 245.159 1272.4 244.738 Q1271.81 244.316 1269.47 244.316 L1269.47 242.817 L1276.17 242.302 L1276.17 259.892 Q1276.17 261.321 1276.68 261.672 Q1277.2 262.024 1279.54 262.024 L1279.54 263.499 Q1274.64 263.359 1274.55 263.359 Q1273.89 263.359 1269.28 263.499 M1271.29 233.94 Q1271.29 232.98 1272.02 232.207 Q1272.77 231.41 1273.82 231.41 Q1274.88 231.41 1275.63 232.137 Q1276.38 232.839 1276.38 233.964 Q1276.38 235.064 1275.63 235.79 Q1274.88 236.493 1273.82 236.493 Q1272.72 236.493 1272 235.72 Q1271.29 234.947 1271.29 233.94 Z" fill="#000000" fill-rule="nonzero" fill-opacity="1" /><path clip-path="url(#clip940)" d="M1282.81 263.499 L1282.81 262.024 Q1285.37 262.024 1285.95 261.719 Q1286.54 261.391 1286.54 259.845 L1286.54 246.986 Q1286.54 245.206 1285.91 244.761 Q1285.3 244.316 1282.81 244.316 L1282.81 242.817 L1289.56 242.302 L1289.56 247.338 Q1291.81 242.302 1296.66 242.302 Q1300.26 242.302 1301.69 244.082 Q1302.75 245.277 1302.96 246.612 Q1303.19 247.947 1303.19 251.413 L1303.19 260.571 Q1303.24 261.579 1304.01 261.813 Q1304.78 262.024 1306.94 262.024 L1306.94 263.499 Q1302.04 263.359 1301.55 263.359 Q1301.18 263.359 1296.14 263.499 L1296.14 262.024 Q1298.7 262.024 1299.28 261.719 Q1299.89 261.391 1299.89 259.845 L1299.89 248.673 Q1299.89 246.237 1299.14 244.808 Q1298.39 243.356 1296.33 243.356 Q1293.85 243.356 1291.86 245.441 Q1289.86 247.525 1289.86 251.039 L1289.86 259.845 Q1289.86 261.391 1290.45 261.719 Q1291.06 262.024 1293.59 262.024 L1293.59 263.499 Q1288.69 263.359 1288.23 263.359 Q1287.85 263.359 1282.81 263.499 Z" fill="#000000" fill-rule="nonzero" fill-opacity="1" /><path clip-path="url(#clip940)" d="M1366.94 242.817 L1360.32 269.495 Q1360.13 270.339 1360.13 270.549 Q1360.13 270.83 1360.2 270.948 Q1360.29 271.088 1360.81 271.205 Q1361.35 271.322 1362.42 271.322 Q1362.82 271.322 1362.96 271.322 Q1363.1 271.322 1363.31 271.369 Q1363.52 271.416 1363.59 271.533 Q1363.67 271.65 1363.67 271.838 Q1363.67 272.798 1362.82 272.798 Q1362.03 272.798 1360.36 272.728 Q1358.7 272.657 1357.88 272.657 Q1357.08 272.657 1355.47 272.728 Q1353.85 272.798 1353.08 272.798 Q1352.8 272.798 1352.63 272.657 Q1352.47 272.54 1352.47 272.4 L1352.45 272.283 Q1352.45 271.627 1352.7 271.463 Q1352.96 271.322 1353.55 271.322 Q1355.56 271.299 1356.15 271.018 Q1356.73 270.737 1357.01 269.73 L1359.17 261.157 Q1356.29 264.038 1353.5 264.038 Q1350.81 264.038 1348.98 261.93 Q1347.18 259.798 1347.18 256.355 Q1347.18 253.802 1348.18 251.226 Q1349.21 248.649 1350.81 246.705 Q1352.42 244.761 1354.53 243.543 Q1356.64 242.302 1358.72 242.302 Q1360.06 242.302 1361.25 243.075 Q1362.47 243.848 1363.2 245.651 Q1363.81 244.621 1364.93 243.496 Q1366.05 242.349 1366.45 242.349 Q1366.69 242.349 1366.8 242.513 Q1366.94 242.653 1366.94 242.817 M1362.52 247.572 Q1362.52 247.338 1362.33 246.752 Q1362.17 246.167 1361.79 245.37 Q1361.44 244.55 1360.62 243.965 Q1359.8 243.356 1358.72 243.356 Q1357.18 243.356 1355.51 244.855 Q1353.87 246.331 1352.8 248.907 Q1352.12 250.593 1351.35 253.732 Q1350.57 256.871 1350.57 258.463 Q1350.57 258.838 1350.6 259.26 Q1350.64 259.681 1350.83 260.384 Q1351.02 261.087 1351.3 261.625 Q1351.6 262.164 1352.21 262.562 Q1352.82 262.961 1353.64 262.961 Q1355.42 262.961 1357.2 261.438 Q1358.98 259.916 1359.73 258.557 Q1359.82 258.417 1361.16 253.1 Q1362.52 247.783 1362.52 247.572 Z" fill="#000000" fill-rule="nonzero" fill-opacity="1" /><path clip-path="url(#clip940)" d="M1371.86 275.252 Q1371.86 270.317 1373.1 267.628 Q1374.84 263.628 1378.94 263.628 Q1379.81 263.628 1380.71 263.874 Q1381.63 264.103 1382.78 265.005 Q1383.94 265.907 1384.65 267.382 Q1385.99 270.235 1385.99 275.252 Q1385.99 280.155 1384.75 282.827 Q1382.93 286.729 1378.91 286.729 Q1377.4 286.729 1375.86 285.959 Q1374.33 285.188 1373.37 283.335 Q1371.86 280.564 1371.86 275.252 M1374.65 274.842 Q1374.65 279.909 1375.01 281.925 Q1375.42 284.106 1376.53 285.057 Q1377.66 285.991 1378.91 285.991 Q1380.25 285.991 1381.37 284.991 Q1382.5 283.975 1382.84 281.794 Q1383.22 279.646 1383.2 274.842 Q1383.2 270.17 1382.88 268.3 Q1382.43 266.12 1381.25 265.251 Q1380.09 264.365 1378.91 264.365 Q1378.47 264.365 1377.99 264.497 Q1377.53 264.628 1376.86 265.005 Q1376.19 265.382 1375.66 266.317 Q1375.15 267.251 1374.91 268.661 Q1374.65 270.481 1374.65 274.842 Z" fill="#000000" fill-rule="nonzero" fill-opacity="1" /><path clip-path="url(#clip940)" d="M1404.27 256.215 Q1404.32 255.629 1405.23 255.629 L1434.63 255.629 Q1436.01 255.629 1436.03 256.168 Q1436.03 256.754 1434.72 256.73 L1405.56 256.73 Q1404.27 256.754 1404.27 256.215 M1404.27 246.846 Q1404.27 246.26 1405.28 246.284 L1434.58 246.284 Q1436.01 246.284 1436.03 246.846 Q1436.03 247.385 1434.81 247.385 L1405.23 247.385 Q1404.27 247.385 1404.27 246.846 Z" fill="#000000" fill-rule="nonzero" fill-opacity="1" /><path clip-path="url(#clip940)" d="M1454.52 257.035 Q1454.52 255.606 1455.34 254.927 Q1456.16 254.247 1457.22 254.247 Q1458.32 254.247 1459.09 254.973 Q1459.89 255.676 1459.89 256.918 Q1459.89 258.253 1458.95 259.002 Q1458.04 259.752 1456.73 259.564 Q1457.87 261.485 1459.98 262.352 Q1462.11 263.218 1464.08 263.218 Q1466.14 263.218 1467.8 261.438 Q1469.49 259.658 1469.49 255.301 Q1469.49 251.601 1468.04 249.469 Q1466.61 247.338 1463.78 247.338 L1461.67 247.338 Q1460.94 247.338 1460.73 247.267 Q1460.52 247.197 1460.52 246.799 Q1460.52 246.331 1461.25 246.237 Q1461.97 246.237 1463.12 246.096 Q1465.91 246.003 1467.38 243.59 Q1468.72 241.342 1468.72 238.133 Q1468.72 235.205 1467.31 233.987 Q1465.93 232.746 1464.13 232.746 Q1462.44 232.746 1460.59 233.448 Q1458.74 234.151 1457.73 235.72 Q1460.71 235.72 1460.71 238.133 Q1460.71 239.187 1460.03 239.889 Q1459.37 240.569 1458.27 240.569 Q1457.22 240.569 1456.51 239.913 Q1455.81 239.234 1455.81 238.086 Q1455.81 235.345 1458.25 233.448 Q1460.71 231.551 1464.31 231.551 Q1467.87 231.551 1470.5 233.425 Q1473.14 235.299 1473.14 238.18 Q1473.14 241.014 1471.27 243.333 Q1469.4 245.651 1466.42 246.612 Q1470.08 247.338 1472.25 249.821 Q1474.43 252.28 1474.43 255.301 Q1474.43 259.049 1471.48 261.813 Q1468.53 264.553 1464.22 264.553 Q1460.24 264.553 1457.38 262.398 Q1454.52 260.244 1454.52 257.035 Z" fill="#000000" fill-rule="nonzero" fill-opacity="1" /><path clip-path="url(#clip940)" d="M1478.47 248.345 Q1478.47 240.803 1482.31 236.189 Q1486.15 231.551 1491.09 231.551 Q1493.97 231.551 1495.56 233.027 Q1497.18 234.479 1497.18 236.727 Q1497.18 237.969 1496.45 238.507 Q1495.73 239.046 1494.98 239.046 Q1494.11 239.046 1493.43 238.461 Q1492.75 237.875 1492.75 236.821 Q1492.75 234.666 1495.4 234.666 Q1494.16 232.746 1491.18 232.746 Q1490.27 232.746 1489.33 233.027 Q1488.4 233.284 1487.18 234.174 Q1485.96 235.064 1485.02 236.47 Q1484.09 237.875 1483.43 240.522 Q1482.78 243.169 1482.78 246.612 L1482.78 247.759 Q1484.74 243.005 1488.77 243.028 Q1492.8 243.028 1495.59 246.096 Q1498.37 249.165 1498.37 253.709 Q1498.37 258.37 1495.47 261.461 Q1492.57 264.553 1488.49 264.553 Q1486.66 264.553 1485 263.78 Q1483.36 263.031 1481.82 261.298 Q1480.29 259.564 1479.38 256.238 Q1478.47 252.912 1478.47 248.345 M1482.87 252.655 Q1482.87 257.363 1483.74 259.611 Q1483.88 259.986 1484.18 260.501 Q1484.51 261.016 1485.05 261.696 Q1485.61 262.352 1486.52 262.797 Q1487.44 263.218 1488.49 263.218 Q1491.7 263.218 1493.25 260.103 Q1494.07 258.37 1494.07 253.662 Q1494.07 248.86 1493.2 247.104 Q1491.72 244.129 1488.72 244.129 Q1486.71 244.129 1485.31 245.511 Q1483.92 246.893 1483.38 248.743 Q1482.87 250.593 1482.87 252.655 Z" fill="#000000" fill-rule="nonzero" fill-opacity="1" /><path clip-path="url(#clip940)" d="M1502.94 262.726 Q1502.22 261.953 1502.22 260.946 Q1502.22 259.939 1502.94 259.213 Q1503.67 258.463 1504.77 258.463 Q1505.82 258.463 1506.53 259.166 Q1507.25 259.845 1507.25 260.97 Q1507.25 262.07 1506.48 262.797 Q1505.73 263.499 1504.77 263.499 Q1503.67 263.499 1502.94 262.726 Z" fill="#000000" fill-rule="nonzero" fill-opacity="1" /><path clip-path="url(#clip940)" d="M1515.41 256.262 Q1515.41 250.898 1522.32 247.431 Q1519.35 245.417 1518.81 244.832 Q1516.7 242.489 1516.7 239.562 Q1516.7 236.212 1519.23 233.893 Q1521.78 231.551 1525.39 231.551 Q1528.83 231.551 1531.43 233.542 Q1534.03 235.533 1534.03 238.695 Q1534.03 243.145 1528.22 246.143 Q1532.07 248.532 1532.98 249.539 Q1535.32 252.139 1535.32 255.442 Q1535.32 259.283 1532.37 261.93 Q1529.42 264.553 1525.34 264.553 Q1521.36 264.553 1518.39 262.234 Q1515.41 259.916 1515.41 256.262 M1517.8 256.262 Q1517.8 259.236 1520.03 261.227 Q1522.28 263.218 1525.39 263.218 Q1528.41 263.218 1530.66 261.485 Q1532.93 259.752 1532.93 257.175 Q1532.93 256.168 1532.58 255.301 Q1532.25 254.435 1531.57 253.756 Q1530.92 253.053 1530.5 252.748 Q1530.1 252.42 1529.33 251.882 L1523.42 248.158 Q1517.8 251.273 1517.8 256.262 M1518.81 237.688 Q1518.81 239.983 1521.22 241.576 L1527.17 245.417 Q1531.93 242.63 1531.93 238.695 Q1531.93 236.142 1529.98 234.455 Q1528.04 232.746 1525.34 232.746 Q1522.7 232.746 1520.75 234.151 Q1518.81 235.533 1518.81 237.688 Z" fill="#000000" fill-rule="nonzero" fill-opacity="1" /><path clip-path="url(#clip940)" d="M1537.96 236.118 L1537.96 234.619 Q1543.72 234.619 1546.69 231.551 Q1547.51 231.551 1547.65 231.738 Q1547.8 231.926 1547.8 232.792 L1547.8 259.705 Q1547.8 261.134 1548.5 261.579 Q1549.2 262.024 1552.27 262.024 L1553.79 262.024 L1553.79 263.499 Q1552.1 263.359 1546.02 263.359 Q1539.93 263.359 1538.26 263.499 L1538.26 262.024 L1539.78 262.024 Q1542.81 262.024 1543.53 261.602 Q1544.26 261.157 1544.26 259.705 L1544.26 234.854 Q1541.75 236.118 1537.96 236.118 Z" fill="#000000" fill-rule="nonzero" fill-opacity="1" /><path clip-path="url(#clip940)" d="M1556.48 256.262 Q1556.48 250.898 1563.39 247.431 Q1560.41 245.417 1559.88 244.832 Q1557.77 242.489 1557.77 239.562 Q1557.77 236.212 1560.3 233.893 Q1562.85 231.551 1566.46 231.551 Q1569.9 231.551 1572.5 233.542 Q1575.1 235.533 1575.1 238.695 Q1575.1 243.145 1569.29 246.143 Q1573.13 248.532 1574.05 249.539 Q1576.39 252.139 1576.39 255.442 Q1576.39 259.283 1573.44 261.93 Q1570.49 264.553 1566.41 264.553 Q1562.43 264.553 1559.45 262.234 Q1556.48 259.916 1556.48 256.262 M1558.87 256.262 Q1558.87 259.236 1561.09 261.227 Q1563.34 263.218 1566.46 263.218 Q1569.48 263.218 1571.73 261.485 Q1574 259.752 1574 257.175 Q1574 256.168 1573.65 255.301 Q1573.32 254.435 1572.64 253.756 Q1571.99 253.053 1571.56 252.748 Q1571.17 252.42 1570.39 251.882 L1564.49 248.158 Q1558.87 251.273 1558.87 256.262 M1559.88 237.688 Q1559.88 239.983 1562.29 241.576 L1568.24 245.417 Q1572.99 242.63 1572.99 238.695 Q1572.99 236.142 1571.05 234.455 Q1569.1 232.746 1566.41 232.746 Q1563.76 232.746 1561.82 234.151 Q1559.88 235.533 1559.88 237.688 Z" fill="#000000" fill-rule="nonzero" fill-opacity="1" /><path clip-path="url(#clip940)" d="M1580.23 248.345 Q1580.23 240.803 1584.07 236.189 Q1587.91 231.551 1592.85 231.551 Q1595.74 231.551 1597.33 233.027 Q1598.94 234.479 1598.94 236.727 Q1598.94 237.969 1598.22 238.507 Q1597.49 239.046 1596.74 239.046 Q1595.88 239.046 1595.2 238.461 Q1594.52 237.875 1594.52 236.821 Q1594.52 234.666 1597.16 234.666 Q1595.92 232.746 1592.95 232.746 Q1592.03 232.746 1591.1 233.027 Q1590.16 233.284 1588.94 234.174 Q1587.73 235.064 1586.79 236.47 Q1585.85 237.875 1585.2 240.522 Q1584.54 243.169 1584.54 246.612 L1584.54 247.759 Q1586.51 243.005 1590.54 243.028 Q1594.56 243.028 1597.35 246.096 Q1600.14 249.165 1600.14 253.709 Q1600.14 258.37 1597.23 261.461 Q1594.33 264.553 1590.25 264.553 Q1588.43 264.553 1586.76 263.78 Q1585.13 263.031 1583.58 261.298 Q1582.06 259.564 1581.14 256.238 Q1580.23 252.912 1580.23 248.345 M1584.63 252.655 Q1584.63 257.363 1585.5 259.611 Q1585.64 259.986 1585.94 260.501 Q1586.27 261.016 1586.81 261.696 Q1587.37 262.352 1588.29 262.797 Q1589.2 263.218 1590.25 263.218 Q1593.46 263.218 1595.01 260.103 Q1595.83 258.37 1595.83 253.662 Q1595.83 248.86 1594.96 247.104 Q1593.49 244.129 1590.49 244.129 Q1588.47 244.129 1587.07 245.511 Q1585.69 246.893 1585.15 248.743 Q1584.63 250.593 1584.63 252.655 Z" fill="#000000" fill-rule="nonzero" fill-opacity="1" /><path clip-path="url(#clip940)" d="M1604.17 242.349 Q1604.17 239.796 1604.92 238.062 Q1605.67 236.306 1607.24 234.573 Q1610.12 231.551 1614.29 231.551 Q1616.07 231.551 1617.64 232.301 Q1619.23 233.05 1620.73 234.76 Q1622.25 236.446 1623.17 239.796 Q1624.08 243.122 1624.08 247.713 Q1624.08 255.137 1620.47 259.845 Q1616.89 264.553 1612.04 264.553 Q1608.97 264.553 1607.17 263.171 Q1605.37 261.766 1605.37 259.377 Q1605.37 258.136 1606.07 257.62 Q1606.77 257.081 1607.57 257.081 Q1608.43 257.081 1609.11 257.667 Q1609.79 258.229 1609.79 259.283 Q1609.79 260.15 1609.23 260.829 Q1608.69 261.485 1607.29 261.485 Q1608.67 263.218 1611.99 263.218 Q1613.19 263.218 1614.38 262.679 Q1615.58 262.117 1616.87 260.782 Q1618.18 259.424 1618.97 256.59 Q1619.77 253.756 1619.77 249.774 L1619.77 248.251 Q1617.85 253.053 1613.78 253.053 Q1609.75 253.053 1606.96 249.961 Q1604.17 246.869 1604.17 242.349 M1608.48 242.396 Q1608.48 247.15 1609.35 248.907 Q1610.82 251.929 1613.82 251.929 Q1616.75 251.929 1618.2 249.329 Q1619.68 246.705 1619.68 243.309 Q1619.68 238.601 1618.9 236.54 Q1617.48 232.746 1614.29 232.746 Q1611.13 232.746 1609.49 235.767 Q1608.48 237.547 1608.48 242.396 Z" fill="#000000" fill-rule="nonzero" fill-opacity="1" /><path clip-path="url(#clip940)" d="M1626.32 240.943 L1627.89 231.083 L1629.09 231.083 Q1629.23 231.668 1629.46 231.926 Q1629.72 232.183 1631.08 232.394 Q1632.46 232.605 1635.25 232.605 L1646.89 232.605 Q1646.89 233.706 1646.47 234.291 L1639.98 243.403 Q1637.92 246.284 1637 251.601 Q1636.47 255.161 1636.49 259.471 L1636.49 261.907 Q1636.49 264.553 1634.26 264.553 Q1632.06 264.553 1632.06 261.907 Q1632.06 252.748 1637.96 243.871 Q1638.6 242.958 1640.92 239.702 Q1643.26 236.446 1643.35 236.306 L1633.42 236.306 Q1629.06 236.306 1628.71 236.587 Q1628.24 237.008 1627.52 240.943 L1626.32 240.943 Z" fill="#000000" fill-rule="nonzero" fill-opacity="1" /><path clip-path="url(#clip940)" d="M1645.31 248.345 Q1645.31 240.803 1649.15 236.189 Q1652.99 231.551 1657.93 231.551 Q1660.81 231.551 1662.4 233.027 Q1664.02 234.479 1664.02 236.727 Q1664.02 237.969 1663.29 238.507 Q1662.57 239.046 1661.82 239.046 Q1660.95 239.046 1660.27 238.461 Q1659.59 237.875 1659.59 236.821 Q1659.59 234.666 1662.24 234.666 Q1661 232.746 1658.02 232.746 Q1657.11 232.746 1656.17 233.027 Q1655.24 233.284 1654.02 234.174 Q1652.8 235.064 1651.86 236.47 Q1650.93 237.875 1650.27 240.522 Q1649.62 243.169 1649.62 246.612 L1649.62 247.759 Q1651.58 243.005 1655.61 243.028 Q1659.64 243.028 1662.43 246.096 Q1665.21 249.165 1665.21 253.709 Q1665.21 258.37 1662.31 261.461 Q1659.41 264.553 1655.33 264.553 Q1653.5 264.553 1651.84 263.78 Q1650.2 263.031 1648.66 261.298 Q1647.13 259.564 1646.22 256.238 Q1645.31 252.912 1645.31 248.345 M1649.71 252.655 Q1649.71 257.363 1650.58 259.611 Q1650.72 259.986 1651.02 260.501 Q1651.35 261.016 1651.89 261.696 Q1652.45 262.352 1653.36 262.797 Q1654.28 263.218 1655.33 263.218 Q1658.54 263.218 1660.09 260.103 Q1660.91 258.37 1660.91 253.662 Q1660.91 248.86 1660.04 247.104 Q1658.56 244.129 1655.56 244.129 Q1653.55 244.129 1652.15 245.511 Q1650.76 246.893 1650.22 248.743 Q1649.71 250.593 1649.71 252.655 Z" fill="#000000" fill-rule="nonzero" fill-opacity="1" /><path clip-path="url(#clip940)" d="M1668.48 236.118 L1668.48 234.619 Q1674.24 234.619 1677.21 231.551 Q1678.03 231.551 1678.17 231.738 Q1678.31 231.926 1678.31 232.792 L1678.31 259.705 Q1678.31 261.134 1679.02 261.579 Q1679.72 262.024 1682.79 262.024 L1684.31 262.024 L1684.31 263.499 Q1682.62 263.359 1676.53 263.359 Q1670.44 263.359 1668.78 263.499 L1668.78 262.024 L1670.3 262.024 Q1673.32 262.024 1674.05 261.602 Q1674.78 261.157 1674.78 259.705 L1674.78 234.854 Q1672.27 236.118 1668.48 236.118 Z" fill="#000000" fill-rule="nonzero" fill-opacity="1" /><path clip-path="url(#clip940)" d="M1687 256.262 Q1687 250.898 1693.91 247.431 Q1690.93 245.417 1690.39 244.832 Q1688.29 242.489 1688.29 239.562 Q1688.29 236.212 1690.82 233.893 Q1693.37 231.551 1696.98 231.551 Q1700.42 231.551 1703.02 233.542 Q1705.62 235.533 1705.62 238.695 Q1705.62 243.145 1699.81 246.143 Q1703.65 248.532 1704.56 249.539 Q1706.91 252.139 1706.91 255.442 Q1706.91 259.283 1703.96 261.93 Q1701 264.553 1696.93 264.553 Q1692.95 264.553 1689.97 262.234 Q1687 259.916 1687 256.262 M1689.39 256.262 Q1689.39 259.236 1691.61 261.227 Q1693.86 263.218 1696.98 263.218 Q1700 263.218 1702.25 261.485 Q1704.52 259.752 1704.52 257.175 Q1704.52 256.168 1704.17 255.301 Q1703.84 254.435 1703.16 253.756 Q1702.5 253.053 1702.08 252.748 Q1701.68 252.42 1700.91 251.882 L1695.01 248.158 Q1689.39 251.273 1689.39 256.262 M1690.39 237.688 Q1690.39 239.983 1692.81 241.576 L1698.76 245.417 Q1703.51 242.63 1703.51 238.695 Q1703.51 236.142 1701.57 234.455 Q1699.62 232.746 1696.93 232.746 Q1694.28 232.746 1692.34 234.151 Q1690.39 235.533 1690.39 237.688 Z" fill="#000000" fill-rule="nonzero" fill-opacity="1" /><path clip-path="url(#clip940)" d="M1710.75 248.158 Q1710.75 241.107 1712.53 237.266 Q1715.01 231.551 1720.87 231.551 Q1722.11 231.551 1723.4 231.902 Q1724.71 232.23 1726.35 233.519 Q1728.01 234.807 1729.02 236.915 Q1730.94 240.99 1730.94 248.158 Q1730.94 255.161 1729.16 258.979 Q1726.56 264.553 1720.82 264.553 Q1718.66 264.553 1716.46 263.452 Q1714.28 262.352 1712.9 259.705 Q1710.75 255.746 1710.75 248.158 M1714.73 247.572 Q1714.73 254.81 1715.24 257.69 Q1715.83 260.806 1717.42 262.164 Q1719.04 263.499 1720.82 263.499 Q1722.74 263.499 1724.33 262.07 Q1725.95 260.618 1726.44 257.503 Q1726.98 254.435 1726.96 247.572 Q1726.96 240.897 1726.49 238.226 Q1725.86 235.111 1724.17 233.87 Q1722.51 232.605 1720.82 232.605 Q1720.19 232.605 1719.51 232.792 Q1718.85 232.98 1717.89 233.519 Q1716.93 234.057 1716.18 235.392 Q1715.46 236.727 1715.1 238.742 Q1714.73 241.342 1714.73 247.572 Z" fill="#000000" fill-rule="nonzero" fill-opacity="1" /><path clip-path="url(#clip940)" d="M1734.69 255.77 Q1734.69 254.341 1735.46 253.802 Q1736.24 253.24 1737.06 253.24 Q1738.16 253.24 1738.79 253.943 Q1739.44 254.622 1739.44 255.582 Q1739.44 256.543 1738.79 257.245 Q1738.16 257.925 1737.06 257.925 Q1736.52 257.925 1736.24 257.831 Q1736.87 260.033 1738.79 261.625 Q1740.73 263.218 1743.29 263.218 Q1746.49 263.218 1748.42 260.103 Q1749.56 258.089 1749.56 253.521 Q1749.56 249.493 1748.7 247.478 Q1747.36 244.41 1744.62 244.41 Q1740.73 244.41 1738.44 247.759 Q1738.16 248.181 1737.83 248.204 Q1737.36 248.204 1737.24 247.947 Q1737.15 247.666 1737.15 246.94 L1737.15 232.746 Q1737.15 231.598 1737.62 231.598 Q1737.81 231.598 1738.2 231.738 Q1741.22 233.073 1744.57 233.097 Q1748.02 233.097 1751.11 231.692 Q1751.34 231.551 1751.48 231.551 Q1751.95 231.551 1751.98 232.09 Q1751.98 232.277 1751.58 232.839 Q1751.2 233.378 1750.38 234.104 Q1749.56 234.807 1748.51 235.486 Q1747.46 236.165 1745.91 236.634 Q1744.39 237.079 1742.7 237.079 Q1740.69 237.079 1738.62 236.446 L1738.62 245.792 Q1741.11 243.356 1744.71 243.356 Q1748.56 243.356 1751.2 246.448 Q1753.85 249.539 1753.85 253.849 Q1753.85 258.37 1750.71 261.461 Q1747.6 264.553 1743.38 264.553 Q1739.54 264.553 1737.1 261.813 Q1734.69 259.072 1734.69 255.77 Z" fill="#000000" fill-rule="nonzero" fill-opacity="1" /><path clip-path="url(#clip940)" d="M1756.4 240.943 L1757.97 231.083 L1759.16 231.083 Q1759.3 231.668 1759.54 231.926 Q1759.8 232.183 1761.15 232.394 Q1762.54 232.605 1765.32 232.605 L1776.96 232.605 Q1776.96 233.706 1776.54 234.291 L1770.06 243.403 Q1767.99 246.284 1767.08 251.601 Q1766.54 255.161 1766.57 259.471 L1766.57 261.907 Q1766.57 264.553 1764.34 264.553 Q1762.14 264.553 1762.14 261.907 Q1762.14 252.748 1768.04 243.871 Q1768.67 242.958 1770.99 239.702 Q1773.33 236.446 1773.43 236.306 L1763.5 236.306 Q1759.14 236.306 1758.79 236.587 Q1758.32 237.008 1757.59 240.943 L1756.4 240.943 Z" fill="#000000" fill-rule="nonzero" fill-opacity="1" /><path clip-path="url(#clip940)" d="M1776.07 255.77 Q1776.07 254.341 1776.85 253.802 Q1777.62 253.24 1778.44 253.24 Q1779.54 253.24 1780.17 253.943 Q1780.83 254.622 1780.83 255.582 Q1780.83 256.543 1780.17 257.245 Q1779.54 257.925 1778.44 257.925 Q1777.9 257.925 1777.62 257.831 Q1778.25 260.033 1780.17 261.625 Q1782.12 263.218 1784.67 263.218 Q1787.88 263.218 1789.8 260.103 Q1790.95 258.089 1790.95 253.521 Q1790.95 249.493 1790.08 247.478 Q1788.75 244.41 1786 244.41 Q1782.12 244.41 1779.82 247.759 Q1779.54 248.181 1779.21 248.204 Q1778.74 248.204 1778.63 247.947 Q1778.53 247.666 1778.53 246.94 L1778.53 232.746 Q1778.53 231.598 1779 231.598 Q1779.19 231.598 1779.59 231.738 Q1782.61 233.073 1785.96 233.097 Q1789.4 233.097 1792.49 231.692 Q1792.73 231.551 1792.87 231.551 Q1793.34 231.551 1793.36 232.09 Q1793.36 232.277 1792.96 232.839 Q1792.59 233.378 1791.77 234.104 Q1790.95 234.807 1789.89 235.486 Q1788.84 236.165 1787.29 236.634 Q1785.77 237.079 1784.08 237.079 Q1782.07 237.079 1780.01 236.446 L1780.01 245.792 Q1782.49 243.356 1786.1 243.356 Q1789.94 243.356 1792.59 246.448 Q1795.23 249.539 1795.23 253.849 Q1795.23 258.37 1792.09 261.461 Q1788.98 264.553 1784.76 264.553 Q1780.92 264.553 1778.49 261.813 Q1776.07 259.072 1776.07 255.77 Z" fill="#000000" fill-rule="nonzero" fill-opacity="1" /><path clip-path="url(#clip940)" d="M1800.02 242.349 Q1800.02 239.796 1800.77 238.062 Q1801.51 236.306 1803.08 234.573 Q1805.97 231.551 1810.13 231.551 Q1811.91 231.551 1813.48 232.301 Q1815.08 233.05 1816.58 234.76 Q1818.1 236.446 1819.01 239.796 Q1819.92 243.122 1819.92 247.713 Q1819.92 255.137 1816.32 259.845 Q1812.73 264.553 1807.89 264.553 Q1804.82 264.553 1803.01 263.171 Q1801.21 261.766 1801.21 259.377 Q1801.21 258.136 1801.91 257.62 Q1802.62 257.081 1803.41 257.081 Q1804.28 257.081 1804.96 257.667 Q1805.64 258.229 1805.64 259.283 Q1805.64 260.15 1805.08 260.829 Q1804.54 261.485 1803.13 261.485 Q1804.51 263.218 1807.84 263.218 Q1809.03 263.218 1810.23 262.679 Q1811.42 262.117 1812.71 260.782 Q1814.02 259.424 1814.82 256.59 Q1815.62 253.756 1815.62 249.774 L1815.62 248.251 Q1813.69 253.053 1809.62 253.053 Q1805.59 253.053 1802.8 249.961 Q1800.02 246.869 1800.02 242.349 M1804.33 242.396 Q1804.33 247.15 1805.19 248.907 Q1806.67 251.929 1809.67 251.929 Q1812.59 251.929 1814.05 249.329 Q1815.52 246.705 1815.52 243.309 Q1815.52 238.601 1814.75 236.54 Q1813.32 232.746 1810.13 232.746 Q1806.97 232.746 1805.33 235.767 Q1804.33 237.547 1804.33 242.396 Z" fill="#000000" fill-rule="nonzero" fill-opacity="1" /></svg>
