<?xml version="1.0" encoding="utf-8"?>
<svg xmlns="http://www.w3.org/2000/svg" xmlns:xlink="http://www.w3.org/1999/xlink" width="600" height="400" viewBox="0 0 2400 1600">
<defs>
  <clipPath id="clip110">
    <rect x="0" y="0" width="2400" height="1600"/>
  </clipPath>
</defs>
<path clip-path="url(#clip110)" d="M0 1600 L2400 1600 L2400 0 L0 0  Z" fill="#ffffff" fill-rule="evenodd" fill-opacity="1"/>
<defs>
  <clipPath id="clip111">
    <rect x="480" y="0" width="1681" height="1600"/>
  </clipPath>
</defs>
<defs>
  <clipPath id="clip112">
    <rect x="234" y="47" width="2120" height="1377"/>
  </clipPath>
</defs>
<path clip-path="url(#clip110)" d="M367.296 1423.18 L2352.76 1423.18 L2352.76 47.2441 L367.296 47.2441  Z" fill="#ffffff" fill-rule="evenodd" fill-opacity="1"/>
<defs>
  <clipPath id="clip113">
    <rect x="367" y="47" width="1986" height="1377"/>
  </clipPath>
</defs>
<polyline clip-path="url(#clip113)" style="stroke:#000000; stroke-linecap:round; stroke-linejoin:round; stroke-width:2; stroke-opacity:0.1; fill:none" points="423.488,1423.18 423.488,47.2441 "/>
<polyline clip-path="url(#clip113)" style="stroke:#000000; stroke-linecap:round; stroke-linejoin:round; stroke-width:2; stroke-opacity:0.1; fill:none" points="891.757,1423.18 891.757,47.2441 "/>
<polyline clip-path="url(#clip113)" style="stroke:#000000; stroke-linecap:round; stroke-linejoin:round; stroke-width:2; stroke-opacity:0.1; fill:none" points="1360.03,1423.18 1360.03,47.2441 "/>
<polyline clip-path="url(#clip113)" style="stroke:#000000; stroke-linecap:round; stroke-linejoin:round; stroke-width:2; stroke-opacity:0.1; fill:none" points="1828.29,1423.18 1828.29,47.2441 "/>
<polyline clip-path="url(#clip113)" style="stroke:#000000; stroke-linecap:round; stroke-linejoin:round; stroke-width:2; stroke-opacity:0.1; fill:none" points="2296.56,1423.18 2296.56,47.2441 "/>
<polyline clip-path="url(#clip110)" style="stroke:#000000; stroke-linecap:round; stroke-linejoin:round; stroke-width:4; stroke-opacity:1; fill:none" points="367.296,1423.18 2352.76,1423.18 "/>
<polyline clip-path="url(#clip110)" style="stroke:#000000; stroke-linecap:round; stroke-linejoin:round; stroke-width:4; stroke-opacity:1; fill:none" points="423.488,1423.18 423.488,1404.28 "/>
<polyline clip-path="url(#clip110)" style="stroke:#000000; stroke-linecap:round; stroke-linejoin:round; stroke-width:4; stroke-opacity:1; fill:none" points="891.757,1423.18 891.757,1404.28 "/>
<polyline clip-path="url(#clip110)" style="stroke:#000000; stroke-linecap:round; stroke-linejoin:round; stroke-width:4; stroke-opacity:1; fill:none" points="1360.03,1423.18 1360.03,1404.28 "/>
<polyline clip-path="url(#clip110)" style="stroke:#000000; stroke-linecap:round; stroke-linejoin:round; stroke-width:4; stroke-opacity:1; fill:none" points="1828.29,1423.18 1828.29,1404.28 "/>
<polyline clip-path="url(#clip110)" style="stroke:#000000; stroke-linecap:round; stroke-linejoin:round; stroke-width:4; stroke-opacity:1; fill:none" points="2296.56,1423.18 2296.56,1404.28 "/>
<path clip-path="url(#clip110)" d="M402.262 1481.64 L418.581 1481.64 L418.581 1485.58 L396.637 1485.58 L396.637 1481.64 Q399.299 1478.89 403.882 1474.26 Q408.488 1469.61 409.669 1468.27 Q411.914 1465.74 412.794 1464.01 Q413.697 1462.25 413.697 1460.56 Q413.697 1457.8 411.752 1456.07 Q409.831 1454.33 406.729 1454.33 Q404.53 1454.33 402.076 1455.09 Q399.646 1455.86 396.868 1457.41 L396.868 1452.69 Q399.692 1451.55 402.146 1450.97 Q404.6 1450.39 406.637 1450.39 Q412.007 1450.39 415.201 1453.08 Q418.396 1455.77 418.396 1460.26 Q418.396 1462.39 417.586 1464.31 Q416.799 1466.2 414.692 1468.8 Q414.113 1469.47 411.012 1472.69 Q407.91 1475.88 402.262 1481.64 Z" fill="#000000" fill-rule="nonzero" fill-opacity="1" /><path clip-path="url(#clip110)" d="M438.396 1454.1 Q434.785 1454.1 432.956 1457.66 Q431.15 1461.2 431.15 1468.33 Q431.15 1475.44 432.956 1479.01 Q434.785 1482.55 438.396 1482.55 Q442.03 1482.55 443.835 1479.01 Q445.664 1475.44 445.664 1468.33 Q445.664 1461.2 443.835 1457.66 Q442.03 1454.1 438.396 1454.1 M438.396 1450.39 Q444.206 1450.39 447.261 1455 Q450.34 1459.58 450.34 1468.33 Q450.34 1477.06 447.261 1481.67 Q444.206 1486.25 438.396 1486.25 Q432.585 1486.25 429.507 1481.67 Q426.451 1477.06 426.451 1468.33 Q426.451 1459.58 429.507 1455 Q432.585 1450.39 438.396 1450.39 Z" fill="#000000" fill-rule="nonzero" fill-opacity="1" /><path clip-path="url(#clip110)" d="M879.928 1455.09 L868.123 1473.54 L879.928 1473.54 L879.928 1455.09 M878.702 1451.02 L884.581 1451.02 L884.581 1473.54 L889.512 1473.54 L889.512 1477.43 L884.581 1477.43 L884.581 1485.58 L879.928 1485.58 L879.928 1477.43 L864.327 1477.43 L864.327 1472.92 L878.702 1451.02 Z" fill="#000000" fill-rule="nonzero" fill-opacity="1" /><path clip-path="url(#clip110)" d="M907.243 1454.1 Q903.632 1454.1 901.803 1457.66 Q899.998 1461.2 899.998 1468.33 Q899.998 1475.44 901.803 1479.01 Q903.632 1482.55 907.243 1482.55 Q910.877 1482.55 912.683 1479.01 Q914.512 1475.44 914.512 1468.33 Q914.512 1461.2 912.683 1457.66 Q910.877 1454.1 907.243 1454.1 M907.243 1450.39 Q913.053 1450.39 916.109 1455 Q919.188 1459.58 919.188 1468.33 Q919.188 1477.06 916.109 1481.67 Q913.053 1486.25 907.243 1486.25 Q901.433 1486.25 898.354 1481.67 Q895.299 1477.06 895.299 1468.33 Q895.299 1459.58 898.354 1455 Q901.433 1450.39 907.243 1450.39 Z" fill="#000000" fill-rule="nonzero" fill-opacity="1" /><path clip-path="url(#clip110)" d="M1345.43 1466.44 Q1342.28 1466.44 1340.43 1468.59 Q1338.6 1470.74 1338.6 1474.49 Q1338.6 1478.22 1340.43 1480.39 Q1342.28 1482.55 1345.43 1482.55 Q1348.58 1482.55 1350.41 1480.39 Q1352.26 1478.22 1352.26 1474.49 Q1352.26 1470.74 1350.41 1468.59 Q1348.58 1466.44 1345.43 1466.44 M1354.71 1451.78 L1354.71 1456.04 Q1352.95 1455.21 1351.15 1454.77 Q1349.37 1454.33 1347.61 1454.33 Q1342.98 1454.33 1340.52 1457.45 Q1338.09 1460.58 1337.75 1466.9 Q1339.11 1464.89 1341.17 1463.82 Q1343.23 1462.73 1345.71 1462.73 Q1350.92 1462.73 1353.93 1465.9 Q1356.96 1469.05 1356.96 1474.49 Q1356.96 1479.82 1353.81 1483.03 Q1350.66 1486.25 1345.43 1486.25 Q1339.44 1486.25 1336.26 1481.67 Q1333.09 1477.06 1333.09 1468.33 Q1333.09 1460.14 1336.98 1455.28 Q1340.87 1450.39 1347.42 1450.39 Q1349.18 1450.39 1350.96 1450.74 Q1352.77 1451.09 1354.71 1451.78 Z" fill="#000000" fill-rule="nonzero" fill-opacity="1" /><path clip-path="url(#clip110)" d="M1375.01 1454.1 Q1371.4 1454.1 1369.57 1457.66 Q1367.77 1461.2 1367.77 1468.33 Q1367.77 1475.44 1369.57 1479.01 Q1371.4 1482.55 1375.01 1482.55 Q1378.65 1482.55 1380.45 1479.01 Q1382.28 1475.44 1382.28 1468.33 Q1382.28 1461.2 1380.45 1457.66 Q1378.65 1454.1 1375.01 1454.1 M1375.01 1450.39 Q1380.82 1450.39 1383.88 1455 Q1386.96 1459.58 1386.96 1468.33 Q1386.96 1477.06 1383.88 1481.67 Q1380.82 1486.25 1375.01 1486.25 Q1369.2 1486.25 1366.13 1481.67 Q1363.07 1477.06 1363.07 1468.33 Q1363.07 1459.58 1366.13 1455 Q1369.2 1450.39 1375.01 1450.39 Z" fill="#000000" fill-rule="nonzero" fill-opacity="1" /><path clip-path="url(#clip110)" d="M1813.17 1469.17 Q1809.83 1469.17 1807.91 1470.95 Q1806.01 1472.73 1806.01 1475.86 Q1806.01 1478.98 1807.91 1480.77 Q1809.83 1482.55 1813.17 1482.55 Q1816.5 1482.55 1818.42 1480.77 Q1820.34 1478.96 1820.34 1475.86 Q1820.34 1472.73 1818.42 1470.95 Q1816.52 1469.17 1813.17 1469.17 M1808.49 1467.18 Q1805.48 1466.44 1803.79 1464.38 Q1802.13 1462.32 1802.13 1459.35 Q1802.13 1455.21 1805.07 1452.8 Q1808.03 1450.39 1813.17 1450.39 Q1818.33 1450.39 1821.27 1452.8 Q1824.21 1455.21 1824.21 1459.35 Q1824.21 1462.32 1822.52 1464.38 Q1820.85 1466.44 1817.87 1467.18 Q1821.25 1467.96 1823.12 1470.26 Q1825.02 1472.55 1825.02 1475.86 Q1825.02 1480.88 1821.94 1483.57 Q1818.89 1486.25 1813.17 1486.25 Q1807.45 1486.25 1804.37 1483.57 Q1801.32 1480.88 1801.32 1475.86 Q1801.32 1472.55 1803.21 1470.26 Q1805.11 1467.96 1808.49 1467.18 M1806.78 1459.79 Q1806.78 1462.48 1808.45 1463.98 Q1810.14 1465.49 1813.17 1465.49 Q1816.18 1465.49 1817.87 1463.98 Q1819.58 1462.48 1819.58 1459.79 Q1819.58 1457.11 1817.87 1455.6 Q1816.18 1454.1 1813.17 1454.1 Q1810.14 1454.1 1808.45 1455.6 Q1806.78 1457.11 1806.78 1459.79 Z" fill="#000000" fill-rule="nonzero" fill-opacity="1" /><path clip-path="url(#clip110)" d="M1843.33 1454.1 Q1839.72 1454.1 1837.89 1457.66 Q1836.08 1461.2 1836.08 1468.33 Q1836.08 1475.44 1837.89 1479.01 Q1839.72 1482.55 1843.33 1482.55 Q1846.96 1482.55 1848.77 1479.01 Q1850.6 1475.44 1850.6 1468.33 Q1850.6 1461.2 1848.77 1457.66 Q1846.96 1454.1 1843.33 1454.1 M1843.33 1450.39 Q1849.14 1450.39 1852.2 1455 Q1855.27 1459.58 1855.27 1468.33 Q1855.27 1477.06 1852.2 1481.67 Q1849.14 1486.25 1843.33 1486.25 Q1837.52 1486.25 1834.44 1481.67 Q1831.39 1477.06 1831.39 1468.33 Q1831.39 1459.58 1834.44 1455 Q1837.52 1450.39 1843.33 1450.39 Z" fill="#000000" fill-rule="nonzero" fill-opacity="1" /><path clip-path="url(#clip110)" d="M2256.17 1481.64 L2263.81 1481.64 L2263.81 1455.28 L2255.5 1456.95 L2255.5 1452.69 L2263.76 1451.02 L2268.44 1451.02 L2268.44 1481.64 L2276.08 1481.64 L2276.08 1485.58 L2256.17 1485.58 L2256.17 1481.64 Z" fill="#000000" fill-rule="nonzero" fill-opacity="1" /><path clip-path="url(#clip110)" d="M2295.52 1454.1 Q2291.91 1454.1 2290.08 1457.66 Q2288.28 1461.2 2288.28 1468.33 Q2288.28 1475.44 2290.08 1479.01 Q2291.91 1482.55 2295.52 1482.55 Q2299.16 1482.55 2300.96 1479.01 Q2302.79 1475.44 2302.79 1468.33 Q2302.79 1461.2 2300.96 1457.66 Q2299.16 1454.1 2295.52 1454.1 M2295.52 1450.39 Q2301.33 1450.39 2304.39 1455 Q2307.47 1459.58 2307.47 1468.33 Q2307.47 1477.06 2304.39 1481.67 Q2301.33 1486.25 2295.52 1486.25 Q2289.71 1486.25 2286.63 1481.67 Q2283.58 1477.06 2283.58 1468.33 Q2283.58 1459.58 2286.63 1455 Q2289.71 1450.39 2295.52 1450.39 Z" fill="#000000" fill-rule="nonzero" fill-opacity="1" /><path clip-path="url(#clip110)" d="M2325.68 1454.1 Q2322.07 1454.1 2320.24 1457.66 Q2318.44 1461.2 2318.44 1468.33 Q2318.44 1475.44 2320.24 1479.01 Q2322.07 1482.55 2325.68 1482.55 Q2329.32 1482.55 2331.12 1479.01 Q2332.95 1475.44 2332.95 1468.33 Q2332.95 1461.2 2331.12 1457.66 Q2329.32 1454.1 2325.68 1454.1 M2325.68 1450.39 Q2331.49 1450.39 2334.55 1455 Q2337.63 1459.58 2337.63 1468.33 Q2337.63 1477.06 2334.55 1481.67 Q2331.49 1486.25 2325.68 1486.25 Q2319.87 1486.25 2316.8 1481.67 Q2313.74 1477.06 2313.74 1468.33 Q2313.74 1459.58 2316.8 1455 Q2319.87 1450.39 2325.68 1450.39 Z" fill="#000000" fill-rule="nonzero" fill-opacity="1" /><path clip-path="url(#clip110)" d="M1259.44 1509.56 L1250.32 1546.24 Q1250.07 1547.4 1250.07 1547.69 Q1250.07 1548.08 1250.16 1548.24 Q1250.29 1548.43 1251 1548.6 Q1251.74 1548.76 1253.22 1548.76 Q1253.77 1548.76 1253.96 1548.76 Q1254.16 1548.76 1254.45 1548.82 Q1254.74 1548.89 1254.83 1549.05 Q1254.93 1549.21 1254.93 1549.47 Q1254.93 1550.79 1253.77 1550.79 Q1252.67 1550.79 1250.39 1550.69 Q1248.1 1550.59 1246.97 1550.59 Q1245.88 1550.59 1243.66 1550.69 Q1241.43 1550.79 1240.37 1550.79 Q1239.98 1550.79 1239.76 1550.59 Q1239.53 1550.43 1239.53 1550.24 L1239.5 1550.08 Q1239.5 1549.18 1239.86 1548.95 Q1240.21 1548.76 1241.02 1548.76 Q1243.79 1548.72 1244.59 1548.34 Q1245.4 1547.95 1245.78 1546.57 L1248.74 1534.78 Q1244.78 1538.74 1240.95 1538.74 Q1237.25 1538.74 1234.74 1535.84 Q1232.26 1532.91 1232.26 1528.18 Q1232.26 1524.67 1233.64 1521.12 Q1235.06 1517.58 1237.25 1514.91 Q1239.47 1512.24 1242.37 1510.56 Q1245.27 1508.85 1248.13 1508.85 Q1249.97 1508.85 1251.61 1509.92 Q1253.29 1510.98 1254.28 1513.46 Q1255.12 1512.04 1256.67 1510.5 Q1258.21 1508.92 1258.76 1508.92 Q1259.08 1508.92 1259.24 1509.14 Q1259.44 1509.34 1259.44 1509.56 M1253.35 1516.1 Q1253.35 1515.78 1253.09 1514.97 Q1252.87 1514.17 1252.35 1513.07 Q1251.87 1511.95 1250.74 1511.14 Q1249.61 1510.3 1248.13 1510.3 Q1246.01 1510.3 1243.72 1512.36 Q1241.47 1514.39 1239.98 1517.94 Q1239.05 1520.25 1237.99 1524.57 Q1236.93 1528.89 1236.93 1531.08 Q1236.93 1531.59 1236.96 1532.17 Q1237.02 1532.75 1237.28 1533.72 Q1237.54 1534.68 1237.92 1535.42 Q1238.34 1536.16 1239.18 1536.71 Q1240.02 1537.26 1241.14 1537.26 Q1243.59 1537.26 1246.04 1535.17 Q1248.49 1533.07 1249.52 1531.2 Q1249.65 1531.01 1251.48 1523.7 Q1253.35 1516.39 1253.35 1516.1 Z" fill="#000000" fill-rule="nonzero" fill-opacity="1" /><path clip-path="url(#clip110)" d="M1266.22 1554.17 Q1266.22 1547.38 1267.93 1543.68 Q1270.32 1538.18 1275.96 1538.18 Q1277.15 1538.18 1278.39 1538.52 Q1279.65 1538.84 1281.23 1540.08 Q1282.83 1541.32 1283.8 1543.35 Q1285.65 1547.27 1285.65 1554.17 Q1285.65 1560.91 1283.94 1564.58 Q1281.43 1569.95 1275.91 1569.95 Q1273.84 1569.95 1271.72 1568.89 Q1269.62 1567.83 1268.29 1565.28 Q1266.22 1561.47 1266.22 1554.17 M1270.05 1553.6 Q1270.05 1560.57 1270.55 1563.34 Q1271.11 1566.34 1272.64 1567.65 Q1274.2 1568.93 1275.91 1568.93 Q1277.76 1568.93 1279.29 1567.56 Q1280.85 1566.16 1281.32 1563.16 Q1281.84 1560.21 1281.82 1553.6 Q1281.82 1547.18 1281.37 1544.61 Q1280.76 1541.61 1279.14 1540.41 Q1277.53 1539.2 1275.91 1539.2 Q1275.3 1539.2 1274.65 1539.38 Q1274.02 1539.56 1273.09 1540.08 Q1272.17 1540.59 1271.45 1541.88 Q1270.75 1543.16 1270.41 1545.1 Q1270.05 1547.61 1270.05 1553.6 Z" fill="#000000" fill-rule="nonzero" fill-opacity="1" /><path clip-path="url(#clip110)" d="M1315.16 1502.35 L1321.36 1502.35 L1332.5 1532.27 L1343.64 1502.35 L1349.85 1502.35 L1336.48 1538 L1328.53 1538 L1315.16 1502.35 Z" fill="#000000" fill-rule="nonzero" fill-opacity="1" /><path clip-path="url(#clip110)" d="M1374.14 1520.08 Q1367.04 1520.08 1364.3 1521.7 Q1361.56 1523.33 1361.56 1527.24 Q1361.56 1530.36 1363.6 1532.21 Q1365.67 1534.02 1369.2 1534.02 Q1374.07 1534.02 1377 1530.58 Q1379.96 1527.11 1379.96 1521.39 L1379.96 1520.08 L1374.14 1520.08 M1385.82 1517.66 L1385.82 1538 L1379.96 1538 L1379.96 1532.59 Q1377.96 1535.84 1374.96 1537.4 Q1371.97 1538.92 1367.64 1538.92 Q1362.17 1538.92 1358.92 1535.87 Q1355.71 1532.78 1355.71 1527.62 Q1355.71 1521.61 1359.72 1518.55 Q1363.76 1515.5 1371.75 1515.5 L1379.96 1515.5 L1379.96 1514.92 Q1379.96 1510.88 1377.29 1508.69 Q1374.65 1506.46 1369.84 1506.46 Q1366.78 1506.46 1363.89 1507.19 Q1360.99 1507.92 1358.32 1509.39 L1358.32 1503.98 Q1361.53 1502.73 1364.56 1502.13 Q1367.58 1501.49 1370.44 1501.49 Q1378.18 1501.49 1382 1505.5 Q1385.82 1509.51 1385.82 1517.66 Z" fill="#000000" fill-rule="nonzero" fill-opacity="1" /><path clip-path="url(#clip110)" d="M1397.88 1488.47 L1403.74 1488.47 L1403.74 1538 L1397.88 1538 L1397.88 1488.47 Z" fill="#000000" fill-rule="nonzero" fill-opacity="1" /><path clip-path="url(#clip110)" d="M1415.39 1523.93 L1415.39 1502.35 L1421.24 1502.35 L1421.24 1523.71 Q1421.24 1528.77 1423.22 1531.32 Q1425.19 1533.83 1429.14 1533.83 Q1433.88 1533.83 1436.62 1530.81 Q1439.39 1527.78 1439.39 1522.56 L1439.39 1502.35 L1445.24 1502.35 L1445.24 1538 L1439.39 1538 L1439.39 1532.53 Q1437.25 1535.77 1434.42 1537.36 Q1431.62 1538.92 1427.9 1538.92 Q1421.75 1538.92 1418.57 1535.1 Q1415.39 1531.28 1415.39 1523.93 M1430.12 1501.49 L1430.12 1501.49 Z" fill="#000000" fill-rule="nonzero" fill-opacity="1" /><path clip-path="url(#clip110)" d="M1487.8 1518.71 L1487.8 1521.58 L1460.87 1521.58 Q1461.25 1527.62 1464.5 1530.81 Q1467.78 1533.96 1473.6 1533.96 Q1476.97 1533.96 1480.13 1533.13 Q1483.31 1532.3 1486.43 1530.65 L1486.43 1536.19 Q1483.28 1537.52 1479.97 1538.22 Q1476.66 1538.92 1473.25 1538.92 Q1464.72 1538.92 1459.72 1533.96 Q1454.76 1528.99 1454.76 1520.53 Q1454.76 1511.77 1459.47 1506.65 Q1464.21 1501.49 1472.23 1501.49 Q1479.43 1501.49 1483.6 1506.14 Q1487.8 1510.75 1487.8 1518.71 M1481.94 1516.99 Q1481.88 1512.19 1479.23 1509.32 Q1476.62 1506.46 1472.3 1506.46 Q1467.39 1506.46 1464.43 1509.23 Q1461.51 1512 1461.06 1517.02 L1481.94 1516.99 Z" fill="#000000" fill-rule="nonzero" fill-opacity="1" /><polyline clip-path="url(#clip113)" style="stroke:#000000; stroke-linecap:round; stroke-linejoin:round; stroke-width:2; stroke-opacity:0.1; fill:none" points="367.296,1145.34 2352.76,1145.34 "/>
<polyline clip-path="url(#clip113)" style="stroke:#000000; stroke-linecap:round; stroke-linejoin:round; stroke-width:2; stroke-opacity:0.1; fill:none" points="367.296,860.13 2352.76,860.13 "/>
<polyline clip-path="url(#clip113)" style="stroke:#000000; stroke-linecap:round; stroke-linejoin:round; stroke-width:2; stroke-opacity:0.1; fill:none" points="367.296,574.92 2352.76,574.92 "/>
<polyline clip-path="url(#clip113)" style="stroke:#000000; stroke-linecap:round; stroke-linejoin:round; stroke-width:2; stroke-opacity:0.1; fill:none" points="367.296,289.71 2352.76,289.71 "/>
<polyline clip-path="url(#clip110)" style="stroke:#000000; stroke-linecap:round; stroke-linejoin:round; stroke-width:4; stroke-opacity:1; fill:none" points="367.296,1423.18 367.296,47.2441 "/>
<polyline clip-path="url(#clip110)" style="stroke:#000000; stroke-linecap:round; stroke-linejoin:round; stroke-width:4; stroke-opacity:1; fill:none" points="367.296,1145.34 386.194,1145.34 "/>
<polyline clip-path="url(#clip110)" style="stroke:#000000; stroke-linecap:round; stroke-linejoin:round; stroke-width:4; stroke-opacity:1; fill:none" points="367.296,860.13 386.194,860.13 "/>
<polyline clip-path="url(#clip110)" style="stroke:#000000; stroke-linecap:round; stroke-linejoin:round; stroke-width:4; stroke-opacity:1; fill:none" points="367.296,574.92 386.194,574.92 "/>
<polyline clip-path="url(#clip110)" style="stroke:#000000; stroke-linecap:round; stroke-linejoin:round; stroke-width:4; stroke-opacity:1; fill:none" points="367.296,289.71 386.194,289.71 "/>
<path clip-path="url(#clip110)" d="M119.885 1165.13 L136.204 1165.13 L136.204 1169.07 L114.26 1169.07 L114.26 1165.13 Q116.922 1162.38 121.505 1157.75 Q126.112 1153.1 127.292 1151.75 Q129.538 1149.23 130.417 1147.49 Q131.32 1145.73 131.32 1144.04 Q131.32 1141.29 129.376 1139.55 Q127.455 1137.82 124.353 1137.82 Q122.154 1137.82 119.7 1138.58 Q117.269 1139.35 114.492 1140.9 L114.492 1136.17 Q117.316 1135.04 119.769 1134.46 Q122.223 1133.88 124.26 1133.88 Q129.63 1133.88 132.825 1136.57 Q136.019 1139.25 136.019 1143.74 Q136.019 1145.87 135.209 1147.79 Q134.422 1149.69 132.316 1152.29 Q131.737 1152.96 128.635 1156.17 Q125.533 1159.37 119.885 1165.13 Z" fill="#000000" fill-rule="nonzero" fill-opacity="1" /><path clip-path="url(#clip110)" d="M146.019 1163.19 L150.903 1163.19 L150.903 1169.07 L146.019 1169.07 L146.019 1163.19 Z" fill="#000000" fill-rule="nonzero" fill-opacity="1" /><path clip-path="url(#clip110)" d="M161.135 1134.51 L179.491 1134.51 L179.491 1138.44 L165.417 1138.44 L165.417 1146.91 Q166.436 1146.57 167.454 1146.41 Q168.473 1146.22 169.491 1146.22 Q175.278 1146.22 178.658 1149.39 Q182.038 1152.56 182.038 1157.98 Q182.038 1163.56 178.565 1166.66 Q175.093 1169.74 168.774 1169.74 Q166.598 1169.74 164.329 1169.37 Q162.084 1169 159.677 1168.26 L159.677 1163.56 Q161.76 1164.69 163.982 1165.25 Q166.204 1165.8 168.681 1165.8 Q172.686 1165.8 175.024 1163.7 Q177.362 1161.59 177.362 1157.98 Q177.362 1154.37 175.024 1152.26 Q172.686 1150.16 168.681 1150.16 Q166.806 1150.16 164.931 1150.57 Q163.079 1150.99 161.135 1151.87 L161.135 1134.51 Z" fill="#000000" fill-rule="nonzero" fill-opacity="1" /><path clip-path="url(#clip110)" d="M201.25 1137.59 Q197.639 1137.59 195.811 1141.15 Q194.005 1144.69 194.005 1151.82 Q194.005 1158.93 195.811 1162.49 Q197.639 1166.04 201.25 1166.04 Q204.885 1166.04 206.69 1162.49 Q208.519 1158.93 208.519 1151.82 Q208.519 1144.69 206.69 1141.15 Q204.885 1137.59 201.25 1137.59 M201.25 1133.88 Q207.061 1133.88 210.116 1138.49 Q213.195 1143.07 213.195 1151.82 Q213.195 1160.55 210.116 1165.16 Q207.061 1169.74 201.25 1169.74 Q195.44 1169.74 192.362 1165.16 Q189.306 1160.55 189.306 1151.82 Q189.306 1143.07 192.362 1138.49 Q195.44 1133.88 201.25 1133.88 Z" fill="#000000" fill-rule="nonzero" fill-opacity="1" /><path clip-path="url(#clip110)" d="M249.584 1143.6 L239.005 1154.23 L249.584 1164.81 L246.829 1167.61 L236.204 1156.98 L225.579 1167.61 L222.848 1164.81 L233.403 1154.23 L222.848 1143.6 L225.579 1140.8 L236.204 1151.43 L246.829 1140.8 L249.584 1143.6 Z" fill="#000000" fill-rule="nonzero" fill-opacity="1" /><path clip-path="url(#clip110)" d="M261.945 1165.13 L269.583 1165.13 L269.583 1138.77 L261.273 1140.43 L261.273 1136.17 L269.537 1134.51 L274.213 1134.51 L274.213 1165.13 L281.852 1165.13 L281.852 1169.07 L261.945 1169.07 L261.945 1165.13 Z" fill="#000000" fill-rule="nonzero" fill-opacity="1" /><path clip-path="url(#clip110)" d="M301.296 1137.59 Q297.685 1137.59 295.856 1141.15 Q294.051 1144.69 294.051 1151.82 Q294.051 1158.93 295.856 1162.49 Q297.685 1166.04 301.296 1166.04 Q304.93 1166.04 306.736 1162.49 Q308.565 1158.93 308.565 1151.82 Q308.565 1144.69 306.736 1141.15 Q304.93 1137.59 301.296 1137.59 M301.296 1133.88 Q307.106 1133.88 310.162 1138.49 Q313.241 1143.07 313.241 1151.82 Q313.241 1160.55 310.162 1165.16 Q307.106 1169.74 301.296 1169.74 Q295.486 1169.74 292.407 1165.16 Q289.352 1160.55 289.352 1151.82 Q289.352 1143.07 292.407 1138.49 Q295.486 1133.88 301.296 1133.88 Z" fill="#000000" fill-rule="nonzero" fill-opacity="1" /><path clip-path="url(#clip110)" d="M313.241 1113.58 L331.296 1113.58 L331.296 1115.19 L321.102 1141.66 L317.134 1141.66 L326.726 1116.77 L313.241 1116.77 L313.241 1113.58 Z" fill="#000000" fill-rule="nonzero" fill-opacity="1" /><path clip-path="url(#clip110)" d="M115.904 849.298 L134.26 849.298 L134.26 853.233 L120.186 853.233 L120.186 861.705 Q121.205 861.358 122.223 861.196 Q123.242 861.01 124.26 861.01 Q130.047 861.01 133.427 864.182 Q136.806 867.353 136.806 872.77 Q136.806 878.348 133.334 881.45 Q129.862 884.529 123.543 884.529 Q121.367 884.529 119.098 884.158 Q116.853 883.788 114.445 883.047 L114.445 878.348 Q116.529 879.483 118.751 880.038 Q120.973 880.594 123.45 880.594 Q127.455 880.594 129.792 878.487 Q132.13 876.381 132.13 872.77 Q132.13 869.159 129.792 867.052 Q127.455 864.946 123.45 864.946 Q121.575 864.946 119.7 865.362 Q117.848 865.779 115.904 866.659 L115.904 849.298 Z" fill="#000000" fill-rule="nonzero" fill-opacity="1" /><path clip-path="url(#clip110)" d="M146.019 877.978 L150.903 877.978 L150.903 883.858 L146.019 883.858 L146.019 877.978 Z" fill="#000000" fill-rule="nonzero" fill-opacity="1" /><path clip-path="url(#clip110)" d="M171.089 852.376 Q167.477 852.376 165.649 855.941 Q163.843 859.483 163.843 866.612 Q163.843 873.719 165.649 877.283 Q167.477 880.825 171.089 880.825 Q174.723 880.825 176.528 877.283 Q178.357 873.719 178.357 866.612 Q178.357 859.483 176.528 855.941 Q174.723 852.376 171.089 852.376 M171.089 848.673 Q176.899 848.673 179.954 853.279 Q183.033 857.862 183.033 866.612 Q183.033 875.339 179.954 879.945 Q176.899 884.529 171.089 884.529 Q165.278 884.529 162.2 879.945 Q159.144 875.339 159.144 866.612 Q159.144 857.862 162.2 853.279 Q165.278 848.673 171.089 848.673 Z" fill="#000000" fill-rule="nonzero" fill-opacity="1" /><path clip-path="url(#clip110)" d="M201.25 852.376 Q197.639 852.376 195.811 855.941 Q194.005 859.483 194.005 866.612 Q194.005 873.719 195.811 877.283 Q197.639 880.825 201.25 880.825 Q204.885 880.825 206.69 877.283 Q208.519 873.719 208.519 866.612 Q208.519 859.483 206.69 855.941 Q204.885 852.376 201.25 852.376 M201.25 848.673 Q207.061 848.673 210.116 853.279 Q213.195 857.862 213.195 866.612 Q213.195 875.339 210.116 879.945 Q207.061 884.529 201.25 884.529 Q195.44 884.529 192.362 879.945 Q189.306 875.339 189.306 866.612 Q189.306 857.862 192.362 853.279 Q195.44 848.673 201.25 848.673 Z" fill="#000000" fill-rule="nonzero" fill-opacity="1" /><path clip-path="url(#clip110)" d="M249.584 858.395 L239.005 869.02 L249.584 879.598 L246.829 882.399 L236.204 871.774 L225.579 882.399 L222.848 879.598 L233.403 869.02 L222.848 858.395 L225.579 855.594 L236.204 866.219 L246.829 855.594 L249.584 858.395 Z" fill="#000000" fill-rule="nonzero" fill-opacity="1" /><path clip-path="url(#clip110)" d="M261.945 879.922 L269.583 879.922 L269.583 853.557 L261.273 855.223 L261.273 850.964 L269.537 849.298 L274.213 849.298 L274.213 879.922 L281.852 879.922 L281.852 883.858 L261.945 883.858 L261.945 879.922 Z" fill="#000000" fill-rule="nonzero" fill-opacity="1" /><path clip-path="url(#clip110)" d="M301.296 852.376 Q297.685 852.376 295.856 855.941 Q294.051 859.483 294.051 866.612 Q294.051 873.719 295.856 877.283 Q297.685 880.825 301.296 880.825 Q304.93 880.825 306.736 877.283 Q308.565 873.719 308.565 866.612 Q308.565 859.483 306.736 855.941 Q304.93 852.376 301.296 852.376 M301.296 848.673 Q307.106 848.673 310.162 853.279 Q313.241 857.862 313.241 866.612 Q313.241 875.339 310.162 879.945 Q307.106 884.529 301.296 884.529 Q295.486 884.529 292.407 879.945 Q289.352 875.339 289.352 866.612 Q289.352 857.862 292.407 853.279 Q295.486 848.673 301.296 848.673 Z" fill="#000000" fill-rule="nonzero" fill-opacity="1" /><path clip-path="url(#clip110)" d="M313.241 828.367 L331.296 828.367 L331.296 829.985 L321.102 856.447 L317.134 856.447 L326.726 831.564 L313.241 831.564 L313.241 828.367 Z" fill="#000000" fill-rule="nonzero" fill-opacity="1" /><path clip-path="url(#clip110)" d="M114.677 564.087 L136.899 564.087 L136.899 566.078 L124.353 598.647 L119.468 598.647 L131.274 568.023 L114.677 568.023 L114.677 564.087 Z" fill="#000000" fill-rule="nonzero" fill-opacity="1" /><path clip-path="url(#clip110)" d="M146.019 592.768 L150.903 592.768 L150.903 598.647 L146.019 598.647 L146.019 592.768 Z" fill="#000000" fill-rule="nonzero" fill-opacity="1" /><path clip-path="url(#clip110)" d="M161.135 564.087 L179.491 564.087 L179.491 568.023 L165.417 568.023 L165.417 576.495 Q166.436 576.147 167.454 575.985 Q168.473 575.8 169.491 575.8 Q175.278 575.8 178.658 578.972 Q182.038 582.143 182.038 587.559 Q182.038 593.138 178.565 596.24 Q175.093 599.319 168.774 599.319 Q166.598 599.319 164.329 598.948 Q162.084 598.578 159.677 597.837 L159.677 593.138 Q161.76 594.272 163.982 594.828 Q166.204 595.384 168.681 595.384 Q172.686 595.384 175.024 593.277 Q177.362 591.171 177.362 587.559 Q177.362 583.948 175.024 581.842 Q172.686 579.735 168.681 579.735 Q166.806 579.735 164.931 580.152 Q163.079 580.569 161.135 581.448 L161.135 564.087 Z" fill="#000000" fill-rule="nonzero" fill-opacity="1" /><path clip-path="url(#clip110)" d="M201.25 567.166 Q197.639 567.166 195.811 570.731 Q194.005 574.273 194.005 581.402 Q194.005 588.509 195.811 592.073 Q197.639 595.615 201.25 595.615 Q204.885 595.615 206.69 592.073 Q208.519 588.509 208.519 581.402 Q208.519 574.273 206.69 570.731 Q204.885 567.166 201.25 567.166 M201.25 563.462 Q207.061 563.462 210.116 568.069 Q213.195 572.652 213.195 581.402 Q213.195 590.129 210.116 594.735 Q207.061 599.319 201.25 599.319 Q195.44 599.319 192.362 594.735 Q189.306 590.129 189.306 581.402 Q189.306 572.652 192.362 568.069 Q195.44 563.462 201.25 563.462 Z" fill="#000000" fill-rule="nonzero" fill-opacity="1" /><path clip-path="url(#clip110)" d="M249.584 573.185 L239.005 583.809 L249.584 594.388 L246.829 597.189 L236.204 586.564 L225.579 597.189 L222.848 594.388 L233.403 583.809 L222.848 573.185 L225.579 570.384 L236.204 581.009 L246.829 570.384 L249.584 573.185 Z" fill="#000000" fill-rule="nonzero" fill-opacity="1" /><path clip-path="url(#clip110)" d="M261.945 594.712 L269.583 594.712 L269.583 568.347 L261.273 570.013 L261.273 565.754 L269.537 564.087 L274.213 564.087 L274.213 594.712 L281.852 594.712 L281.852 598.647 L261.945 598.647 L261.945 594.712 Z" fill="#000000" fill-rule="nonzero" fill-opacity="1" /><path clip-path="url(#clip110)" d="M301.296 567.166 Q297.685 567.166 295.856 570.731 Q294.051 574.273 294.051 581.402 Q294.051 588.509 295.856 592.073 Q297.685 595.615 301.296 595.615 Q304.93 595.615 306.736 592.073 Q308.565 588.509 308.565 581.402 Q308.565 574.273 306.736 570.731 Q304.93 567.166 301.296 567.166 M301.296 563.462 Q307.106 563.462 310.162 568.069 Q313.241 572.652 313.241 581.402 Q313.241 590.129 310.162 594.735 Q307.106 599.319 301.296 599.319 Q295.486 599.319 292.407 594.735 Q289.352 590.129 289.352 581.402 Q289.352 572.652 292.407 568.069 Q295.486 563.462 301.296 563.462 Z" fill="#000000" fill-rule="nonzero" fill-opacity="1" /><path clip-path="url(#clip110)" d="M313.241 543.157 L331.296 543.157 L331.296 544.774 L321.102 571.237 L317.134 571.237 L326.726 546.354 L313.241 546.354 L313.241 543.157 Z" fill="#000000" fill-rule="nonzero" fill-opacity="1" /><path clip-path="url(#clip110)" d="M115.464 309.502 L123.103 309.502 L123.103 283.136 L114.793 284.803 L114.793 280.544 L123.056 278.877 L127.732 278.877 L127.732 309.502 L135.371 309.502 L135.371 313.437 L115.464 313.437 L115.464 309.502 Z" fill="#000000" fill-rule="nonzero" fill-opacity="1" /><path clip-path="url(#clip110)" d="M144.816 307.558 L149.7 307.558 L149.7 313.437 L144.816 313.437 L144.816 307.558 Z" fill="#000000" fill-rule="nonzero" fill-opacity="1" /><path clip-path="url(#clip110)" d="M169.885 281.956 Q166.274 281.956 164.445 285.521 Q162.64 289.062 162.64 296.192 Q162.64 303.298 164.445 306.863 Q166.274 310.405 169.885 310.405 Q173.519 310.405 175.325 306.863 Q177.153 303.298 177.153 296.192 Q177.153 289.062 175.325 285.521 Q173.519 281.956 169.885 281.956 M169.885 278.252 Q175.695 278.252 178.751 282.859 Q181.829 287.442 181.829 296.192 Q181.829 304.919 178.751 309.525 Q175.695 314.109 169.885 314.109 Q164.075 314.109 160.996 309.525 Q157.94 304.919 157.94 296.192 Q157.94 287.442 160.996 282.859 Q164.075 278.252 169.885 278.252 Z" fill="#000000" fill-rule="nonzero" fill-opacity="1" /><path clip-path="url(#clip110)" d="M200.047 281.956 Q196.436 281.956 194.607 285.521 Q192.801 289.062 192.801 296.192 Q192.801 303.298 194.607 306.863 Q196.436 310.405 200.047 310.405 Q203.681 310.405 205.487 306.863 Q207.315 303.298 207.315 296.192 Q207.315 289.062 205.487 285.521 Q203.681 281.956 200.047 281.956 M200.047 278.252 Q205.857 278.252 208.912 282.859 Q211.991 287.442 211.991 296.192 Q211.991 304.919 208.912 309.525 Q205.857 314.109 200.047 314.109 Q194.237 314.109 191.158 309.525 Q188.102 304.919 188.102 296.192 Q188.102 287.442 191.158 282.859 Q194.237 278.252 200.047 278.252 Z" fill="#000000" fill-rule="nonzero" fill-opacity="1" /><path clip-path="url(#clip110)" d="M248.38 287.974 L237.801 298.599 L248.38 309.178 L245.625 311.979 L235 301.354 L224.375 311.979 L221.644 309.178 L232.199 298.599 L221.644 287.974 L224.375 285.173 L235 295.798 L245.625 285.173 L248.38 287.974 Z" fill="#000000" fill-rule="nonzero" fill-opacity="1" /><path clip-path="url(#clip110)" d="M260.741 309.502 L268.38 309.502 L268.38 283.136 L260.07 284.803 L260.07 280.544 L268.333 278.877 L273.009 278.877 L273.009 309.502 L280.648 309.502 L280.648 313.437 L260.741 313.437 L260.741 309.502 Z" fill="#000000" fill-rule="nonzero" fill-opacity="1" /><path clip-path="url(#clip110)" d="M300.092 281.956 Q296.481 281.956 294.653 285.521 Q292.847 289.062 292.847 296.192 Q292.847 303.298 294.653 306.863 Q296.481 310.405 300.092 310.405 Q303.727 310.405 305.532 306.863 Q307.361 303.298 307.361 296.192 Q307.361 289.062 305.532 285.521 Q303.727 281.956 300.092 281.956 M300.092 278.252 Q305.903 278.252 308.958 282.859 Q312.037 287.442 312.037 296.192 Q312.037 304.919 308.958 309.525 Q305.903 314.109 300.092 314.109 Q294.282 314.109 291.204 309.525 Q288.148 304.919 288.148 296.192 Q288.148 287.442 291.204 282.859 Q294.282 278.252 300.092 278.252 Z" fill="#000000" fill-rule="nonzero" fill-opacity="1" /><path clip-path="url(#clip110)" d="M321.666 272.692 Q318.958 272.692 317.397 274.14 Q315.855 275.589 315.855 278.128 Q315.855 280.667 317.397 282.115 Q318.958 283.563 321.666 283.563 Q324.375 283.563 325.936 282.115 Q327.497 280.648 327.497 278.128 Q327.497 275.589 325.936 274.14 Q324.394 272.692 321.666 272.692 M317.867 271.075 Q315.422 270.473 314.049 268.799 Q312.695 267.125 312.695 264.718 Q312.695 261.351 315.084 259.395 Q317.491 257.439 321.666 257.439 Q325.861 257.439 328.249 259.395 Q330.638 261.351 330.638 264.718 Q330.638 267.125 329.265 268.799 Q327.911 270.473 325.484 271.075 Q328.23 271.714 329.754 273.576 Q331.296 275.438 331.296 278.128 Q331.296 282.209 328.795 284.391 Q326.312 286.572 321.666 286.572 Q317.021 286.572 314.52 284.391 Q312.037 282.209 312.037 278.128 Q312.037 275.438 313.579 273.576 Q315.121 271.714 317.867 271.075 M316.476 265.075 Q316.476 267.257 317.83 268.479 Q319.203 269.702 321.666 269.702 Q324.111 269.702 325.484 268.479 Q326.876 267.257 326.876 265.075 Q326.876 262.893 325.484 261.671 Q324.111 260.448 321.666 260.448 Q319.203 260.448 317.83 261.671 Q316.476 262.893 316.476 265.075 Z" fill="#000000" fill-rule="nonzero" fill-opacity="1" /><path clip-path="url(#clip110)" d="M39.9715 732.838 Q40.197 732.612 40.519 732.612 Q40.8411 732.612 41.5818 733.353 L59.1662 749.037 Q80.2289 743.047 80.2289 739.762 Q80.2289 738.764 79.4559 737.733 Q78.7152 736.67 77.588 736.251 Q77.0405 736.09 76.8473 735.929 Q76.654 735.768 76.654 735.317 Q76.654 734.545 77.3948 734.545 Q77.7812 734.545 78.4253 734.899 Q79.1017 735.253 79.8424 735.897 Q80.6153 736.541 81.1306 737.669 Q81.6781 738.796 81.6781 740.148 Q81.6781 741.823 81.2917 743.176 Q80.9052 744.528 80.4221 745.301 Q79.939 746.074 79.0695 746.783 Q78.2321 747.459 77.7168 747.717 Q77.2337 747.942 76.3964 748.329 Q74.5928 749.102 72.5961 749.81 Q70.5993 750.519 69.1501 750.97 Q67.7008 751.42 63.2564 752.805 L80.2289 767.91 Q80.9374 768.618 80.9374 768.973 Q80.9374 769.262 80.6798 769.52 Q80.4543 769.778 80.1645 769.778 Q79.8424 769.778 79.1017 769.037 L62.1614 753.868 Q61.9359 753.643 61.7427 753.514 Q61.5495 753.385 61.4851 753.385 L61.4206 753.353 Q61.2596 753.353 59.1984 753.932 Q57.1373 754.512 53.9489 755.575 Q50.7283 756.606 48.3773 757.572 Q46.7992 758.184 45.833 758.602 Q44.8668 759.021 43.4176 759.762 Q41.9683 760.47 41.2276 761.211 Q40.4546 761.952 40.4546 762.628 Q40.4546 762.853 40.5512 763.208 Q40.6479 763.562 40.9055 764.142 Q41.131 764.689 41.7751 765.237 Q42.387 765.784 43.2887 766.138 Q43.9973 766.428 43.9973 766.976 Q43.9973 767.33 43.8362 767.556 Q43.6752 767.749 43.5142 767.749 L43.3532 767.781 Q42.7735 767.781 41.8073 767.233 Q40.8411 766.686 39.9393 765.333 Q39.0054 763.981 39.0054 762.242 Q39.0054 760.599 39.3918 759.246 Q39.7783 757.894 40.2292 757.153 Q40.6801 756.38 41.5174 755.704 Q42.3226 755.027 42.709 754.834 Q43.0633 754.609 43.804 754.255 Q46.3161 753.16 48.4739 752.451 Q50.5995 751.71 57.3305 749.585 L40.519 734.48 Q39.7139 733.804 39.7139 733.417 Q39.7139 733.063 39.9715 732.838 Z" fill="#000000" fill-rule="nonzero" fill-opacity="1" /><path clip-path="url(#clip110)" d="M48.415 725.941 Q47.5808 725.941 47.3328 725.873 Q47.0849 725.783 46.7016 725.422 L36.8273 716.563 Q31.3716 711.716 26.6148 711.716 Q23.5263 711.716 21.3169 713.339 Q19.1076 714.939 19.1076 717.893 Q19.1076 719.922 20.3475 721.635 Q21.5875 723.348 23.7968 724.137 Q23.7517 724.002 23.7517 723.529 Q23.7517 722.379 24.4731 721.748 Q25.1945 721.094 26.1639 721.094 Q27.4039 721.094 28.0125 721.905 Q28.5987 722.695 28.5987 723.484 Q28.5987 723.799 28.5311 724.228 Q28.4634 724.633 27.8322 725.287 Q27.1784 725.941 26.0287 725.941 Q22.8049 725.941 20.2348 723.506 Q17.6648 721.049 17.6648 717.306 Q17.6648 713.068 20.1897 710.295 Q22.6921 707.5 26.6148 707.5 Q27.99 707.5 29.2525 707.928 Q30.4924 708.334 31.4618 708.898 Q32.4312 709.439 33.9867 710.927 Q35.5423 712.414 36.6469 713.609 Q37.7516 714.804 40.0962 717.487 L44.853 722.379 L44.853 714.06 Q44.853 710.002 44.4923 709.687 Q43.8385 709.236 40.3893 708.672 L40.3893 707.5 L48.415 708.807 L48.415 725.941 Z" fill="#000000" fill-rule="nonzero" fill-opacity="1" /><polyline clip-path="url(#clip113)" style="stroke:#009af9; stroke-linecap:round; stroke-linejoin:round; stroke-width:4; stroke-opacity:1; fill:none" points="423.488,86.1857 442.219,190.048 460.95,293.255 479.681,395.149 498.411,495.075 517.142,592.375 535.873,686.395 554.604,776.477 573.334,861.965 592.065,942.204 610.796,1016.54 629.527,1084.31 648.257,1144.86 666.988,1197.56 685.719,1242.37 704.45,1279.84 723.18,1310.52 741.911,1335 760.642,1353.83 779.373,1367.6 798.103,1376.87 816.834,1382.21 835.565,1384.19 854.296,1383.39 873.026,1380.36 891.757,1375.68 910.488,1369.86 929.219,1363.13 947.949,1355.69 966.68,1347.7 985.411,1339.35 1004.14,1330.82 1022.87,1322.28 1041.6,1313.92 1060.33,1305.92 1079.06,1298.45 1097.8,1291.69 1116.53,1285.83 1135.26,1281.03 1153.99,1277.33 1172.72,1274.63 1191.45,1272.8 1210.18,1271.74 1228.91,1271.33 1247.64,1271.45 1266.37,1272 1285.1,1272.86 1303.83,1273.91 1322.56,1275.05 1341.3,1276.15 1360.03,1277.11 1378.76,1277.84 1397.49,1278.33 1416.22,1278.61 1434.95,1278.72 1453.68,1278.68 1472.41,1278.51 1491.14,1278.24 1509.87,1277.91 1528.6,1277.53 1547.33,1277.13 1566.06,1276.75 1584.8,1276.4 1603.53,1276.12 1622.26,1275.91 1640.99,1275.77 1659.72,1275.69 1678.45,1275.65 1697.18,1275.66 1715.91,1275.71 1734.64,1275.78 1753.37,1275.87 1772.1,1275.97 1790.83,1276.07 1809.56,1276.17 1828.29,1276.25 1847.03,1276.32 1865.76,1276.37 1884.49,1276.4 1903.22,1276.41 1921.95,1276.42 1940.68,1276.41 1959.41,1276.39 1978.14,1276.37 1996.87,1276.35 2015.6,1276.32 2034.33,1276.29 2053.06,1276.26 2071.79,1276.24 2090.53,1276.23 2109.26,1276.21 2127.99,1276.21 2146.72,1276.2 2165.45,1276.2 2184.18,1276.2 2202.91,1276.21 2221.64,1276.21 2240.37,1276.22 2259.1,1276.23 2277.83,1276.24 2296.56,1276.25 "/>
<circle clip-path="url(#clip113)" cx="423.488" cy="86.1857" r="14.4" fill="#008000" fill-rule="evenodd" fill-opacity="1" stroke="#000000" stroke-opacity="1" stroke-width="3.2"/>
<circle clip-path="url(#clip113)" cx="657.623" cy="1172.22" r="14.4" fill="#008000" fill-rule="evenodd" fill-opacity="1" stroke="#000000" stroke-opacity="1" stroke-width="3.2"/>
<circle clip-path="url(#clip113)" cx="891.757" cy="1375.68" r="14.4" fill="#008000" fill-rule="evenodd" fill-opacity="1" stroke="#000000" stroke-opacity="1" stroke-width="3.2"/>
<circle clip-path="url(#clip113)" cx="1125.89" cy="1283.29" r="14.4" fill="#008000" fill-rule="evenodd" fill-opacity="1" stroke="#000000" stroke-opacity="1" stroke-width="3.2"/>
<circle clip-path="url(#clip113)" cx="1360.03" cy="1277.11" r="14.4" fill="#008000" fill-rule="evenodd" fill-opacity="1" stroke="#000000" stroke-opacity="1" stroke-width="3.2"/>
<circle clip-path="url(#clip113)" cx="1594.16" cy="1276.25" r="14.4" fill="#008000" fill-rule="evenodd" fill-opacity="1" stroke="#000000" stroke-opacity="1" stroke-width="3.2"/>
<circle clip-path="url(#clip113)" cx="1828.29" cy="1276.25" r="14.4" fill="#008000" fill-rule="evenodd" fill-opacity="1" stroke="#000000" stroke-opacity="1" stroke-width="3.2"/>
<circle clip-path="url(#clip113)" cx="2062.43" cy="1276.25" r="14.4" fill="#008000" fill-rule="evenodd" fill-opacity="1" stroke="#000000" stroke-opacity="1" stroke-width="3.2"/>
<circle clip-path="url(#clip113)" cx="2296.56" cy="1276.25" r="14.4" fill="#008000" fill-rule="evenodd" fill-opacity="1" stroke="#000000" stroke-opacity="1" stroke-width="3.2"/>
<circle clip-path="url(#clip113)" cx="838.926" cy="1384.24" r="14.4" fill="#ff0000" fill-rule="evenodd" fill-opacity="1" stroke="#000000" stroke-opacity="1" stroke-width="3.2"/>
<path clip-path="url(#clip110)" d="M858.861 314.696 L1861.19 314.696 L1861.19 93.1086 L858.861 93.1086  Z" fill="#ffffff" fill-rule="evenodd" fill-opacity="1"/>
<polyline clip-path="url(#clip110)" style="stroke:#000000; stroke-linecap:round; stroke-linejoin:round; stroke-width:4; stroke-opacity:1; fill:none" points="858.861,314.696 1861.19,314.696 1861.19,93.1086 858.861,93.1086 858.861,314.696 "/>
<polyline clip-path="url(#clip110)" style="stroke:#009af9; stroke-linecap:round; stroke-linejoin:round; stroke-width:4; stroke-opacity:1; fill:none" points="880.922,148.505 1013.29,148.505 "/>
<path clip-path="url(#clip110)" d="M1063.22 129.984 L1063.22 134.915 Q1060.86 132.716 1058.17 131.628 Q1055.51 130.54 1052.5 130.54 Q1046.57 130.54 1043.43 134.174 Q1040.28 137.785 1040.28 144.637 Q1040.28 151.466 1043.43 155.1 Q1046.57 158.711 1052.5 158.711 Q1055.51 158.711 1058.17 157.623 Q1060.86 156.535 1063.22 154.336 L1063.22 159.22 Q1060.76 160.887 1058.01 161.72 Q1055.28 162.554 1052.22 162.554 Q1044.37 162.554 1039.86 157.762 Q1035.35 152.947 1035.35 144.637 Q1035.35 136.304 1039.86 131.512 Q1044.37 126.697 1052.22 126.697 Q1055.32 126.697 1058.05 127.531 Q1060.81 128.341 1063.22 129.984 Z" fill="#000000" fill-rule="nonzero" fill-opacity="1" /><path clip-path="url(#clip110)" d="M1069.81 151.651 L1069.81 135.957 L1074.07 135.957 L1074.07 151.489 Q1074.07 155.17 1075.51 157.021 Q1076.94 158.85 1079.81 158.85 Q1083.26 158.85 1085.25 156.651 Q1087.27 154.452 1087.27 150.656 L1087.27 135.957 L1091.53 135.957 L1091.53 161.882 L1087.27 161.882 L1087.27 157.901 Q1085.72 160.262 1083.66 161.419 Q1081.62 162.554 1078.91 162.554 Q1074.44 162.554 1072.13 159.776 Q1069.81 156.998 1069.81 151.651 M1080.53 135.332 L1080.53 135.332 Z" fill="#000000" fill-rule="nonzero" fill-opacity="1" /><path clip-path="url(#clip110)" d="M1118.91 148.943 Q1118.91 144.244 1116.97 141.582 Q1115.05 138.896 1111.67 138.896 Q1108.29 138.896 1106.34 141.582 Q1104.42 144.244 1104.42 148.943 Q1104.42 153.642 1106.34 156.327 Q1108.29 158.989 1111.67 158.989 Q1115.05 158.989 1116.97 156.327 Q1118.91 153.642 1118.91 148.943 M1104.42 139.892 Q1105.76 137.577 1107.8 136.466 Q1109.86 135.332 1112.71 135.332 Q1117.43 135.332 1120.37 139.082 Q1123.33 142.832 1123.33 148.943 Q1123.33 155.054 1120.37 158.804 Q1117.43 162.554 1112.71 162.554 Q1109.86 162.554 1107.8 161.443 Q1105.76 160.308 1104.42 157.994 L1104.42 161.882 L1100.14 161.882 L1100.14 125.864 L1104.42 125.864 L1104.42 139.892 Z" fill="#000000" fill-rule="nonzero" fill-opacity="1" /><path clip-path="url(#clip110)" d="M1130.39 135.957 L1134.65 135.957 L1134.65 161.882 L1130.39 161.882 L1130.39 135.957 M1130.39 125.864 L1134.65 125.864 L1134.65 131.258 L1130.39 131.258 L1130.39 125.864 Z" fill="#000000" fill-rule="nonzero" fill-opacity="1" /><path clip-path="url(#clip110)" d="M1162.22 136.952 L1162.22 140.933 Q1160.42 139.938 1158.59 139.452 Q1156.78 138.943 1154.93 138.943 Q1150.79 138.943 1148.49 141.582 Q1146.2 144.197 1146.2 148.943 Q1146.2 153.688 1148.49 156.327 Q1150.79 158.943 1154.93 158.943 Q1156.78 158.943 1158.59 158.457 Q1160.42 157.947 1162.22 156.952 L1162.22 160.887 Q1160.44 161.72 1158.52 162.137 Q1156.62 162.554 1154.47 162.554 Q1148.61 162.554 1145.16 158.873 Q1141.71 155.193 1141.71 148.943 Q1141.71 142.6 1145.18 138.966 Q1148.68 135.332 1154.74 135.332 Q1156.71 135.332 1158.59 135.748 Q1160.46 136.142 1162.22 136.952 Z" fill="#000000" fill-rule="nonzero" fill-opacity="1" /><path clip-path="url(#clip110)" d="M1189.56 145.378 L1189.56 158.04 L1197.06 158.04 Q1200.83 158.04 1202.64 156.489 Q1204.47 154.915 1204.47 151.697 Q1204.47 148.457 1202.64 146.929 Q1200.83 145.378 1197.06 145.378 L1189.56 145.378 M1189.56 131.165 L1189.56 141.582 L1196.48 141.582 Q1199.91 141.582 1201.57 140.308 Q1203.26 139.012 1203.26 136.373 Q1203.26 133.758 1201.57 132.461 Q1199.91 131.165 1196.48 131.165 L1189.56 131.165 M1184.88 127.322 L1196.83 127.322 Q1202.17 127.322 1205.07 129.545 Q1207.96 131.767 1207.96 135.864 Q1207.96 139.035 1206.48 140.91 Q1205 142.785 1202.13 143.248 Q1205.58 143.989 1207.48 146.35 Q1209.4 148.688 1209.4 152.207 Q1209.4 156.836 1206.25 159.359 Q1203.1 161.882 1197.29 161.882 L1184.88 161.882 L1184.88 127.322 Z" fill="#000000" fill-rule="nonzero" fill-opacity="1" /><path clip-path="url(#clip110)" d="M1237.29 128.457 L1237.29 133.017 Q1234.63 131.744 1232.27 131.119 Q1229.91 130.494 1227.71 130.494 Q1223.89 130.494 1221.8 131.975 Q1219.74 133.457 1219.74 136.188 Q1219.74 138.48 1221.11 139.66 Q1222.5 140.818 1226.34 141.535 L1229.16 142.114 Q1234.4 143.109 1236.87 145.633 Q1239.37 148.133 1239.37 152.345 Q1239.37 157.369 1235.99 159.961 Q1232.64 162.554 1226.13 162.554 Q1223.68 162.554 1220.9 161.998 Q1218.15 161.443 1215.18 160.355 L1215.18 155.54 Q1218.03 157.137 1220.76 157.947 Q1223.49 158.757 1226.13 158.757 Q1230.14 158.757 1232.31 157.183 Q1234.49 155.609 1234.49 152.693 Q1234.49 150.146 1232.91 148.711 Q1231.36 147.276 1227.8 146.558 L1224.95 146.003 Q1219.72 144.961 1217.38 142.739 Q1215.04 140.517 1215.04 136.559 Q1215.04 131.975 1218.26 129.336 Q1221.5 126.697 1227.17 126.697 Q1229.6 126.697 1232.13 127.137 Q1234.65 127.577 1237.29 128.457 Z" fill="#000000" fill-rule="nonzero" fill-opacity="1" /><path clip-path="url(#clip110)" d="M1250.6 157.994 L1250.6 171.744 L1246.32 171.744 L1246.32 135.957 L1250.6 135.957 L1250.6 139.892 Q1251.94 137.577 1253.98 136.466 Q1256.04 135.332 1258.89 135.332 Q1263.61 135.332 1266.55 139.082 Q1269.51 142.832 1269.51 148.943 Q1269.51 155.054 1266.55 158.804 Q1263.61 162.554 1258.89 162.554 Q1256.04 162.554 1253.98 161.443 Q1251.94 160.308 1250.6 157.994 M1265.09 148.943 Q1265.09 144.244 1263.15 141.582 Q1261.22 138.896 1257.85 138.896 Q1254.47 138.896 1252.52 141.582 Q1250.6 144.244 1250.6 148.943 Q1250.6 153.642 1252.52 156.327 Q1254.47 158.989 1257.85 158.989 Q1261.22 158.989 1263.15 156.327 Q1265.09 153.642 1265.09 148.943 Z" fill="#000000" fill-rule="nonzero" fill-opacity="1" /><path clip-path="url(#clip110)" d="M1276.57 125.864 L1280.83 125.864 L1280.83 161.882 L1276.57 161.882 L1276.57 125.864 Z" fill="#000000" fill-rule="nonzero" fill-opacity="1" /><path clip-path="url(#clip110)" d="M1289.74 135.957 L1294 135.957 L1294 161.882 L1289.74 161.882 L1289.74 135.957 M1289.74 125.864 L1294 125.864 L1294 131.258 L1289.74 131.258 L1289.74 125.864 Z" fill="#000000" fill-rule="nonzero" fill-opacity="1" /><path clip-path="url(#clip110)" d="M1324.47 146.234 L1324.47 161.882 L1320.21 161.882 L1320.21 146.373 Q1320.21 142.693 1318.77 140.864 Q1317.34 139.035 1314.47 139.035 Q1311.02 139.035 1309.03 141.234 Q1307.03 143.433 1307.03 147.23 L1307.03 161.882 L1302.75 161.882 L1302.75 135.957 L1307.03 135.957 L1307.03 139.984 Q1308.56 137.646 1310.62 136.489 Q1312.71 135.332 1315.41 135.332 Q1319.88 135.332 1322.17 138.109 Q1324.47 140.864 1324.47 146.234 Z" fill="#000000" fill-rule="nonzero" fill-opacity="1" /><path clip-path="url(#clip110)" d="M1355.14 147.855 L1355.14 149.938 L1335.55 149.938 Q1335.83 154.336 1338.19 156.651 Q1340.58 158.943 1344.81 158.943 Q1347.27 158.943 1349.56 158.341 Q1351.87 157.739 1354.14 156.535 L1354.14 160.563 Q1351.85 161.535 1349.44 162.044 Q1347.03 162.554 1344.56 162.554 Q1338.35 162.554 1334.72 158.943 Q1331.11 155.332 1331.11 149.174 Q1331.11 142.808 1334.53 139.082 Q1337.98 135.332 1343.82 135.332 Q1349.05 135.332 1352.08 138.711 Q1355.14 142.068 1355.14 147.855 M1350.88 146.605 Q1350.83 143.109 1348.91 141.026 Q1347.01 138.943 1343.86 138.943 Q1340.3 138.943 1338.15 140.957 Q1336.02 142.971 1335.69 146.628 L1350.88 146.605 Z" fill="#000000" fill-rule="nonzero" fill-opacity="1" /><path clip-path="url(#clip110)" d="M1387.24 138.943 Q1383.82 138.943 1381.83 141.628 Q1379.84 144.29 1379.84 148.943 Q1379.84 153.595 1381.8 156.281 Q1383.79 158.943 1387.24 158.943 Q1390.65 158.943 1392.64 156.257 Q1394.63 153.572 1394.63 148.943 Q1394.63 144.336 1392.64 141.651 Q1390.65 138.943 1387.24 138.943 M1387.24 135.332 Q1392.8 135.332 1395.97 138.943 Q1399.14 142.554 1399.14 148.943 Q1399.14 155.308 1395.97 158.943 Q1392.8 162.554 1387.24 162.554 Q1381.66 162.554 1378.49 158.943 Q1375.34 155.308 1375.34 148.943 Q1375.34 142.554 1378.49 138.943 Q1381.66 135.332 1387.24 135.332 Z" fill="#000000" fill-rule="nonzero" fill-opacity="1" /><path clip-path="url(#clip110)" d="M1419.33 125.864 L1419.33 129.406 L1415.25 129.406 Q1412.96 129.406 1412.06 130.332 Q1411.18 131.258 1411.18 133.665 L1411.18 135.957 L1418.19 135.957 L1418.19 139.267 L1411.18 139.267 L1411.18 161.882 L1406.9 161.882 L1406.9 139.267 L1402.82 139.267 L1402.82 135.957 L1406.9 135.957 L1406.9 134.151 Q1406.9 129.822 1408.91 127.855 Q1410.92 125.864 1415.3 125.864 L1419.33 125.864 Z" fill="#000000" fill-rule="nonzero" fill-opacity="1" /><path clip-path="url(#clip110)" d="M1460.36 141.388 Q1460.52 141.552 1460.52 141.786 Q1460.52 142.02 1459.98 142.559 L1448.58 155.348 Q1452.93 170.666 1455.32 170.666 Q1456.05 170.666 1456.8 170.104 Q1457.57 169.565 1457.88 168.745 Q1457.99 168.347 1458.11 168.207 Q1458.23 168.066 1458.55 168.066 Q1459.12 168.066 1459.12 168.605 Q1459.12 168.886 1458.86 169.354 Q1458.6 169.846 1458.13 170.385 Q1457.66 170.947 1456.84 171.322 Q1456.02 171.72 1455.04 171.72 Q1453.82 171.72 1452.84 171.439 Q1451.86 171.158 1451.29 170.806 Q1450.73 170.455 1450.22 169.823 Q1449.72 169.214 1449.54 168.839 Q1449.37 168.488 1449.09 167.879 Q1448.53 166.567 1448.01 165.115 Q1447.5 163.663 1447.17 162.609 Q1446.84 161.555 1445.84 158.322 L1434.85 170.666 Q1434.34 171.181 1434.08 171.181 Q1433.87 171.181 1433.68 170.994 Q1433.49 170.83 1433.49 170.619 Q1433.49 170.385 1434.03 169.846 L1445.06 157.526 Q1445.23 157.362 1445.32 157.221 Q1445.41 157.081 1445.41 157.034 L1445.44 156.987 Q1445.44 156.87 1445.02 155.371 Q1444.59 153.872 1443.82 151.553 Q1443.07 149.211 1442.37 147.501 Q1441.92 146.353 1441.62 145.651 Q1441.32 144.948 1440.78 143.894 Q1440.26 142.84 1439.72 142.301 Q1439.18 141.739 1438.69 141.739 Q1438.53 141.739 1438.27 141.809 Q1438.01 141.88 1437.59 142.067 Q1437.19 142.231 1436.8 142.699 Q1436.4 143.144 1436.14 143.8 Q1435.93 144.316 1435.53 144.316 Q1435.27 144.316 1435.11 144.199 Q1434.97 144.081 1434.97 143.964 L1434.94 143.847 Q1434.94 143.426 1435.34 142.723 Q1435.74 142.02 1436.72 141.364 Q1437.71 140.685 1438.97 140.685 Q1440.17 140.685 1441.15 140.966 Q1442.14 141.247 1442.67 141.575 Q1443.24 141.903 1443.73 142.512 Q1444.22 143.098 1444.36 143.379 Q1444.52 143.636 1444.78 144.175 Q1445.58 146.002 1446.09 147.571 Q1446.63 149.117 1448.18 154.013 L1459.16 141.786 Q1459.66 141.2 1459.94 141.2 Q1460.19 141.2 1460.36 141.388 Z" fill="#000000" fill-rule="nonzero" fill-opacity="1" /><path clip-path="url(#clip110)" d="M1465.38 147.543 Q1465.38 146.936 1465.43 146.756 Q1465.49 146.575 1465.76 146.297 L1472.2 139.115 Q1475.72 135.147 1475.72 131.688 Q1475.72 129.442 1474.54 127.835 Q1473.38 126.228 1471.23 126.228 Q1469.76 126.228 1468.51 127.13 Q1467.26 128.032 1466.69 129.638 Q1466.79 129.606 1467.13 129.606 Q1467.97 129.606 1468.43 130.13 Q1468.9 130.655 1468.9 131.36 Q1468.9 132.262 1468.31 132.704 Q1467.74 133.131 1467.17 133.131 Q1466.94 133.131 1466.62 133.082 Q1466.33 133.032 1465.85 132.573 Q1465.38 132.098 1465.38 131.262 Q1465.38 128.917 1467.15 127.048 Q1468.94 125.179 1471.66 125.179 Q1474.74 125.179 1476.76 127.015 Q1478.79 128.835 1478.79 131.688 Q1478.79 132.688 1478.48 133.606 Q1478.18 134.508 1477.77 135.213 Q1477.38 135.918 1476.3 137.049 Q1475.22 138.181 1474.35 138.984 Q1473.48 139.787 1471.53 141.493 L1467.97 144.952 L1474.02 144.952 Q1476.97 144.952 1477.2 144.69 Q1477.53 144.214 1477.94 141.706 L1478.79 141.706 L1477.84 147.543 L1465.38 147.543 Z" fill="#000000" fill-rule="nonzero" fill-opacity="1" /><circle clip-path="url(#clip110)" cx="947.104" cy="203.902" r="20.48" fill="#008000" fill-rule="evenodd" fill-opacity="1" stroke="#000000" stroke-opacity="1" stroke-width="4.55111"/>
<path clip-path="url(#clip110)" d="M1062.21 196.785 Q1062.38 196.949 1062.38 197.183 Q1062.38 197.417 1061.84 197.956 L1050.43 210.744 Q1054.79 226.063 1057.18 226.063 Q1057.9 226.063 1058.65 225.501 Q1059.42 224.962 1059.73 224.142 Q1059.85 223.744 1059.96 223.603 Q1060.08 223.463 1060.41 223.463 Q1060.97 223.463 1060.97 224.002 Q1060.97 224.283 1060.71 224.751 Q1060.46 225.243 1059.99 225.782 Q1059.52 226.344 1058.7 226.719 Q1057.88 227.117 1056.9 227.117 Q1055.68 227.117 1054.69 226.836 Q1053.71 226.555 1053.15 226.203 Q1052.59 225.852 1052.07 225.22 Q1051.58 224.611 1051.39 224.236 Q1051.23 223.884 1050.95 223.275 Q1050.38 221.964 1049.87 220.512 Q1049.35 219.059 1049.03 218.005 Q1048.7 216.951 1047.69 213.719 L1036.71 226.063 Q1036.19 226.578 1035.93 226.578 Q1035.72 226.578 1035.53 226.391 Q1035.35 226.227 1035.35 226.016 Q1035.35 225.782 1035.89 225.243 L1046.92 212.923 Q1047.08 212.759 1047.17 212.618 Q1047.27 212.478 1047.27 212.431 L1047.29 212.384 Q1047.29 212.267 1046.87 210.768 Q1046.45 209.269 1045.68 206.95 Q1044.93 204.608 1044.22 202.898 Q1043.78 201.75 1043.47 201.048 Q1043.17 200.345 1042.63 199.291 Q1042.12 198.237 1041.58 197.698 Q1041.04 197.136 1040.55 197.136 Q1040.38 197.136 1040.12 197.206 Q1039.87 197.277 1039.45 197.464 Q1039.05 197.628 1038.65 198.096 Q1038.25 198.541 1037.99 199.197 Q1037.78 199.712 1037.38 199.712 Q1037.13 199.712 1036.96 199.595 Q1036.82 199.478 1036.82 199.361 L1036.8 199.244 Q1036.8 198.822 1037.2 198.12 Q1037.6 197.417 1038.58 196.761 Q1039.56 196.082 1040.83 196.082 Q1042.02 196.082 1043.01 196.363 Q1043.99 196.644 1044.53 196.972 Q1045.09 197.3 1045.58 197.909 Q1046.07 198.495 1046.21 198.776 Q1046.38 199.033 1046.64 199.572 Q1047.43 201.399 1047.95 202.968 Q1048.49 204.514 1050.03 209.409 L1061.02 197.183 Q1061.51 196.597 1061.79 196.597 Q1062.05 196.597 1062.21 196.785 Z" fill="#000000" fill-rule="nonzero" fill-opacity="1" /><path clip-path="url(#clip110)" d="M1067.23 202.939 Q1067.23 202.333 1067.28 202.152 Q1067.35 201.972 1067.61 201.693 L1074.05 194.512 Q1077.58 190.544 1077.58 187.085 Q1077.58 184.839 1076.4 183.232 Q1075.23 181.625 1073.09 181.625 Q1071.61 181.625 1070.36 182.527 Q1069.12 183.429 1068.54 185.035 Q1068.64 185.003 1068.99 185.003 Q1069.82 185.003 1070.28 185.527 Q1070.76 186.052 1070.76 186.757 Q1070.76 187.659 1070.17 188.101 Q1069.59 188.528 1069.02 188.528 Q1068.79 188.528 1068.48 188.478 Q1068.18 188.429 1067.71 187.97 Q1067.23 187.495 1067.23 186.659 Q1067.23 184.314 1069 182.445 Q1070.79 180.576 1073.51 180.576 Q1076.59 180.576 1078.61 182.412 Q1080.64 184.232 1080.64 187.085 Q1080.64 188.085 1080.33 189.003 Q1080.04 189.905 1079.63 190.61 Q1079.23 191.315 1078.15 192.446 Q1077.07 193.578 1076.2 194.381 Q1075.33 195.184 1073.38 196.889 L1069.82 200.349 L1075.87 200.349 Q1078.82 200.349 1079.05 200.087 Q1079.38 199.611 1079.79 197.103 L1080.64 197.103 L1079.69 202.939 L1067.23 202.939 Z" fill="#000000" fill-rule="nonzero" fill-opacity="1" /><circle clip-path="url(#clip110)" cx="947.104" cy="259.299" r="20.48" fill="#ff0000" fill-rule="evenodd" fill-opacity="1" stroke="#000000" stroke-opacity="1" stroke-width="4.55111"/>
<path clip-path="url(#clip110)" d="M1051.18 233.819 L1044.84 251.018 L1057.55 251.018 L1051.18 233.819 M1048.54 229.213 L1053.84 229.213 L1067.01 263.773 L1062.15 263.773 L1059 254.907 L1043.43 254.907 L1040.28 263.773 L1035.35 263.773 L1048.54 229.213 Z" fill="#000000" fill-rule="nonzero" fill-opacity="1" /><path clip-path="url(#clip110)" d="M1075.99 259.884 L1075.99 273.634 L1071.71 273.634 L1071.71 237.847 L1075.99 237.847 L1075.99 241.782 Q1077.34 239.467 1079.37 238.356 Q1081.43 237.222 1084.28 237.222 Q1089 237.222 1091.94 240.972 Q1094.91 244.722 1094.91 250.833 Q1094.91 256.944 1091.94 260.694 Q1089 264.444 1084.28 264.444 Q1081.43 264.444 1079.37 263.333 Q1077.34 262.199 1075.99 259.884 M1090.49 250.833 Q1090.49 246.134 1088.54 243.472 Q1086.62 240.787 1083.24 240.787 Q1079.86 240.787 1077.92 243.472 Q1075.99 246.134 1075.99 250.833 Q1075.99 255.532 1077.92 258.217 Q1079.86 260.879 1083.24 260.879 Q1086.62 260.879 1088.54 258.217 Q1090.49 255.532 1090.49 250.833 Z" fill="#000000" fill-rule="nonzero" fill-opacity="1" /><path clip-path="url(#clip110)" d="M1106.09 259.884 L1106.09 273.634 L1101.8 273.634 L1101.8 237.847 L1106.09 237.847 L1106.09 241.782 Q1107.43 239.467 1109.47 238.356 Q1111.53 237.222 1114.37 237.222 Q1119.1 237.222 1122.04 240.972 Q1125 244.722 1125 250.833 Q1125 256.944 1122.04 260.694 Q1119.1 264.444 1114.37 264.444 Q1111.53 264.444 1109.47 263.333 Q1107.43 262.199 1106.09 259.884 M1120.58 250.833 Q1120.58 246.134 1118.63 243.472 Q1116.71 240.787 1113.33 240.787 Q1109.95 240.787 1108.01 243.472 Q1106.09 246.134 1106.09 250.833 Q1106.09 255.532 1108.01 258.217 Q1109.95 260.879 1113.33 260.879 Q1116.71 260.879 1118.63 258.217 Q1120.58 255.532 1120.58 250.833 Z" fill="#000000" fill-rule="nonzero" fill-opacity="1" /><path clip-path="url(#clip110)" d="M1142.11 240.833 Q1138.68 240.833 1136.69 243.518 Q1134.7 246.18 1134.7 250.833 Q1134.7 255.486 1136.67 258.171 Q1138.66 260.833 1142.11 260.833 Q1145.51 260.833 1147.5 258.148 Q1149.49 255.463 1149.49 250.833 Q1149.49 246.226 1147.5 243.541 Q1145.51 240.833 1142.11 240.833 M1142.11 237.222 Q1147.66 237.222 1150.83 240.833 Q1154 244.444 1154 250.833 Q1154 257.199 1150.83 260.833 Q1147.66 264.444 1142.11 264.444 Q1136.53 264.444 1133.36 260.833 Q1130.21 257.199 1130.21 250.833 Q1130.21 244.444 1133.36 240.833 Q1136.53 237.222 1142.11 237.222 Z" fill="#000000" fill-rule="nonzero" fill-opacity="1" /><path clip-path="url(#clip110)" d="M1181.16 237.847 L1171.78 250.463 L1181.64 263.773 L1176.62 263.773 L1169.07 253.588 L1161.53 263.773 L1156.5 263.773 L1166.57 250.208 L1157.36 237.847 L1162.38 237.847 L1169.26 247.083 L1176.13 237.847 L1181.16 237.847 Z" fill="#000000" fill-rule="nonzero" fill-opacity="1" /><path clip-path="url(#clip110)" d="M1188.26 257.893 L1193.15 257.893 L1193.15 263.773 L1188.26 263.773 L1188.26 257.893 Z" fill="#000000" fill-rule="nonzero" fill-opacity="1" /><path clip-path="url(#clip110)" d="M1213.33 263.773 L1213.33 262.297 Q1215.88 262.297 1216.47 261.993 Q1217.06 261.665 1217.06 260.119 L1217.06 247.26 Q1217.06 245.48 1216.42 245.035 Q1215.81 244.59 1213.33 244.59 L1213.33 243.091 L1220.08 242.575 L1220.08 247.611 Q1222.33 242.575 1227.17 242.575 Q1232.8 242.575 1233.57 247.26 Q1234.39 245.433 1236.1 244.004 Q1237.83 242.575 1240.53 242.575 Q1244.13 242.575 1245.56 244.355 Q1246.61 245.55 1246.83 246.885 Q1247.04 248.22 1247.04 251.687 L1247.04 260.845 Q1247.08 261.852 1247.86 262.086 Q1248.63 262.297 1250.78 262.297 L1250.78 263.773 Q1245.89 263.632 1245.42 263.632 Q1245.05 263.632 1239.99 263.773 L1239.99 262.297 Q1242.54 262.297 1243.13 261.993 Q1243.73 261.665 1243.73 260.119 L1243.73 248.946 Q1243.73 246.51 1242.98 245.082 Q1242.23 243.629 1240.17 243.629 Q1237.69 243.629 1235.7 245.714 Q1233.71 247.799 1233.71 251.312 L1233.71 260.119 Q1233.71 261.665 1234.29 261.993 Q1234.9 262.297 1237.46 262.297 L1237.46 263.773 Q1232.56 263.632 1232.07 263.632 Q1231.69 263.632 1226.66 263.773 L1226.66 262.297 Q1229.21 262.297 1229.8 261.993 Q1230.41 261.665 1230.41 260.119 L1230.41 248.946 Q1230.41 246.51 1229.66 245.082 Q1228.91 243.629 1226.85 243.629 Q1224.36 243.629 1222.37 245.714 Q1220.38 247.799 1220.38 251.312 L1220.38 260.119 Q1220.38 261.665 1220.97 261.993 Q1221.58 262.297 1224.11 262.297 L1224.11 263.773 Q1219.21 263.632 1218.74 263.632 Q1218.37 263.632 1213.33 263.773 Z" fill="#000000" fill-rule="nonzero" fill-opacity="1" /><path clip-path="url(#clip110)" d="M1252.68 263.773 L1252.68 262.297 Q1255.24 262.297 1255.82 261.993 Q1256.41 261.665 1256.41 260.119 L1256.41 247.213 Q1256.41 245.433 1255.8 245.011 Q1255.21 244.59 1252.87 244.59 L1252.87 243.091 L1259.57 242.575 L1259.57 260.166 Q1259.57 261.594 1260.09 261.946 Q1260.6 262.297 1262.94 262.297 L1262.94 263.773 Q1258.05 263.632 1257.95 263.632 Q1257.3 263.632 1252.68 263.773 M1254.7 234.214 Q1254.7 233.253 1255.42 232.48 Q1256.17 231.684 1257.23 231.684 Q1258.28 231.684 1259.03 232.41 Q1259.78 233.113 1259.78 234.237 Q1259.78 235.338 1259.03 236.064 Q1258.28 236.767 1257.23 236.767 Q1256.13 236.767 1255.4 235.994 Q1254.7 235.221 1254.7 234.214 Z" fill="#000000" fill-rule="nonzero" fill-opacity="1" /><path clip-path="url(#clip110)" d="M1266.22 263.773 L1266.22 262.297 Q1268.77 262.297 1269.36 261.993 Q1269.94 261.665 1269.94 260.119 L1269.94 247.26 Q1269.94 245.48 1269.31 245.035 Q1268.7 244.59 1266.22 244.59 L1266.22 243.091 L1272.96 242.575 L1272.96 247.611 Q1275.21 242.575 1280.06 242.575 Q1283.67 242.575 1285.1 244.355 Q1286.15 245.55 1286.36 246.885 Q1286.6 248.22 1286.6 251.687 L1286.6 260.845 Q1286.64 261.852 1287.42 262.086 Q1288.19 262.297 1290.34 262.297 L1290.34 263.773 Q1285.45 263.632 1284.96 263.632 Q1284.58 263.632 1279.55 263.773 L1279.55 262.297 Q1282.1 262.297 1282.68 261.993 Q1283.29 261.665 1283.29 260.119 L1283.29 248.946 Q1283.29 246.51 1282.54 245.082 Q1281.79 243.629 1279.73 243.629 Q1277.25 243.629 1275.26 245.714 Q1273.27 247.799 1273.27 251.312 L1273.27 260.119 Q1273.27 261.665 1273.85 261.993 Q1274.46 262.297 1276.99 262.297 L1276.99 263.773 Q1272.1 263.632 1271.63 263.632 Q1271.25 263.632 1266.22 263.773 Z" fill="#000000" fill-rule="nonzero" fill-opacity="1" /><path clip-path="url(#clip110)" d="M1350.35 243.091 L1343.72 269.769 Q1343.53 270.612 1343.53 270.823 Q1343.53 271.104 1343.6 271.221 Q1343.7 271.362 1344.21 271.479 Q1344.75 271.596 1345.83 271.596 Q1346.23 271.596 1346.37 271.596 Q1346.51 271.596 1346.72 271.643 Q1346.93 271.689 1347 271.807 Q1347.07 271.924 1347.07 272.111 Q1347.07 273.071 1346.23 273.071 Q1345.43 273.071 1343.77 273.001 Q1342.1 272.931 1341.28 272.931 Q1340.49 272.931 1338.87 273.001 Q1337.26 273.071 1336.48 273.071 Q1336.2 273.071 1336.04 272.931 Q1335.87 272.814 1335.87 272.673 L1335.85 272.556 Q1335.85 271.9 1336.11 271.736 Q1336.37 271.596 1336.95 271.596 Q1338.97 271.572 1339.55 271.291 Q1340.14 271.01 1340.42 270.003 L1342.57 261.43 Q1339.69 264.311 1336.9 264.311 Q1334.21 264.311 1332.38 262.203 Q1330.58 260.072 1330.58 256.629 Q1330.58 254.076 1331.59 251.499 Q1332.62 248.923 1334.21 246.979 Q1335.83 245.035 1337.93 243.817 Q1340.04 242.575 1342.13 242.575 Q1343.46 242.575 1344.66 243.348 Q1345.87 244.121 1346.6 245.925 Q1347.21 244.894 1348.33 243.77 Q1349.46 242.622 1349.86 242.622 Q1350.09 242.622 1350.21 242.786 Q1350.35 242.927 1350.35 243.091 M1345.92 247.845 Q1345.92 247.611 1345.73 247.026 Q1345.57 246.44 1345.2 245.644 Q1344.84 244.824 1344.02 244.238 Q1343.2 243.629 1342.13 243.629 Q1340.58 243.629 1338.92 245.128 Q1337.28 246.604 1336.2 249.18 Q1335.52 250.867 1334.75 254.006 Q1333.98 257.144 1333.98 258.737 Q1333.98 259.112 1334 259.533 Q1334.05 259.955 1334.23 260.657 Q1334.42 261.36 1334.7 261.899 Q1335.01 262.438 1335.62 262.836 Q1336.22 263.234 1337.04 263.234 Q1338.82 263.234 1340.6 261.712 Q1342.38 260.189 1343.13 258.831 Q1343.23 258.69 1344.56 253.373 Q1345.92 248.056 1345.92 247.845 Z" fill="#000000" fill-rule="nonzero" fill-opacity="1" /><path clip-path="url(#clip110)" d="M1355.26 275.526 Q1355.26 270.591 1356.51 267.902 Q1358.25 263.901 1362.35 263.901 Q1363.21 263.901 1364.12 264.147 Q1365.03 264.377 1366.18 265.278 Q1367.35 266.18 1368.05 267.656 Q1369.4 270.509 1369.4 275.526 Q1369.4 280.428 1368.15 283.1 Q1366.33 287.003 1362.31 287.003 Q1360.8 287.003 1359.26 286.232 Q1357.74 285.461 1356.77 283.609 Q1355.26 280.838 1355.26 275.526 M1358.05 275.116 Q1358.05 280.182 1358.41 282.199 Q1358.82 284.379 1359.94 285.33 Q1361.07 286.265 1362.31 286.265 Q1363.66 286.265 1364.77 285.265 Q1365.9 284.248 1366.25 282.068 Q1366.62 279.92 1366.61 275.116 Q1366.61 270.443 1366.28 268.574 Q1365.84 266.393 1364.66 265.524 Q1363.49 264.639 1362.31 264.639 Q1361.87 264.639 1361.39 264.77 Q1360.94 264.901 1360.26 265.278 Q1359.59 265.655 1359.07 266.59 Q1358.56 267.525 1358.31 268.935 Q1358.05 270.755 1358.05 275.116 Z" fill="#000000" fill-rule="nonzero" fill-opacity="1" /><path clip-path="url(#clip110)" d="M1387.68 256.488 Q1387.72 255.903 1388.64 255.903 L1418.03 255.903 Q1419.41 255.903 1419.44 256.441 Q1419.44 257.027 1418.13 257.004 L1388.96 257.004 Q1387.68 257.027 1387.68 256.488 M1387.68 247.119 Q1387.68 246.534 1388.68 246.557 L1417.98 246.557 Q1419.41 246.557 1419.44 247.119 Q1419.44 247.658 1418.22 247.658 L1388.64 247.658 Q1387.68 247.658 1387.68 247.119 Z" fill="#000000" fill-rule="nonzero" fill-opacity="1" /><path clip-path="url(#clip110)" d="M1437.93 257.308 Q1437.93 255.879 1438.75 255.2 Q1439.57 254.521 1440.62 254.521 Q1441.72 254.521 1442.5 255.247 Q1443.29 255.95 1443.29 257.191 Q1443.29 258.526 1442.35 259.276 Q1441.44 260.025 1440.13 259.838 Q1441.28 261.758 1443.39 262.625 Q1445.52 263.492 1447.48 263.492 Q1449.55 263.492 1451.21 261.712 Q1452.89 259.931 1452.89 255.575 Q1452.89 251.874 1451.44 249.743 Q1450.01 247.611 1447.18 247.611 L1445.07 247.611 Q1444.35 247.611 1444.14 247.541 Q1443.92 247.471 1443.92 247.072 Q1443.92 246.604 1444.65 246.51 Q1445.38 246.51 1446.52 246.37 Q1449.31 246.276 1450.79 243.864 Q1452.12 241.615 1452.12 238.406 Q1452.12 235.478 1450.72 234.26 Q1449.33 233.019 1447.53 233.019 Q1445.84 233.019 1443.99 233.722 Q1442.14 234.424 1441.14 235.994 Q1444.11 235.994 1444.11 238.406 Q1444.11 239.46 1443.43 240.163 Q1442.78 240.842 1441.68 240.842 Q1440.62 240.842 1439.92 240.186 Q1439.22 239.507 1439.22 238.359 Q1439.22 235.619 1441.65 233.722 Q1444.11 231.824 1447.72 231.824 Q1451.28 231.824 1453.9 233.698 Q1456.55 235.572 1456.55 238.453 Q1456.55 241.287 1454.68 243.606 Q1452.8 245.925 1449.83 246.885 Q1453.48 247.611 1455.66 250.094 Q1457.84 252.553 1457.84 255.575 Q1457.84 259.322 1454.89 262.086 Q1451.93 264.827 1447.62 264.827 Q1443.64 264.827 1440.79 262.672 Q1437.93 260.517 1437.93 257.308 Z" fill="#000000" fill-rule="nonzero" fill-opacity="1" /><path clip-path="url(#clip110)" d="M1460.08 241.217 L1461.65 231.356 L1462.84 231.356 Q1462.98 231.942 1463.22 232.199 Q1463.48 232.457 1464.83 232.668 Q1466.22 232.878 1469 232.878 L1480.64 232.878 Q1480.64 233.979 1480.22 234.565 L1473.74 243.676 Q1471.67 246.557 1470.76 251.874 Q1470.22 255.434 1470.25 259.744 L1470.25 262.18 Q1470.25 264.827 1468.02 264.827 Q1465.82 264.827 1465.82 262.18 Q1465.82 253.022 1471.72 244.145 Q1472.35 243.231 1474.67 239.975 Q1477.01 236.72 1477.11 236.579 L1467.18 236.579 Q1462.82 236.579 1462.47 236.86 Q1462 237.282 1461.27 241.217 L1460.08 241.217 Z" fill="#000000" fill-rule="nonzero" fill-opacity="1" /><path clip-path="url(#clip110)" d="M1477.81 263 Q1477.08 262.227 1477.08 261.22 Q1477.08 260.212 1477.81 259.486 Q1478.53 258.737 1479.63 258.737 Q1480.69 258.737 1481.39 259.44 Q1482.12 260.119 1482.12 261.243 Q1482.12 262.344 1481.34 263.07 Q1480.59 263.773 1479.63 263.773 Q1478.53 263.773 1477.81 263 Z" fill="#000000" fill-rule="nonzero" fill-opacity="1" /><path clip-path="url(#clip110)" d="M1490.28 241.217 L1491.85 231.356 L1493.04 231.356 Q1493.18 231.942 1493.42 232.199 Q1493.67 232.457 1495.03 232.668 Q1496.41 232.878 1499.2 232.878 L1510.84 232.878 Q1510.84 233.979 1510.42 234.565 L1503.93 243.676 Q1501.87 246.557 1500.96 251.874 Q1500.42 255.434 1500.44 259.744 L1500.44 262.18 Q1500.44 264.827 1498.22 264.827 Q1496.02 264.827 1496.02 262.18 Q1496.02 253.022 1501.92 244.145 Q1502.55 243.231 1504.87 239.975 Q1507.21 236.72 1507.31 236.579 L1497.37 236.579 Q1493.02 236.579 1492.67 236.86 Q1492.2 237.282 1491.47 241.217 L1490.28 241.217 Z" fill="#000000" fill-rule="nonzero" fill-opacity="1" /><path clip-path="url(#clip110)" d="M1507.8 255.856 L1507.8 254.38 L1522.53 231.871 Q1522.91 231.286 1523.49 231.309 Q1524.03 231.309 1524.15 231.52 Q1524.27 231.731 1524.27 232.551 L1524.27 254.38 L1529.07 254.38 L1529.07 255.856 L1524.27 255.856 L1524.27 260.025 Q1524.27 261.407 1524.83 261.852 Q1525.41 262.297 1527.9 262.297 L1528.9 262.297 L1528.9 263.773 Q1526.94 263.632 1522.39 263.632 Q1517.87 263.632 1515.9 263.773 L1515.9 262.297 L1516.91 262.297 Q1519.39 262.297 1519.98 261.875 Q1520.56 261.43 1520.56 260.025 L1520.56 255.856 L1507.8 255.856 M1509.16 254.38 L1520.85 254.38 L1520.85 236.486 L1509.16 254.38 Z" fill="#000000" fill-rule="nonzero" fill-opacity="1" /><path clip-path="url(#clip110)" d="M1532.7 257.308 Q1532.7 255.879 1533.52 255.2 Q1534.34 254.521 1535.39 254.521 Q1536.5 254.521 1537.27 255.247 Q1538.06 255.95 1538.06 257.191 Q1538.06 258.526 1537.13 259.276 Q1536.21 260.025 1534.9 259.838 Q1536.05 261.758 1538.16 262.625 Q1540.29 263.492 1542.26 263.492 Q1544.32 263.492 1545.98 261.712 Q1547.67 259.931 1547.67 255.575 Q1547.67 251.874 1546.22 249.743 Q1544.79 247.611 1541.95 247.611 L1539.84 247.611 Q1539.12 247.611 1538.91 247.541 Q1538.7 247.471 1538.7 247.072 Q1538.7 246.604 1539.42 246.51 Q1540.15 246.51 1541.3 246.37 Q1544.08 246.276 1545.56 243.864 Q1546.9 241.615 1546.9 238.406 Q1546.9 235.478 1545.49 234.26 Q1544.11 233.019 1542.3 233.019 Q1540.62 233.019 1538.77 233.722 Q1536.92 234.424 1535.91 235.994 Q1538.88 235.994 1538.88 238.406 Q1538.88 239.46 1538.21 240.163 Q1537.55 240.842 1536.45 240.842 Q1535.39 240.842 1534.69 240.186 Q1533.99 239.507 1533.99 238.359 Q1533.99 235.619 1536.43 233.722 Q1538.88 231.824 1542.49 231.824 Q1546.05 231.824 1548.68 233.698 Q1551.32 235.572 1551.32 238.453 Q1551.32 241.287 1549.45 243.606 Q1547.57 245.925 1544.6 246.885 Q1548.25 247.611 1550.43 250.094 Q1552.61 252.553 1552.61 255.575 Q1552.61 259.322 1549.66 262.086 Q1546.71 264.827 1542.4 264.827 Q1538.42 264.827 1535.56 262.672 Q1532.7 260.517 1532.7 257.308 Z" fill="#000000" fill-rule="nonzero" fill-opacity="1" /><path clip-path="url(#clip110)" d="M1556.64 256.043 Q1556.64 254.615 1557.42 254.076 Q1558.19 253.514 1559.01 253.514 Q1560.11 253.514 1560.74 254.216 Q1561.4 254.896 1561.4 255.856 Q1561.4 256.816 1560.74 257.519 Q1560.11 258.198 1559.01 258.198 Q1558.47 258.198 1558.19 258.104 Q1558.82 260.306 1560.74 261.899 Q1562.69 263.492 1565.24 263.492 Q1568.45 263.492 1570.37 260.376 Q1571.52 258.362 1571.52 253.795 Q1571.52 249.766 1570.65 247.752 Q1569.31 244.683 1566.57 244.683 Q1562.69 244.683 1560.39 248.033 Q1560.11 248.454 1559.78 248.478 Q1559.31 248.478 1559.2 248.22 Q1559.1 247.939 1559.1 247.213 L1559.1 233.019 Q1559.1 231.871 1559.57 231.871 Q1559.76 231.871 1560.16 232.012 Q1563.18 233.347 1566.53 233.37 Q1569.97 233.37 1573.06 231.965 Q1573.3 231.824 1573.44 231.824 Q1573.91 231.824 1573.93 232.363 Q1573.93 232.551 1573.53 233.113 Q1573.16 233.651 1572.34 234.378 Q1571.52 235.08 1570.46 235.759 Q1569.41 236.439 1567.86 236.907 Q1566.34 237.352 1564.65 237.352 Q1562.64 237.352 1560.58 236.72 L1560.58 246.065 Q1563.06 243.629 1566.67 243.629 Q1570.51 243.629 1573.16 246.721 Q1575.8 249.813 1575.8 254.123 Q1575.8 258.643 1572.66 261.735 Q1569.55 264.827 1565.33 264.827 Q1561.49 264.827 1559.06 262.086 Q1556.64 259.346 1556.64 256.043 Z" fill="#000000" fill-rule="nonzero" fill-opacity="1" /><path clip-path="url(#clip110)" d="M1580.59 248.618 Q1580.59 241.076 1584.43 236.462 Q1588.27 231.824 1593.21 231.824 Q1596.09 231.824 1597.68 233.3 Q1599.3 234.752 1599.3 237.001 Q1599.3 238.242 1598.57 238.781 Q1597.85 239.32 1597.1 239.32 Q1596.23 239.32 1595.55 238.734 Q1594.87 238.149 1594.87 237.095 Q1594.87 234.94 1597.52 234.94 Q1596.28 233.019 1593.3 233.019 Q1592.39 233.019 1591.45 233.3 Q1590.52 233.558 1589.3 234.448 Q1588.08 235.338 1587.14 236.743 Q1586.21 238.149 1585.55 240.795 Q1584.89 243.442 1584.89 246.885 L1584.89 248.033 Q1586.86 243.278 1590.89 243.301 Q1594.92 243.301 1597.71 246.37 Q1600.49 249.438 1600.49 253.982 Q1600.49 258.643 1597.59 261.735 Q1594.69 264.827 1590.61 264.827 Q1588.78 264.827 1587.12 264.054 Q1585.48 263.304 1583.93 261.571 Q1582.41 259.838 1581.5 256.512 Q1580.59 253.186 1580.59 248.618 M1584.99 252.928 Q1584.99 257.636 1585.86 259.885 Q1586 260.259 1586.3 260.775 Q1586.63 261.29 1587.17 261.969 Q1587.73 262.625 1588.64 263.07 Q1589.56 263.492 1590.61 263.492 Q1593.82 263.492 1595.36 260.376 Q1596.18 258.643 1596.18 253.935 Q1596.18 249.134 1595.32 247.377 Q1593.84 244.402 1590.84 244.402 Q1588.83 244.402 1587.42 245.784 Q1586.04 247.166 1585.5 249.017 Q1584.99 250.867 1584.99 252.928 Z" fill="#000000" fill-rule="nonzero" fill-opacity="1" /><path clip-path="url(#clip110)" d="M1604.53 256.043 Q1604.53 254.615 1605.3 254.076 Q1606.07 253.514 1606.89 253.514 Q1607.99 253.514 1608.63 254.216 Q1609.28 254.896 1609.28 255.856 Q1609.28 256.816 1608.63 257.519 Q1607.99 258.198 1606.89 258.198 Q1606.35 258.198 1606.07 258.104 Q1606.71 260.306 1608.63 261.899 Q1610.57 263.492 1613.12 263.492 Q1616.33 263.492 1618.25 260.376 Q1619.4 258.362 1619.4 253.795 Q1619.4 249.766 1618.53 247.752 Q1617.2 244.683 1614.46 244.683 Q1610.57 244.683 1608.27 248.033 Q1607.99 248.454 1607.67 248.478 Q1607.2 248.478 1607.08 248.22 Q1606.99 247.939 1606.99 247.213 L1606.99 233.019 Q1606.99 231.871 1607.45 231.871 Q1607.64 231.871 1608.04 232.012 Q1611.06 233.347 1614.41 233.37 Q1617.85 233.37 1620.95 231.965 Q1621.18 231.824 1621.32 231.824 Q1621.79 231.824 1621.81 232.363 Q1621.81 232.551 1621.41 233.113 Q1621.04 233.651 1620.22 234.378 Q1619.4 235.08 1618.35 235.759 Q1617.29 236.439 1615.75 236.907 Q1614.22 237.352 1612.54 237.352 Q1610.52 237.352 1608.46 236.72 L1608.46 246.065 Q1610.94 243.629 1614.55 243.629 Q1618.39 243.629 1621.04 246.721 Q1623.69 249.813 1623.69 254.123 Q1623.69 258.643 1620.55 261.735 Q1617.43 264.827 1613.22 264.827 Q1609.38 264.827 1606.94 262.086 Q1604.53 259.346 1604.53 256.043 Z" fill="#000000" fill-rule="nonzero" fill-opacity="1" /><path clip-path="url(#clip110)" d="M1628.47 256.043 Q1628.47 254.615 1629.24 254.076 Q1630.01 253.514 1630.83 253.514 Q1631.94 253.514 1632.57 254.216 Q1633.22 254.896 1633.22 255.856 Q1633.22 256.816 1632.57 257.519 Q1631.94 258.198 1630.83 258.198 Q1630.3 258.198 1630.01 258.104 Q1630.65 260.306 1632.57 261.899 Q1634.51 263.492 1637.07 263.492 Q1640.27 263.492 1642.19 260.376 Q1643.34 258.362 1643.34 253.795 Q1643.34 249.766 1642.48 247.752 Q1641.14 244.683 1638.4 244.683 Q1634.51 244.683 1632.22 248.033 Q1631.94 248.454 1631.61 248.478 Q1631.14 248.478 1631.02 248.22 Q1630.93 247.939 1630.93 247.213 L1630.93 233.019 Q1630.93 231.871 1631.4 231.871 Q1631.58 231.871 1631.98 232.012 Q1635 233.347 1638.35 233.37 Q1641.8 233.37 1644.89 231.965 Q1645.12 231.824 1645.26 231.824 Q1645.73 231.824 1645.75 232.363 Q1645.75 232.551 1645.36 233.113 Q1644.98 233.651 1644.16 234.378 Q1643.34 235.08 1642.29 235.759 Q1641.23 236.439 1639.69 236.907 Q1638.17 237.352 1636.48 237.352 Q1634.47 237.352 1632.4 236.72 L1632.4 246.065 Q1634.89 243.629 1638.49 243.629 Q1642.34 243.629 1644.98 246.721 Q1647.63 249.813 1647.63 254.123 Q1647.63 258.643 1644.49 261.735 Q1641.37 264.827 1637.16 264.827 Q1633.32 264.827 1630.88 262.086 Q1628.47 259.346 1628.47 256.043 Z" fill="#000000" fill-rule="nonzero" fill-opacity="1" /><path clip-path="url(#clip110)" d="M1652.41 256.043 Q1652.41 254.615 1653.18 254.076 Q1653.96 253.514 1654.78 253.514 Q1655.88 253.514 1656.51 254.216 Q1657.17 254.896 1657.17 255.856 Q1657.17 256.816 1656.51 257.519 Q1655.88 258.198 1654.78 258.198 Q1654.24 258.198 1653.96 258.104 Q1654.59 260.306 1656.51 261.899 Q1658.45 263.492 1661.01 263.492 Q1664.22 263.492 1666.14 260.376 Q1667.28 258.362 1667.28 253.795 Q1667.28 249.766 1666.42 247.752 Q1665.08 244.683 1662.34 244.683 Q1658.45 244.683 1656.16 248.033 Q1655.88 248.454 1655.55 248.478 Q1655.08 248.478 1654.96 248.22 Q1654.87 247.939 1654.87 247.213 L1654.87 233.019 Q1654.87 231.871 1655.34 231.871 Q1655.53 231.871 1655.92 232.012 Q1658.95 233.347 1662.3 233.37 Q1665.74 233.37 1668.83 231.965 Q1669.06 231.824 1669.2 231.824 Q1669.67 231.824 1669.7 232.363 Q1669.7 232.551 1669.3 233.113 Q1668.92 233.651 1668.1 234.378 Q1667.28 235.08 1666.23 235.759 Q1665.18 236.439 1663.63 236.907 Q1662.11 237.352 1660.42 237.352 Q1658.41 237.352 1656.35 236.72 L1656.35 246.065 Q1658.83 243.629 1662.44 243.629 Q1666.28 243.629 1668.92 246.721 Q1671.57 249.813 1671.57 254.123 Q1671.57 258.643 1668.43 261.735 Q1665.32 264.827 1661.1 264.827 Q1657.26 264.827 1654.82 262.086 Q1652.41 259.346 1652.41 256.043 Z" fill="#000000" fill-rule="nonzero" fill-opacity="1" /><path clip-path="url(#clip110)" d="M1676.35 242.622 Q1676.35 240.069 1677.1 238.336 Q1677.85 236.579 1679.42 234.846 Q1682.3 231.824 1686.47 231.824 Q1688.25 231.824 1689.82 232.574 Q1691.41 233.324 1692.91 235.033 Q1694.44 236.72 1695.35 240.069 Q1696.26 243.395 1696.26 247.986 Q1696.26 255.411 1692.66 260.119 Q1689.07 264.827 1684.22 264.827 Q1681.15 264.827 1679.35 263.445 Q1677.55 262.039 1677.55 259.65 Q1677.55 258.409 1678.25 257.894 Q1678.95 257.355 1679.75 257.355 Q1680.62 257.355 1681.3 257.94 Q1681.97 258.503 1681.97 259.557 Q1681.97 260.423 1681.41 261.103 Q1680.87 261.758 1679.47 261.758 Q1680.85 263.492 1684.18 263.492 Q1685.37 263.492 1686.57 262.953 Q1687.76 262.391 1689.05 261.056 Q1690.36 259.697 1691.16 256.863 Q1691.95 254.029 1691.95 250.047 L1691.95 248.525 Q1690.03 253.326 1685.96 253.326 Q1681.93 253.326 1679.14 250.235 Q1676.35 247.143 1676.35 242.622 M1680.66 242.669 Q1680.66 247.424 1681.53 249.18 Q1683.01 252.202 1686 252.202 Q1688.93 252.202 1690.38 249.602 Q1691.86 246.979 1691.86 243.583 Q1691.86 238.875 1691.09 236.813 Q1689.66 233.019 1686.47 233.019 Q1683.31 233.019 1681.67 236.041 Q1680.66 237.821 1680.66 242.669 Z" fill="#000000" fill-rule="nonzero" fill-opacity="1" /><path clip-path="url(#clip110)" d="M1700.3 242.622 Q1700.3 240.069 1701.04 238.336 Q1701.79 236.579 1703.36 234.846 Q1706.24 231.824 1710.41 231.824 Q1712.19 231.824 1713.76 232.574 Q1715.36 233.324 1716.85 235.033 Q1718.38 236.72 1719.29 240.069 Q1720.2 243.395 1720.2 247.986 Q1720.2 255.411 1716.6 260.119 Q1713.01 264.827 1708.17 264.827 Q1705.1 264.827 1703.29 263.445 Q1701.49 262.039 1701.49 259.65 Q1701.49 258.409 1702.19 257.894 Q1702.89 257.355 1703.69 257.355 Q1704.56 257.355 1705.24 257.94 Q1705.92 258.503 1705.92 259.557 Q1705.92 260.423 1705.35 261.103 Q1704.82 261.758 1703.41 261.758 Q1704.79 263.492 1708.12 263.492 Q1709.31 263.492 1710.51 262.953 Q1711.7 262.391 1712.99 261.056 Q1714.3 259.697 1715.1 256.863 Q1715.89 254.029 1715.89 250.047 L1715.89 248.525 Q1713.97 253.326 1709.9 253.326 Q1705.87 253.326 1703.08 250.235 Q1700.3 247.143 1700.3 242.622 M1704.6 242.669 Q1704.6 247.424 1705.47 249.18 Q1706.95 252.202 1709.95 252.202 Q1712.87 252.202 1714.33 249.602 Q1715.8 246.979 1715.8 243.583 Q1715.8 238.875 1715.03 236.813 Q1713.6 233.019 1710.41 233.019 Q1707.25 233.019 1705.61 236.041 Q1704.6 237.821 1704.6 242.669 Z" fill="#000000" fill-rule="nonzero" fill-opacity="1" /><path clip-path="url(#clip110)" d="M1724.24 263.773 Q1724.24 262.906 1724.31 262.648 Q1724.4 262.391 1724.78 261.993 L1733.98 251.734 Q1739.02 246.065 1739.02 241.123 Q1739.02 237.914 1737.33 235.619 Q1735.67 233.324 1732.6 233.324 Q1730.49 233.324 1728.71 234.612 Q1726.93 235.9 1726.11 238.195 Q1726.25 238.149 1726.74 238.149 Q1727.94 238.149 1728.59 238.898 Q1729.27 239.648 1729.27 240.655 Q1729.27 241.943 1728.43 242.575 Q1727.61 243.184 1726.79 243.184 Q1726.46 243.184 1726.02 243.114 Q1725.6 243.044 1724.92 242.388 Q1724.24 241.709 1724.24 240.514 Q1724.24 237.165 1726.77 234.495 Q1729.32 231.824 1733.21 231.824 Q1737.61 231.824 1740.49 234.448 Q1743.4 237.048 1743.4 241.123 Q1743.4 242.552 1742.95 243.864 Q1742.53 245.152 1741.94 246.159 Q1741.38 247.166 1739.84 248.782 Q1738.29 250.398 1737.05 251.546 Q1735.81 252.694 1733.02 255.13 L1727.94 260.072 L1736.58 260.072 Q1740.8 260.072 1741.12 259.697 Q1741.59 259.018 1742.18 255.434 L1743.4 255.434 L1742.04 263.773 L1724.24 263.773 Z" fill="#000000" fill-rule="nonzero" fill-opacity="1" /><path clip-path="url(#clip110)" d="M1748.18 263.773 Q1748.18 262.906 1748.25 262.648 Q1748.34 262.391 1748.72 261.993 L1757.92 251.734 Q1762.96 246.065 1762.96 241.123 Q1762.96 237.914 1761.27 235.619 Q1759.61 233.324 1756.54 233.324 Q1754.43 233.324 1752.65 234.612 Q1750.87 235.9 1750.05 238.195 Q1750.19 238.149 1750.69 238.149 Q1751.88 238.149 1752.54 238.898 Q1753.21 239.648 1753.21 240.655 Q1753.21 241.943 1752.37 242.575 Q1751.55 243.184 1750.73 243.184 Q1750.4 243.184 1749.96 243.114 Q1749.54 243.044 1748.86 242.388 Q1748.18 241.709 1748.18 240.514 Q1748.18 237.165 1750.71 234.495 Q1753.26 231.824 1757.15 231.824 Q1761.55 231.824 1764.43 234.448 Q1767.34 237.048 1767.34 241.123 Q1767.34 242.552 1766.89 243.864 Q1766.47 245.152 1765.89 246.159 Q1765.32 247.166 1763.78 248.782 Q1762.23 250.398 1760.99 251.546 Q1759.75 252.694 1756.96 255.13 L1751.88 260.072 L1760.52 260.072 Q1764.74 260.072 1765.07 259.697 Q1765.54 259.018 1766.12 255.434 L1767.34 255.434 L1765.98 263.773 L1748.18 263.773 Z" fill="#000000" fill-rule="nonzero" fill-opacity="1" /><path clip-path="url(#clip110)" d="M1771.1 236.392 L1771.1 234.893 Q1776.86 234.893 1779.84 231.824 Q1780.66 231.824 1780.8 232.012 Q1780.94 232.199 1780.94 233.066 L1780.94 259.978 Q1780.94 261.407 1781.64 261.852 Q1782.34 262.297 1785.41 262.297 L1786.93 262.297 L1786.93 263.773 Q1785.25 263.632 1779.16 263.632 Q1773.07 263.632 1771.4 263.773 L1771.4 262.297 L1772.93 262.297 Q1775.95 262.297 1776.67 261.875 Q1777.4 261.43 1777.4 259.978 L1777.4 235.127 Q1774.89 236.392 1771.1 236.392 Z" fill="#000000" fill-rule="nonzero" fill-opacity="1" /><path clip-path="url(#clip110)" d="M1791.44 263.773 Q1791.44 262.906 1791.51 262.648 Q1791.6 262.391 1791.98 261.993 L1801.18 251.734 Q1806.22 246.065 1806.22 241.123 Q1806.22 237.914 1804.53 235.619 Q1802.87 233.324 1799.8 233.324 Q1797.69 233.324 1795.91 234.612 Q1794.13 235.9 1793.31 238.195 Q1793.45 238.149 1793.94 238.149 Q1795.14 238.149 1795.79 238.898 Q1796.47 239.648 1796.47 240.655 Q1796.47 241.943 1795.63 242.575 Q1794.81 243.184 1793.99 243.184 Q1793.66 243.184 1793.22 243.114 Q1792.8 243.044 1792.12 242.388 Q1791.44 241.709 1791.44 240.514 Q1791.44 237.165 1793.97 234.495 Q1796.52 231.824 1800.41 231.824 Q1804.81 231.824 1807.69 234.448 Q1810.6 237.048 1810.6 241.123 Q1810.6 242.552 1810.15 243.864 Q1809.73 245.152 1809.15 246.159 Q1808.58 247.166 1807.04 248.782 Q1805.49 250.398 1804.25 251.546 Q1803.01 252.694 1800.22 255.13 L1795.14 260.072 L1803.78 260.072 Q1808 260.072 1808.33 259.697 Q1808.79 259.018 1809.38 255.434 L1810.6 255.434 L1809.24 263.773 L1791.44 263.773 Z" fill="#000000" fill-rule="nonzero" fill-opacity="1" /><path clip-path="url(#clip110)" d="M1815.38 256.043 Q1815.38 254.615 1816.15 254.076 Q1816.93 253.514 1817.75 253.514 Q1818.85 253.514 1819.48 254.216 Q1820.13 254.896 1820.13 255.856 Q1820.13 256.816 1819.48 257.519 Q1818.85 258.198 1817.75 258.198 Q1817.21 258.198 1816.93 258.104 Q1817.56 260.306 1819.48 261.899 Q1821.42 263.492 1823.98 263.492 Q1827.18 263.492 1829.11 260.376 Q1830.25 258.362 1830.25 253.795 Q1830.25 249.766 1829.39 247.752 Q1828.05 244.683 1825.31 244.683 Q1821.42 244.683 1819.13 248.033 Q1818.85 248.454 1818.52 248.478 Q1818.05 248.478 1817.93 248.22 Q1817.84 247.939 1817.84 247.213 L1817.84 233.019 Q1817.84 231.871 1818.31 231.871 Q1818.5 231.871 1818.89 232.012 Q1821.91 233.347 1825.26 233.37 Q1828.71 233.37 1831.8 231.965 Q1832.03 231.824 1832.17 231.824 Q1832.64 231.824 1832.67 232.363 Q1832.67 232.551 1832.27 233.113 Q1831.89 233.651 1831.07 234.378 Q1830.25 235.08 1829.2 235.759 Q1828.15 236.439 1826.6 236.907 Q1825.08 237.352 1823.39 237.352 Q1821.38 237.352 1819.32 236.72 L1819.32 246.065 Q1821.8 243.629 1825.4 243.629 Q1829.25 243.629 1831.89 246.721 Q1834.54 249.813 1834.54 254.123 Q1834.54 258.643 1831.4 261.735 Q1828.29 264.827 1824.07 264.827 Q1820.23 264.827 1817.79 262.086 Q1815.38 259.346 1815.38 256.043 Z" fill="#000000" fill-rule="nonzero" fill-opacity="1" /></svg>
