<?xml version="1.0" encoding="utf-8"?>
<svg xmlns="http://www.w3.org/2000/svg" xmlns:xlink="http://www.w3.org/1999/xlink" width="600" height="400" viewBox="0 0 2400 1600">
<defs>
  <clipPath id="clip040">
    <rect x="0" y="0" width="2400" height="1600"/>
  </clipPath>
</defs>
<path clip-path="url(#clip040)" d="M0 1600 L2400 1600 L2400 0 L0 0  Z" fill="#ffffff" fill-rule="evenodd" fill-opacity="1"/>
<defs>
  <clipPath id="clip041">
    <rect x="480" y="0" width="1681" height="1600"/>
  </clipPath>
</defs>
<defs>
  <clipPath id="clip042">
    <rect x="234" y="47" width="2120" height="1377"/>
  </clipPath>
</defs>
<path clip-path="url(#clip040)" d="M339.627 1423.18 L2352.76 1423.18 L2352.76 47.2441 L339.627 47.2441  Z" fill="#ffffff" fill-rule="evenodd" fill-opacity="1"/>
<defs>
  <clipPath id="clip043">
    <rect x="339" y="47" width="2014" height="1377"/>
  </clipPath>
</defs>
<polyline clip-path="url(#clip043)" style="stroke:#000000; stroke-linecap:round; stroke-linejoin:round; stroke-width:2; stroke-opacity:0.1; fill:none" points="396.602,1423.18 396.602,47.2441 "/>
<polyline clip-path="url(#clip043)" style="stroke:#000000; stroke-linecap:round; stroke-linejoin:round; stroke-width:2; stroke-opacity:0.1; fill:none" points="713.132,1423.18 713.132,47.2441 "/>
<polyline clip-path="url(#clip043)" style="stroke:#000000; stroke-linecap:round; stroke-linejoin:round; stroke-width:2; stroke-opacity:0.1; fill:none" points="1029.66,1423.18 1029.66,47.2441 "/>
<polyline clip-path="url(#clip043)" style="stroke:#000000; stroke-linecap:round; stroke-linejoin:round; stroke-width:2; stroke-opacity:0.1; fill:none" points="1346.19,1423.18 1346.19,47.2441 "/>
<polyline clip-path="url(#clip043)" style="stroke:#000000; stroke-linecap:round; stroke-linejoin:round; stroke-width:2; stroke-opacity:0.1; fill:none" points="1662.72,1423.18 1662.72,47.2441 "/>
<polyline clip-path="url(#clip043)" style="stroke:#000000; stroke-linecap:round; stroke-linejoin:round; stroke-width:2; stroke-opacity:0.1; fill:none" points="1979.25,1423.18 1979.25,47.2441 "/>
<polyline clip-path="url(#clip043)" style="stroke:#000000; stroke-linecap:round; stroke-linejoin:round; stroke-width:2; stroke-opacity:0.1; fill:none" points="2295.78,1423.18 2295.78,47.2441 "/>
<polyline clip-path="url(#clip040)" style="stroke:#000000; stroke-linecap:round; stroke-linejoin:round; stroke-width:4; stroke-opacity:1; fill:none" points="339.627,1423.18 2352.76,1423.18 "/>
<polyline clip-path="url(#clip040)" style="stroke:#000000; stroke-linecap:round; stroke-linejoin:round; stroke-width:4; stroke-opacity:1; fill:none" points="396.602,1423.18 396.602,1404.28 "/>
<polyline clip-path="url(#clip040)" style="stroke:#000000; stroke-linecap:round; stroke-linejoin:round; stroke-width:4; stroke-opacity:1; fill:none" points="713.132,1423.18 713.132,1404.28 "/>
<polyline clip-path="url(#clip040)" style="stroke:#000000; stroke-linecap:round; stroke-linejoin:round; stroke-width:4; stroke-opacity:1; fill:none" points="1029.66,1423.18 1029.66,1404.28 "/>
<polyline clip-path="url(#clip040)" style="stroke:#000000; stroke-linecap:round; stroke-linejoin:round; stroke-width:4; stroke-opacity:1; fill:none" points="1346.19,1423.18 1346.19,1404.28 "/>
<polyline clip-path="url(#clip040)" style="stroke:#000000; stroke-linecap:round; stroke-linejoin:round; stroke-width:4; stroke-opacity:1; fill:none" points="1662.72,1423.18 1662.72,1404.28 "/>
<polyline clip-path="url(#clip040)" style="stroke:#000000; stroke-linecap:round; stroke-linejoin:round; stroke-width:4; stroke-opacity:1; fill:none" points="1979.25,1423.18 1979.25,1404.28 "/>
<polyline clip-path="url(#clip040)" style="stroke:#000000; stroke-linecap:round; stroke-linejoin:round; stroke-width:4; stroke-opacity:1; fill:none" points="2295.78,1423.18 2295.78,1404.28 "/>
<path clip-path="url(#clip040)" d="M385.202 1466.95 Q388.558 1467.66 390.433 1469.93 Q392.331 1472.2 392.331 1475.53 Q392.331 1480.65 388.813 1483.45 Q385.294 1486.25 378.813 1486.25 Q376.637 1486.25 374.322 1485.81 Q372.031 1485.39 369.577 1484.54 L369.577 1480.02 Q371.521 1481.16 373.836 1481.74 Q376.151 1482.32 378.674 1482.32 Q383.072 1482.32 385.364 1480.58 Q387.679 1478.84 387.679 1475.53 Q387.679 1472.48 385.526 1470.77 Q383.396 1469.03 379.577 1469.03 L375.549 1469.03 L375.549 1465.19 L379.762 1465.19 Q383.211 1465.19 385.04 1463.82 Q386.869 1462.43 386.869 1459.84 Q386.869 1457.18 384.97 1455.77 Q383.095 1454.33 379.577 1454.33 Q377.656 1454.33 375.457 1454.75 Q373.257 1455.16 370.619 1456.04 L370.619 1451.88 Q373.281 1451.14 375.595 1450.77 Q377.933 1450.39 379.994 1450.39 Q385.318 1450.39 388.419 1452.83 Q391.521 1455.23 391.521 1459.35 Q391.521 1462.22 389.878 1464.21 Q388.234 1466.18 385.202 1466.95 Z" fill="#000000" fill-rule="nonzero" fill-opacity="1" /><path clip-path="url(#clip040)" d="M414.044 1455.09 L402.239 1473.54 L414.044 1473.54 L414.044 1455.09 M412.817 1451.02 L418.697 1451.02 L418.697 1473.54 L423.628 1473.54 L423.628 1477.43 L418.697 1477.43 L418.697 1485.58 L414.044 1485.58 L414.044 1477.43 L398.443 1477.43 L398.443 1472.92 L412.817 1451.02 Z" fill="#000000" fill-rule="nonzero" fill-opacity="1" /><path clip-path="url(#clip040)" d="M702.472 1466.95 Q705.829 1467.66 707.704 1469.93 Q709.602 1472.2 709.602 1475.53 Q709.602 1480.65 706.083 1483.45 Q702.565 1486.25 696.083 1486.25 Q693.908 1486.25 691.593 1485.81 Q689.301 1485.39 686.847 1484.54 L686.847 1480.02 Q688.792 1481.16 691.107 1481.74 Q693.421 1482.32 695.945 1482.32 Q700.343 1482.32 702.634 1480.58 Q704.949 1478.84 704.949 1475.53 Q704.949 1472.48 702.796 1470.77 Q700.667 1469.03 696.847 1469.03 L692.82 1469.03 L692.82 1465.19 L697.033 1465.19 Q700.482 1465.19 702.31 1463.82 Q704.139 1462.43 704.139 1459.84 Q704.139 1457.18 702.241 1455.77 Q700.366 1454.33 696.847 1454.33 Q694.926 1454.33 692.727 1454.75 Q690.528 1455.16 687.889 1456.04 L687.889 1451.88 Q690.551 1451.14 692.866 1450.77 Q695.204 1450.39 697.264 1450.39 Q702.588 1450.39 705.69 1452.83 Q708.792 1455.23 708.792 1459.35 Q708.792 1462.22 707.148 1464.21 Q705.505 1466.18 702.472 1466.95 Z" fill="#000000" fill-rule="nonzero" fill-opacity="1" /><path clip-path="url(#clip040)" d="M718.514 1451.02 L736.87 1451.02 L736.87 1454.96 L722.796 1454.96 L722.796 1463.43 Q723.815 1463.08 724.833 1462.92 Q725.852 1462.73 726.87 1462.73 Q732.657 1462.73 736.037 1465.9 Q739.417 1469.08 739.417 1474.49 Q739.417 1480.07 735.944 1483.17 Q732.472 1486.25 726.153 1486.25 Q723.977 1486.25 721.708 1485.88 Q719.463 1485.51 717.056 1484.77 L717.056 1480.07 Q719.139 1481.2 721.361 1481.76 Q723.583 1482.32 726.06 1482.32 Q730.065 1482.32 732.403 1480.21 Q734.741 1478.1 734.741 1474.49 Q734.741 1470.88 732.403 1468.77 Q730.065 1466.67 726.06 1466.67 Q724.185 1466.67 722.31 1467.08 Q720.458 1467.5 718.514 1468.38 L718.514 1451.02 Z" fill="#000000" fill-rule="nonzero" fill-opacity="1" /><path clip-path="url(#clip040)" d="M1018.42 1466.95 Q1021.78 1467.66 1023.65 1469.93 Q1025.55 1472.2 1025.55 1475.53 Q1025.55 1480.65 1022.03 1483.45 Q1018.52 1486.25 1012.03 1486.25 Q1009.86 1486.25 1007.54 1485.81 Q1005.25 1485.39 1002.8 1484.54 L1002.8 1480.02 Q1004.74 1481.16 1007.06 1481.74 Q1009.37 1482.32 1011.9 1482.32 Q1016.29 1482.32 1018.59 1480.58 Q1020.9 1478.84 1020.9 1475.53 Q1020.9 1472.48 1018.75 1470.77 Q1016.62 1469.03 1012.8 1469.03 L1008.77 1469.03 L1008.77 1465.19 L1012.98 1465.19 Q1016.43 1465.19 1018.26 1463.82 Q1020.09 1462.43 1020.09 1459.84 Q1020.09 1457.18 1018.19 1455.77 Q1016.32 1454.33 1012.8 1454.33 Q1010.88 1454.33 1008.68 1454.75 Q1006.48 1455.16 1003.84 1456.04 L1003.84 1451.88 Q1006.5 1451.14 1008.82 1450.77 Q1011.15 1450.39 1013.22 1450.39 Q1018.54 1450.39 1021.64 1452.83 Q1024.74 1455.23 1024.74 1459.35 Q1024.74 1462.22 1023.1 1464.21 Q1021.46 1466.18 1018.42 1466.95 Z" fill="#000000" fill-rule="nonzero" fill-opacity="1" /><path clip-path="url(#clip040)" d="M1045 1466.44 Q1041.85 1466.44 1040 1468.59 Q1038.17 1470.74 1038.17 1474.49 Q1038.17 1478.22 1040 1480.39 Q1041.85 1482.55 1045 1482.55 Q1048.15 1482.55 1049.97 1480.39 Q1051.83 1478.22 1051.83 1474.49 Q1051.83 1470.74 1049.97 1468.59 Q1048.15 1466.44 1045 1466.44 M1054.28 1451.78 L1054.28 1456.04 Q1052.52 1455.21 1050.71 1454.77 Q1048.93 1454.33 1047.17 1454.33 Q1042.54 1454.33 1040.09 1457.45 Q1037.66 1460.58 1037.31 1466.9 Q1038.68 1464.89 1040.74 1463.82 Q1042.8 1462.73 1045.28 1462.73 Q1050.48 1462.73 1053.49 1465.9 Q1056.52 1469.05 1056.52 1474.49 Q1056.52 1479.82 1053.38 1483.03 Q1050.23 1486.25 1045 1486.25 Q1039 1486.25 1035.83 1481.67 Q1032.66 1477.06 1032.66 1468.33 Q1032.66 1460.14 1036.55 1455.28 Q1040.44 1450.39 1046.99 1450.39 Q1048.75 1450.39 1050.53 1450.74 Q1052.34 1451.09 1054.28 1451.78 Z" fill="#000000" fill-rule="nonzero" fill-opacity="1" /><path clip-path="url(#clip040)" d="M1335.49 1466.95 Q1338.84 1467.66 1340.72 1469.93 Q1342.62 1472.2 1342.62 1475.53 Q1342.62 1480.65 1339.1 1483.45 Q1335.58 1486.25 1329.1 1486.25 Q1326.92 1486.25 1324.61 1485.81 Q1322.31 1485.39 1319.86 1484.54 L1319.86 1480.02 Q1321.8 1481.16 1324.12 1481.74 Q1326.43 1482.32 1328.96 1482.32 Q1333.36 1482.32 1335.65 1480.58 Q1337.96 1478.84 1337.96 1475.53 Q1337.96 1472.48 1335.81 1470.77 Q1333.68 1469.03 1329.86 1469.03 L1325.83 1469.03 L1325.83 1465.19 L1330.05 1465.19 Q1333.49 1465.19 1335.32 1463.82 Q1337.15 1462.43 1337.15 1459.84 Q1337.15 1457.18 1335.25 1455.77 Q1333.38 1454.33 1329.86 1454.33 Q1327.94 1454.33 1325.74 1454.75 Q1323.54 1455.16 1320.9 1456.04 L1320.9 1451.88 Q1323.56 1451.14 1325.88 1450.77 Q1328.22 1450.39 1330.28 1450.39 Q1335.6 1450.39 1338.7 1452.83 Q1341.8 1455.23 1341.8 1459.35 Q1341.8 1462.22 1340.16 1464.21 Q1338.52 1466.18 1335.49 1466.95 Z" fill="#000000" fill-rule="nonzero" fill-opacity="1" /><path clip-path="url(#clip040)" d="M1350.3 1451.02 L1372.52 1451.02 L1372.52 1453.01 L1359.98 1485.58 L1355.09 1485.58 L1366.9 1454.96 L1350.3 1454.96 L1350.3 1451.02 Z" fill="#000000" fill-rule="nonzero" fill-opacity="1" /><path clip-path="url(#clip040)" d="M1651.61 1466.95 Q1654.97 1467.66 1656.84 1469.93 Q1658.74 1472.2 1658.74 1475.53 Q1658.74 1480.65 1655.22 1483.45 Q1651.7 1486.25 1645.22 1486.25 Q1643.05 1486.25 1640.73 1485.81 Q1638.44 1485.39 1635.99 1484.54 L1635.99 1480.02 Q1637.93 1481.16 1640.24 1481.74 Q1642.56 1482.32 1645.08 1482.32 Q1649.48 1482.32 1651.77 1480.58 Q1654.09 1478.84 1654.09 1475.53 Q1654.09 1472.48 1651.93 1470.77 Q1649.8 1469.03 1645.99 1469.03 L1641.96 1469.03 L1641.96 1465.19 L1646.17 1465.19 Q1649.62 1465.19 1651.45 1463.82 Q1653.28 1462.43 1653.28 1459.84 Q1653.28 1457.18 1651.38 1455.77 Q1649.5 1454.33 1645.99 1454.33 Q1644.06 1454.33 1641.86 1454.75 Q1639.67 1455.16 1637.03 1456.04 L1637.03 1451.88 Q1639.69 1451.14 1642 1450.77 Q1644.34 1450.39 1646.4 1450.39 Q1651.73 1450.39 1654.83 1452.83 Q1657.93 1455.23 1657.93 1459.35 Q1657.93 1462.22 1656.29 1464.21 Q1654.64 1466.18 1651.61 1466.95 Z" fill="#000000" fill-rule="nonzero" fill-opacity="1" /><path clip-path="url(#clip040)" d="M1677.61 1469.17 Q1674.27 1469.17 1672.35 1470.95 Q1670.45 1472.73 1670.45 1475.86 Q1670.45 1478.98 1672.35 1480.77 Q1674.27 1482.55 1677.61 1482.55 Q1680.94 1482.55 1682.86 1480.77 Q1684.78 1478.96 1684.78 1475.86 Q1684.78 1472.73 1682.86 1470.95 Q1680.96 1469.17 1677.61 1469.17 M1672.93 1467.18 Q1669.92 1466.44 1668.23 1464.38 Q1666.56 1462.32 1666.56 1459.35 Q1666.56 1455.21 1669.5 1452.8 Q1672.47 1450.39 1677.61 1450.39 Q1682.77 1450.39 1685.71 1452.8 Q1688.65 1455.21 1688.65 1459.35 Q1688.65 1462.32 1686.96 1464.38 Q1685.29 1466.44 1682.3 1467.18 Q1685.68 1467.96 1687.56 1470.26 Q1689.46 1472.55 1689.46 1475.86 Q1689.46 1480.88 1686.38 1483.57 Q1683.32 1486.25 1677.61 1486.25 Q1671.89 1486.25 1668.81 1483.57 Q1665.75 1480.88 1665.75 1475.86 Q1665.75 1472.55 1667.65 1470.26 Q1669.55 1467.96 1672.93 1467.18 M1671.22 1459.79 Q1671.22 1462.48 1672.88 1463.98 Q1674.57 1465.49 1677.61 1465.49 Q1680.61 1465.49 1682.3 1463.98 Q1684.02 1462.48 1684.02 1459.79 Q1684.02 1457.11 1682.3 1455.6 Q1680.61 1454.1 1677.61 1454.1 Q1674.57 1454.1 1672.88 1455.6 Q1671.22 1457.11 1671.22 1459.79 Z" fill="#000000" fill-rule="nonzero" fill-opacity="1" /><path clip-path="url(#clip040)" d="M1968.19 1466.95 Q1971.54 1467.66 1973.42 1469.93 Q1975.32 1472.2 1975.32 1475.53 Q1975.32 1480.65 1971.8 1483.45 Q1968.28 1486.25 1961.8 1486.25 Q1959.62 1486.25 1957.31 1485.81 Q1955.01 1485.39 1952.56 1484.54 L1952.56 1480.02 Q1954.51 1481.16 1956.82 1481.74 Q1959.14 1482.32 1961.66 1482.32 Q1966.06 1482.32 1968.35 1480.58 Q1970.66 1478.84 1970.66 1475.53 Q1970.66 1472.48 1968.51 1470.77 Q1966.38 1469.03 1962.56 1469.03 L1958.53 1469.03 L1958.53 1465.19 L1962.75 1465.19 Q1966.2 1465.19 1968.02 1463.82 Q1969.85 1462.43 1969.85 1459.84 Q1969.85 1457.18 1967.95 1455.77 Q1966.08 1454.33 1962.56 1454.33 Q1960.64 1454.33 1958.44 1454.75 Q1956.24 1455.16 1953.6 1456.04 L1953.6 1451.88 Q1956.26 1451.14 1958.58 1450.77 Q1960.92 1450.39 1962.98 1450.39 Q1968.3 1450.39 1971.4 1452.83 Q1974.51 1455.23 1974.51 1459.35 Q1974.51 1462.22 1972.86 1464.21 Q1971.22 1466.18 1968.19 1466.95 Z" fill="#000000" fill-rule="nonzero" fill-opacity="1" /><path clip-path="url(#clip040)" d="M1984.32 1484.86 L1984.32 1480.6 Q1986.08 1481.44 1987.89 1481.88 Q1989.69 1482.32 1991.43 1482.32 Q1996.06 1482.32 1998.49 1479.21 Q2000.94 1476.09 2001.29 1469.75 Q1999.95 1471.74 1997.88 1472.8 Q1995.82 1473.87 1993.32 1473.87 Q1988.14 1473.87 1985.11 1470.74 Q1982.1 1467.59 1982.1 1462.15 Q1982.1 1456.83 1985.25 1453.61 Q1988.39 1450.39 1993.63 1450.39 Q1999.62 1450.39 2002.77 1455 Q2005.94 1459.58 2005.94 1468.33 Q2005.94 1476.51 2002.05 1481.39 Q1998.19 1486.25 1991.64 1486.25 Q1989.88 1486.25 1988.07 1485.9 Q1986.26 1485.56 1984.32 1484.86 M1993.63 1470.21 Q1996.77 1470.21 1998.6 1468.06 Q2000.45 1465.9 2000.45 1462.15 Q2000.45 1458.43 1998.6 1456.27 Q1996.77 1454.1 1993.63 1454.1 Q1990.48 1454.1 1988.63 1456.27 Q1986.8 1458.43 1986.8 1462.15 Q1986.8 1465.9 1988.63 1468.06 Q1990.48 1470.21 1993.63 1470.21 Z" fill="#000000" fill-rule="nonzero" fill-opacity="1" /><path clip-path="url(#clip040)" d="M2283.95 1455.09 L2272.15 1473.54 L2283.95 1473.54 L2283.95 1455.09 M2282.73 1451.02 L2288.6 1451.02 L2288.6 1473.54 L2293.54 1473.54 L2293.54 1477.43 L2288.6 1477.43 L2288.6 1485.58 L2283.95 1485.58 L2283.95 1477.43 L2268.35 1477.43 L2268.35 1472.92 L2282.73 1451.02 Z" fill="#000000" fill-rule="nonzero" fill-opacity="1" /><path clip-path="url(#clip040)" d="M2311.27 1454.1 Q2307.66 1454.1 2305.83 1457.66 Q2304.02 1461.2 2304.02 1468.33 Q2304.02 1475.44 2305.83 1479.01 Q2307.66 1482.55 2311.27 1482.55 Q2314.9 1482.55 2316.71 1479.01 Q2318.54 1475.44 2318.54 1468.33 Q2318.54 1461.2 2316.71 1457.66 Q2314.9 1454.1 2311.27 1454.1 M2311.27 1450.39 Q2317.08 1450.39 2320.13 1455 Q2323.21 1459.58 2323.21 1468.33 Q2323.21 1477.06 2320.13 1481.67 Q2317.08 1486.25 2311.27 1486.25 Q2305.46 1486.25 2302.38 1481.67 Q2299.32 1477.06 2299.32 1468.33 Q2299.32 1459.58 2302.38 1455 Q2305.46 1450.39 2311.27 1450.39 Z" fill="#000000" fill-rule="nonzero" fill-opacity="1" /><path clip-path="url(#clip040)" d="M1245.6 1509.56 L1236.49 1546.24 Q1236.23 1547.4 1236.23 1547.69 Q1236.23 1548.08 1236.33 1548.24 Q1236.46 1548.43 1237.16 1548.6 Q1237.91 1548.76 1239.39 1548.76 Q1239.93 1548.76 1240.13 1548.76 Q1240.32 1548.76 1240.61 1548.82 Q1240.9 1548.89 1241 1549.05 Q1241.09 1549.21 1241.09 1549.47 Q1241.09 1550.79 1239.93 1550.79 Q1238.84 1550.79 1236.55 1550.69 Q1234.27 1550.59 1233.14 1550.59 Q1232.04 1550.59 1229.82 1550.69 Q1227.6 1550.79 1226.54 1550.79 Q1226.15 1550.79 1225.92 1550.59 Q1225.7 1550.43 1225.7 1550.24 L1225.67 1550.08 Q1225.67 1549.18 1226.02 1548.95 Q1226.38 1548.76 1227.18 1548.76 Q1229.95 1548.72 1230.76 1548.34 Q1231.56 1547.95 1231.95 1546.57 L1234.91 1534.78 Q1230.95 1538.74 1227.12 1538.74 Q1223.41 1538.74 1220.9 1535.84 Q1218.42 1532.91 1218.42 1528.18 Q1218.42 1524.67 1219.81 1521.12 Q1221.22 1517.58 1223.41 1514.91 Q1225.64 1512.24 1228.53 1510.56 Q1231.43 1508.85 1234.3 1508.85 Q1236.13 1508.85 1237.78 1509.92 Q1239.45 1510.98 1240.45 1513.46 Q1241.29 1512.04 1242.83 1510.5 Q1244.38 1508.92 1244.93 1508.92 Q1245.25 1508.92 1245.41 1509.14 Q1245.6 1509.34 1245.6 1509.56 M1239.52 1516.1 Q1239.52 1515.78 1239.26 1514.97 Q1239.03 1514.17 1238.52 1513.07 Q1238.03 1511.95 1236.91 1511.14 Q1235.78 1510.3 1234.3 1510.3 Q1232.17 1510.3 1229.89 1512.36 Q1227.63 1514.39 1226.15 1517.94 Q1225.22 1520.25 1224.15 1524.57 Q1223.09 1528.89 1223.09 1531.08 Q1223.09 1531.59 1223.12 1532.17 Q1223.19 1532.75 1223.45 1533.72 Q1223.7 1534.68 1224.09 1535.42 Q1224.51 1536.16 1225.35 1536.71 Q1226.18 1537.26 1227.31 1537.26 Q1229.76 1537.26 1232.21 1535.17 Q1234.65 1533.07 1235.68 1531.2 Q1235.81 1531.01 1237.65 1523.7 Q1239.52 1516.39 1239.52 1516.1 Z" fill="#000000" fill-rule="nonzero" fill-opacity="1" /><path clip-path="url(#clip040)" d="M1252.38 1554.17 Q1252.38 1547.38 1254.1 1543.68 Q1256.49 1538.18 1262.12 1538.18 Q1263.32 1538.18 1264.56 1538.52 Q1265.82 1538.84 1267.4 1540.08 Q1269 1541.32 1269.97 1543.35 Q1271.82 1547.27 1271.82 1554.17 Q1271.82 1560.91 1270.1 1564.58 Q1267.6 1569.95 1262.08 1569.95 Q1260 1569.95 1257.88 1568.89 Q1255.79 1567.83 1254.46 1565.28 Q1252.38 1561.47 1252.38 1554.17 M1256.22 1553.6 Q1256.22 1560.57 1256.71 1563.34 Q1257.27 1566.34 1258.81 1567.65 Q1260.36 1568.93 1262.08 1568.93 Q1263.93 1568.93 1265.46 1567.56 Q1267.01 1566.16 1267.49 1563.16 Q1268.01 1560.21 1267.98 1553.6 Q1267.98 1547.18 1267.53 1544.61 Q1266.92 1541.61 1265.3 1540.41 Q1263.7 1539.2 1262.08 1539.2 Q1261.47 1539.2 1260.81 1539.38 Q1260.18 1539.56 1259.26 1540.08 Q1258.33 1540.59 1257.61 1541.88 Q1256.91 1543.16 1256.58 1545.1 Q1256.22 1547.61 1256.22 1553.6 Z" fill="#000000" fill-rule="nonzero" fill-opacity="1" /><path clip-path="url(#clip040)" d="M1301.32 1502.35 L1307.53 1502.35 L1318.67 1532.27 L1329.81 1502.35 L1336.02 1502.35 L1322.65 1538 L1314.69 1538 L1301.32 1502.35 Z" fill="#000000" fill-rule="nonzero" fill-opacity="1" /><path clip-path="url(#clip040)" d="M1360.3 1520.08 Q1353.2 1520.08 1350.47 1521.7 Q1347.73 1523.33 1347.73 1527.24 Q1347.73 1530.36 1349.77 1532.21 Q1351.84 1534.02 1355.37 1534.02 Q1360.24 1534.02 1363.17 1530.58 Q1366.13 1527.11 1366.13 1521.39 L1366.13 1520.08 L1360.3 1520.08 M1371.98 1517.66 L1371.98 1538 L1366.13 1538 L1366.13 1532.59 Q1364.12 1535.84 1361.13 1537.4 Q1358.14 1538.92 1353.81 1538.92 Q1348.33 1538.92 1345.09 1535.87 Q1341.87 1532.78 1341.87 1527.62 Q1341.87 1521.61 1345.88 1518.55 Q1349.93 1515.5 1357.91 1515.5 L1366.13 1515.5 L1366.13 1514.92 Q1366.13 1510.88 1363.45 1508.69 Q1360.81 1506.46 1356.01 1506.46 Q1352.95 1506.46 1350.05 1507.19 Q1347.16 1507.92 1344.48 1509.39 L1344.48 1503.98 Q1347.7 1502.73 1350.72 1502.13 Q1353.75 1501.49 1356.61 1501.49 Q1364.34 1501.49 1368.16 1505.5 Q1371.98 1509.51 1371.98 1517.66 Z" fill="#000000" fill-rule="nonzero" fill-opacity="1" /><path clip-path="url(#clip040)" d="M1384.05 1488.47 L1389.9 1488.47 L1389.9 1538 L1384.05 1538 L1384.05 1488.47 Z" fill="#000000" fill-rule="nonzero" fill-opacity="1" /><path clip-path="url(#clip040)" d="M1401.55 1523.93 L1401.55 1502.35 L1407.41 1502.35 L1407.41 1523.71 Q1407.41 1528.77 1409.38 1531.32 Q1411.36 1533.83 1415.3 1533.83 Q1420.04 1533.83 1422.78 1530.81 Q1425.55 1527.78 1425.55 1522.56 L1425.55 1502.35 L1431.41 1502.35 L1431.41 1538 L1425.55 1538 L1425.55 1532.53 Q1423.42 1535.77 1420.59 1537.36 Q1417.78 1538.92 1414.06 1538.92 Q1407.92 1538.92 1404.73 1535.1 Q1401.55 1531.28 1401.55 1523.93 M1416.29 1501.49 L1416.29 1501.49 Z" fill="#000000" fill-rule="nonzero" fill-opacity="1" /><path clip-path="url(#clip040)" d="M1473.96 1518.71 L1473.96 1521.58 L1447.03 1521.58 Q1447.42 1527.62 1450.66 1530.81 Q1453.94 1533.96 1459.77 1533.96 Q1463.14 1533.96 1466.29 1533.13 Q1469.47 1532.3 1472.59 1530.65 L1472.59 1536.19 Q1469.44 1537.52 1466.13 1538.22 Q1462.82 1538.92 1459.42 1538.92 Q1450.89 1538.92 1445.89 1533.96 Q1440.92 1528.99 1440.92 1520.53 Q1440.92 1511.77 1445.63 1506.65 Q1450.38 1501.49 1458.4 1501.49 Q1465.59 1501.49 1469.76 1506.14 Q1473.96 1510.75 1473.96 1518.71 M1468.11 1516.99 Q1468.04 1512.19 1465.4 1509.32 Q1462.79 1506.46 1458.46 1506.46 Q1453.56 1506.46 1450.6 1509.23 Q1447.67 1512 1447.23 1517.02 L1468.11 1516.99 Z" fill="#000000" fill-rule="nonzero" fill-opacity="1" /><polyline clip-path="url(#clip043)" style="stroke:#000000; stroke-linecap:round; stroke-linejoin:round; stroke-width:2; stroke-opacity:0.1; fill:none" points="339.627,1241.7 2352.76,1241.7 "/>
<polyline clip-path="url(#clip043)" style="stroke:#000000; stroke-linecap:round; stroke-linejoin:round; stroke-width:2; stroke-opacity:0.1; fill:none" points="339.627,938.386 2352.76,938.386 "/>
<polyline clip-path="url(#clip043)" style="stroke:#000000; stroke-linecap:round; stroke-linejoin:round; stroke-width:2; stroke-opacity:0.1; fill:none" points="339.627,635.072 2352.76,635.072 "/>
<polyline clip-path="url(#clip043)" style="stroke:#000000; stroke-linecap:round; stroke-linejoin:round; stroke-width:2; stroke-opacity:0.1; fill:none" points="339.627,331.758 2352.76,331.758 "/>
<polyline clip-path="url(#clip040)" style="stroke:#000000; stroke-linecap:round; stroke-linejoin:round; stroke-width:4; stroke-opacity:1; fill:none" points="339.627,1423.18 339.627,47.2441 "/>
<polyline clip-path="url(#clip040)" style="stroke:#000000; stroke-linecap:round; stroke-linejoin:round; stroke-width:4; stroke-opacity:1; fill:none" points="339.627,1241.7 358.525,1241.7 "/>
<polyline clip-path="url(#clip040)" style="stroke:#000000; stroke-linecap:round; stroke-linejoin:round; stroke-width:4; stroke-opacity:1; fill:none" points="339.627,938.386 358.525,938.386 "/>
<polyline clip-path="url(#clip040)" style="stroke:#000000; stroke-linecap:round; stroke-linejoin:round; stroke-width:4; stroke-opacity:1; fill:none" points="339.627,635.072 358.525,635.072 "/>
<polyline clip-path="url(#clip040)" style="stroke:#000000; stroke-linecap:round; stroke-linejoin:round; stroke-width:4; stroke-opacity:1; fill:none" points="339.627,331.758 358.525,331.758 "/>
<path clip-path="url(#clip040)" d="M117.825 1261.49 L125.464 1261.49 L125.464 1235.13 L117.154 1236.79 L117.154 1232.53 L125.418 1230.87 L130.093 1230.87 L130.093 1261.49 L137.732 1261.49 L137.732 1265.43 L117.825 1265.43 L117.825 1261.49 Z" fill="#000000" fill-rule="nonzero" fill-opacity="1" /><path clip-path="url(#clip040)" d="M147.177 1259.55 L152.061 1259.55 L152.061 1265.43 L147.177 1265.43 L147.177 1259.55 Z" fill="#000000" fill-rule="nonzero" fill-opacity="1" /><path clip-path="url(#clip040)" d="M172.246 1233.95 Q168.635 1233.95 166.806 1237.51 Q165.001 1241.05 165.001 1248.18 Q165.001 1255.29 166.806 1258.85 Q168.635 1262.4 172.246 1262.4 Q175.88 1262.4 177.686 1258.85 Q179.514 1255.29 179.514 1248.18 Q179.514 1241.05 177.686 1237.51 Q175.88 1233.95 172.246 1233.95 M172.246 1230.24 Q178.056 1230.24 181.112 1234.85 Q184.19 1239.43 184.19 1248.18 Q184.19 1256.91 181.112 1261.52 Q178.056 1266.1 172.246 1266.1 Q166.436 1266.1 163.357 1261.52 Q160.302 1256.91 160.302 1248.18 Q160.302 1239.43 163.357 1234.85 Q166.436 1230.24 172.246 1230.24 Z" fill="#000000" fill-rule="nonzero" fill-opacity="1" /><path clip-path="url(#clip040)" d="M220.579 1239.96 L210 1250.59 L220.579 1261.17 L217.824 1263.97 L207.199 1253.34 L196.575 1263.97 L193.843 1261.17 L204.399 1250.59 L193.843 1239.96 L196.575 1237.16 L207.199 1247.79 L217.824 1237.16 L220.579 1239.96 Z" fill="#000000" fill-rule="nonzero" fill-opacity="1" /><path clip-path="url(#clip040)" d="M232.94 1261.49 L240.579 1261.49 L240.579 1235.13 L232.269 1236.79 L232.269 1232.53 L240.533 1230.87 L245.209 1230.87 L245.209 1261.49 L252.847 1261.49 L252.847 1265.43 L232.94 1265.43 L232.94 1261.49 Z" fill="#000000" fill-rule="nonzero" fill-opacity="1" /><path clip-path="url(#clip040)" d="M272.292 1233.95 Q268.681 1233.95 266.852 1237.51 Q265.046 1241.05 265.046 1248.18 Q265.046 1255.29 266.852 1258.85 Q268.681 1262.4 272.292 1262.4 Q275.926 1262.4 277.732 1258.85 Q279.56 1255.29 279.56 1248.18 Q279.56 1241.05 277.732 1237.51 Q275.926 1233.95 272.292 1233.95 M272.292 1230.24 Q278.102 1230.24 281.157 1234.85 Q284.236 1239.43 284.236 1248.18 Q284.236 1256.91 281.157 1261.52 Q278.102 1266.1 272.292 1266.1 Q266.482 1266.1 263.403 1261.52 Q260.347 1256.91 260.347 1248.18 Q260.347 1239.43 263.403 1234.85 Q266.482 1230.24 272.292 1230.24 Z" fill="#000000" fill-rule="nonzero" fill-opacity="1" /><path clip-path="url(#clip040)" d="M294.261 1222.46 Q291.703 1222.46 290.198 1224.21 Q288.712 1225.96 288.712 1229.01 Q288.712 1232.04 290.198 1233.8 Q291.703 1235.55 294.261 1235.55 Q296.818 1235.55 298.304 1233.8 Q299.809 1232.04 299.809 1229.01 Q299.809 1225.96 298.304 1224.21 Q296.818 1222.46 294.261 1222.46 M301.803 1210.56 L301.803 1214.02 Q300.373 1213.34 298.906 1212.98 Q297.458 1212.63 296.029 1212.63 Q292.267 1212.63 290.273 1215.17 Q288.299 1217.7 288.016 1222.84 Q289.126 1221.2 290.8 1220.34 Q292.474 1219.45 294.486 1219.45 Q298.718 1219.45 301.163 1222.03 Q303.627 1224.59 303.627 1229.01 Q303.627 1233.33 301.069 1235.95 Q298.511 1238.56 294.261 1238.56 Q289.389 1238.56 286.813 1234.84 Q284.236 1231.1 284.236 1224.01 Q284.236 1217.35 287.396 1213.4 Q290.556 1209.43 295.878 1209.43 Q297.307 1209.43 298.756 1209.71 Q300.223 1209.99 301.803 1210.56 Z" fill="#000000" fill-rule="nonzero" fill-opacity="1" /><path clip-path="url(#clip040)" d="M121.043 958.178 L137.362 958.178 L137.362 962.114 L115.418 962.114 L115.418 958.178 Q118.08 955.424 122.663 950.794 Q127.269 946.142 128.45 944.799 Q130.695 942.276 131.575 940.54 Q132.478 938.78 132.478 937.091 Q132.478 934.336 130.533 932.6 Q128.612 930.864 125.51 930.864 Q123.311 930.864 120.857 931.628 Q118.427 932.392 115.649 933.943 L115.649 929.22 Q118.473 928.086 120.927 927.507 Q123.38 926.929 125.418 926.929 Q130.788 926.929 133.982 929.614 Q137.177 932.299 137.177 936.79 Q137.177 938.919 136.367 940.841 Q135.579 942.739 133.473 945.331 Q132.894 946.003 129.792 949.22 Q126.691 952.415 121.043 958.178 Z" fill="#000000" fill-rule="nonzero" fill-opacity="1" /><path clip-path="url(#clip040)" d="M147.177 956.234 L152.061 956.234 L152.061 962.114 L147.177 962.114 L147.177 956.234 Z" fill="#000000" fill-rule="nonzero" fill-opacity="1" /><path clip-path="url(#clip040)" d="M172.246 930.632 Q168.635 930.632 166.806 934.197 Q165.001 937.739 165.001 944.868 Q165.001 951.975 166.806 955.54 Q168.635 959.081 172.246 959.081 Q175.88 959.081 177.686 955.54 Q179.514 951.975 179.514 944.868 Q179.514 937.739 177.686 934.197 Q175.88 930.632 172.246 930.632 M172.246 926.929 Q178.056 926.929 181.112 931.535 Q184.19 936.118 184.19 944.868 Q184.19 953.595 181.112 958.202 Q178.056 962.785 172.246 962.785 Q166.436 962.785 163.357 958.202 Q160.302 953.595 160.302 944.868 Q160.302 936.118 163.357 931.535 Q166.436 926.929 172.246 926.929 Z" fill="#000000" fill-rule="nonzero" fill-opacity="1" /><path clip-path="url(#clip040)" d="M220.579 936.651 L210 947.276 L220.579 957.854 L217.824 960.655 L207.199 950.03 L196.575 960.655 L193.843 957.854 L204.399 947.276 L193.843 936.651 L196.575 933.85 L207.199 944.475 L217.824 933.85 L220.579 936.651 Z" fill="#000000" fill-rule="nonzero" fill-opacity="1" /><path clip-path="url(#clip040)" d="M232.94 958.178 L240.579 958.178 L240.579 931.813 L232.269 933.48 L232.269 929.22 L240.533 927.554 L245.209 927.554 L245.209 958.178 L252.847 958.178 L252.847 962.114 L232.94 962.114 L232.94 958.178 Z" fill="#000000" fill-rule="nonzero" fill-opacity="1" /><path clip-path="url(#clip040)" d="M272.292 930.632 Q268.681 930.632 266.852 934.197 Q265.046 937.739 265.046 944.868 Q265.046 951.975 266.852 955.54 Q268.681 959.081 272.292 959.081 Q275.926 959.081 277.732 955.54 Q279.56 951.975 279.56 944.868 Q279.56 937.739 277.732 934.197 Q275.926 930.632 272.292 930.632 M272.292 926.929 Q278.102 926.929 281.157 931.535 Q284.236 936.118 284.236 944.868 Q284.236 953.595 281.157 958.202 Q278.102 962.785 272.292 962.785 Q266.482 962.785 263.403 958.202 Q260.347 953.595 260.347 944.868 Q260.347 936.118 263.403 931.535 Q266.482 926.929 272.292 926.929 Z" fill="#000000" fill-rule="nonzero" fill-opacity="1" /><path clip-path="url(#clip040)" d="M294.261 919.149 Q291.703 919.149 290.198 920.898 Q288.712 922.647 288.712 925.694 Q288.712 928.722 290.198 930.49 Q291.703 932.239 294.261 932.239 Q296.818 932.239 298.304 930.49 Q299.809 928.722 299.809 925.694 Q299.809 922.647 298.304 920.898 Q296.818 919.149 294.261 919.149 M301.803 907.244 L301.803 910.705 Q300.373 910.027 298.906 909.67 Q297.458 909.313 296.029 909.313 Q292.267 909.313 290.273 911.852 Q288.299 914.391 288.016 919.525 Q289.126 917.889 290.8 917.024 Q292.474 916.14 294.486 916.14 Q298.718 916.14 301.163 918.717 Q303.627 921.275 303.627 925.694 Q303.627 930.02 301.069 932.634 Q298.511 935.249 294.261 935.249 Q289.389 935.249 286.813 931.525 Q284.236 927.782 284.236 920.691 Q284.236 914.034 287.396 910.084 Q290.556 906.115 295.878 906.115 Q297.307 906.115 298.756 906.398 Q300.223 906.68 301.803 907.244 Z" fill="#000000" fill-rule="nonzero" fill-opacity="1" /><path clip-path="url(#clip040)" d="M131.181 640.166 Q134.538 640.883 136.413 643.152 Q138.311 645.42 138.311 648.754 Q138.311 653.869 134.792 656.67 Q131.274 659.471 124.793 659.471 Q122.617 659.471 120.302 659.031 Q118.01 658.615 115.556 657.758 L115.556 653.244 Q117.501 654.379 119.816 654.957 Q122.13 655.536 124.654 655.536 Q129.052 655.536 131.343 653.8 Q133.658 652.064 133.658 648.754 Q133.658 645.698 131.505 643.985 Q129.376 642.249 125.556 642.249 L121.529 642.249 L121.529 638.406 L125.742 638.406 Q129.191 638.406 131.019 637.041 Q132.848 635.652 132.848 633.059 Q132.848 630.397 130.95 628.985 Q129.075 627.55 125.556 627.55 Q123.635 627.55 121.436 627.967 Q119.237 628.383 116.598 629.263 L116.598 625.096 Q119.26 624.356 121.575 623.985 Q123.913 623.615 125.973 623.615 Q131.297 623.615 134.399 626.045 Q137.501 628.453 137.501 632.573 Q137.501 635.443 135.857 637.434 Q134.214 639.402 131.181 640.166 Z" fill="#000000" fill-rule="nonzero" fill-opacity="1" /><path clip-path="url(#clip040)" d="M147.177 652.92 L152.061 652.92 L152.061 658.8 L147.177 658.8 L147.177 652.92 Z" fill="#000000" fill-rule="nonzero" fill-opacity="1" /><path clip-path="url(#clip040)" d="M172.246 627.319 Q168.635 627.319 166.806 630.883 Q165.001 634.425 165.001 641.555 Q165.001 648.661 166.806 652.226 Q168.635 655.767 172.246 655.767 Q175.88 655.767 177.686 652.226 Q179.514 648.661 179.514 641.555 Q179.514 634.425 177.686 630.883 Q175.88 627.319 172.246 627.319 M172.246 623.615 Q178.056 623.615 181.112 628.221 Q184.19 632.805 184.19 641.555 Q184.19 650.281 181.112 654.888 Q178.056 659.471 172.246 659.471 Q166.436 659.471 163.357 654.888 Q160.302 650.281 160.302 641.555 Q160.302 632.805 163.357 628.221 Q166.436 623.615 172.246 623.615 Z" fill="#000000" fill-rule="nonzero" fill-opacity="1" /><path clip-path="url(#clip040)" d="M220.579 633.337 L210 643.962 L220.579 654.541 L217.824 657.342 L207.199 646.717 L196.575 657.342 L193.843 654.541 L204.399 643.962 L193.843 633.337 L196.575 630.536 L207.199 641.161 L217.824 630.536 L220.579 633.337 Z" fill="#000000" fill-rule="nonzero" fill-opacity="1" /><path clip-path="url(#clip040)" d="M232.94 654.865 L240.579 654.865 L240.579 628.499 L232.269 630.166 L232.269 625.907 L240.533 624.24 L245.209 624.24 L245.209 654.865 L252.847 654.865 L252.847 658.8 L232.94 658.8 L232.94 654.865 Z" fill="#000000" fill-rule="nonzero" fill-opacity="1" /><path clip-path="url(#clip040)" d="M272.292 627.319 Q268.681 627.319 266.852 630.883 Q265.046 634.425 265.046 641.555 Q265.046 648.661 266.852 652.226 Q268.681 655.767 272.292 655.767 Q275.926 655.767 277.732 652.226 Q279.56 648.661 279.56 641.555 Q279.56 634.425 277.732 630.883 Q275.926 627.319 272.292 627.319 M272.292 623.615 Q278.102 623.615 281.157 628.221 Q284.236 632.805 284.236 641.555 Q284.236 650.281 281.157 654.888 Q278.102 659.471 272.292 659.471 Q266.482 659.471 263.403 654.888 Q260.347 650.281 260.347 641.555 Q260.347 632.805 263.403 628.221 Q266.482 623.615 272.292 623.615 Z" fill="#000000" fill-rule="nonzero" fill-opacity="1" /><path clip-path="url(#clip040)" d="M294.261 615.835 Q291.703 615.835 290.198 617.585 Q288.712 619.334 288.712 622.381 Q288.712 625.409 290.198 627.177 Q291.703 628.926 294.261 628.926 Q296.818 628.926 298.304 627.177 Q299.809 625.409 299.809 622.381 Q299.809 619.334 298.304 617.585 Q296.818 615.835 294.261 615.835 M301.803 603.93 L301.803 607.391 Q300.373 606.714 298.906 606.356 Q297.458 605.999 296.029 605.999 Q292.267 605.999 290.273 608.538 Q288.299 611.077 288.016 616.212 Q289.126 614.575 290.8 613.71 Q292.474 612.826 294.486 612.826 Q298.718 612.826 301.163 615.403 Q303.627 617.961 303.627 622.381 Q303.627 626.706 301.069 629.321 Q298.511 631.935 294.261 631.935 Q289.389 631.935 286.813 628.211 Q284.236 624.468 284.236 617.378 Q284.236 610.72 287.396 606.77 Q290.556 602.802 295.878 602.802 Q297.307 602.802 298.756 603.084 Q300.223 603.366 301.803 603.93 Z" fill="#000000" fill-rule="nonzero" fill-opacity="1" /><path clip-path="url(#clip040)" d="M129.862 325 L118.056 343.449 L129.862 343.449 L129.862 325 M128.635 320.926 L134.515 320.926 L134.515 343.449 L139.445 343.449 L139.445 347.338 L134.515 347.338 L134.515 355.486 L129.862 355.486 L129.862 347.338 L114.26 347.338 L114.26 342.824 L128.635 320.926 Z" fill="#000000" fill-rule="nonzero" fill-opacity="1" /><path clip-path="url(#clip040)" d="M147.177 349.606 L152.061 349.606 L152.061 355.486 L147.177 355.486 L147.177 349.606 Z" fill="#000000" fill-rule="nonzero" fill-opacity="1" /><path clip-path="url(#clip040)" d="M172.246 324.005 Q168.635 324.005 166.806 327.57 Q165.001 331.111 165.001 338.241 Q165.001 345.347 166.806 348.912 Q168.635 352.454 172.246 352.454 Q175.88 352.454 177.686 348.912 Q179.514 345.347 179.514 338.241 Q179.514 331.111 177.686 327.57 Q175.88 324.005 172.246 324.005 M172.246 320.301 Q178.056 320.301 181.112 324.907 Q184.19 329.491 184.19 338.241 Q184.19 346.968 181.112 351.574 Q178.056 356.157 172.246 356.157 Q166.436 356.157 163.357 351.574 Q160.302 346.968 160.302 338.241 Q160.302 329.491 163.357 324.907 Q166.436 320.301 172.246 320.301 Z" fill="#000000" fill-rule="nonzero" fill-opacity="1" /><path clip-path="url(#clip040)" d="M220.579 330.023 L210 340.648 L220.579 351.227 L217.824 354.028 L207.199 343.403 L196.575 354.028 L193.843 351.227 L204.399 340.648 L193.843 330.023 L196.575 327.222 L207.199 337.847 L217.824 327.222 L220.579 330.023 Z" fill="#000000" fill-rule="nonzero" fill-opacity="1" /><path clip-path="url(#clip040)" d="M232.94 351.551 L240.579 351.551 L240.579 325.185 L232.269 326.852 L232.269 322.593 L240.533 320.926 L245.209 320.926 L245.209 351.551 L252.847 351.551 L252.847 355.486 L232.94 355.486 L232.94 351.551 Z" fill="#000000" fill-rule="nonzero" fill-opacity="1" /><path clip-path="url(#clip040)" d="M272.292 324.005 Q268.681 324.005 266.852 327.57 Q265.046 331.111 265.046 338.241 Q265.046 345.347 266.852 348.912 Q268.681 352.454 272.292 352.454 Q275.926 352.454 277.732 348.912 Q279.56 345.347 279.56 338.241 Q279.56 331.111 277.732 327.57 Q275.926 324.005 272.292 324.005 M272.292 320.301 Q278.102 320.301 281.157 324.907 Q284.236 329.491 284.236 338.241 Q284.236 346.968 281.157 351.574 Q278.102 356.157 272.292 356.157 Q266.482 356.157 263.403 351.574 Q260.347 346.968 260.347 338.241 Q260.347 329.491 263.403 324.907 Q266.482 320.301 272.292 320.301 Z" fill="#000000" fill-rule="nonzero" fill-opacity="1" /><path clip-path="url(#clip040)" d="M294.261 312.522 Q291.703 312.522 290.198 314.271 Q288.712 316.02 288.712 319.067 Q288.712 322.095 290.198 323.863 Q291.703 325.612 294.261 325.612 Q296.818 325.612 298.304 323.863 Q299.809 322.095 299.809 319.067 Q299.809 316.02 298.304 314.271 Q296.818 312.522 294.261 312.522 M301.803 300.616 L301.803 304.077 Q300.373 303.4 298.906 303.042 Q297.458 302.685 296.029 302.685 Q292.267 302.685 290.273 305.224 Q288.299 307.763 288.016 312.898 Q289.126 311.261 290.8 310.396 Q292.474 309.512 294.486 309.512 Q298.718 309.512 301.163 312.089 Q303.627 314.647 303.627 319.067 Q303.627 323.393 301.069 326.007 Q298.511 328.621 294.261 328.621 Q289.389 328.621 286.813 324.897 Q284.236 321.154 284.236 314.064 Q284.236 307.406 287.396 303.456 Q290.556 299.488 295.878 299.488 Q297.307 299.488 298.756 299.77 Q300.223 300.052 301.803 300.616 Z" fill="#000000" fill-rule="nonzero" fill-opacity="1" /><path clip-path="url(#clip040)" d="M39.9715 732.838 Q40.197 732.612 40.519 732.612 Q40.8411 732.612 41.5818 733.353 L59.1662 749.037 Q80.2289 743.047 80.2289 739.762 Q80.2289 738.764 79.4559 737.733 Q78.7152 736.67 77.588 736.251 Q77.0405 736.09 76.8473 735.929 Q76.654 735.768 76.654 735.317 Q76.654 734.545 77.3948 734.545 Q77.7812 734.545 78.4253 734.899 Q79.1017 735.253 79.8424 735.897 Q80.6153 736.541 81.1306 737.669 Q81.6781 738.796 81.6781 740.148 Q81.6781 741.823 81.2917 743.176 Q80.9052 744.528 80.4221 745.301 Q79.939 746.074 79.0695 746.783 Q78.2321 747.459 77.7168 747.717 Q77.2337 747.942 76.3964 748.329 Q74.5928 749.102 72.5961 749.81 Q70.5993 750.519 69.1501 750.97 Q67.7008 751.42 63.2564 752.805 L80.2289 767.91 Q80.9374 768.618 80.9374 768.973 Q80.9374 769.262 80.6798 769.52 Q80.4543 769.778 80.1645 769.778 Q79.8424 769.778 79.1017 769.037 L62.1614 753.868 Q61.9359 753.643 61.7427 753.514 Q61.5495 753.385 61.4851 753.385 L61.4206 753.353 Q61.2596 753.353 59.1984 753.932 Q57.1373 754.512 53.9489 755.575 Q50.7283 756.606 48.3773 757.572 Q46.7992 758.184 45.833 758.602 Q44.8668 759.021 43.4176 759.762 Q41.9683 760.47 41.2276 761.211 Q40.4546 761.952 40.4546 762.628 Q40.4546 762.853 40.5512 763.208 Q40.6479 763.562 40.9055 764.142 Q41.131 764.689 41.7751 765.237 Q42.387 765.784 43.2887 766.138 Q43.9973 766.428 43.9973 766.976 Q43.9973 767.33 43.8362 767.556 Q43.6752 767.749 43.5142 767.749 L43.3532 767.781 Q42.7735 767.781 41.8073 767.233 Q40.8411 766.686 39.9393 765.333 Q39.0054 763.981 39.0054 762.242 Q39.0054 760.599 39.3918 759.246 Q39.7783 757.894 40.2292 757.153 Q40.6801 756.38 41.5174 755.704 Q42.3226 755.027 42.709 754.834 Q43.0633 754.609 43.804 754.255 Q46.3161 753.16 48.4739 752.451 Q50.5995 751.71 57.3305 749.585 L40.519 734.48 Q39.7139 733.804 39.7139 733.417 Q39.7139 733.063 39.9715 732.838 Z" fill="#000000" fill-rule="nonzero" fill-opacity="1" /><path clip-path="url(#clip040)" d="M48.415 725.941 Q47.5808 725.941 47.3328 725.873 Q47.0849 725.783 46.7016 725.422 L36.8273 716.563 Q31.3716 711.716 26.6148 711.716 Q23.5263 711.716 21.3169 713.339 Q19.1076 714.939 19.1076 717.893 Q19.1076 719.922 20.3475 721.635 Q21.5875 723.348 23.7968 724.137 Q23.7517 724.002 23.7517 723.529 Q23.7517 722.379 24.4731 721.748 Q25.1945 721.094 26.1639 721.094 Q27.4039 721.094 28.0125 721.905 Q28.5987 722.695 28.5987 723.484 Q28.5987 723.799 28.5311 724.228 Q28.4634 724.633 27.8322 725.287 Q27.1784 725.941 26.0287 725.941 Q22.8049 725.941 20.2348 723.506 Q17.6648 721.049 17.6648 717.306 Q17.6648 713.068 20.1897 710.295 Q22.6921 707.5 26.6148 707.5 Q27.99 707.5 29.2525 707.928 Q30.4924 708.334 31.4618 708.898 Q32.4312 709.439 33.9867 710.927 Q35.5423 712.414 36.6469 713.609 Q37.7516 714.804 40.0962 717.487 L44.853 722.379 L44.853 714.06 Q44.853 710.002 44.4923 709.687 Q43.8385 709.236 40.3893 708.672 L40.3893 707.5 L48.415 708.807 L48.415 725.941 Z" fill="#000000" fill-rule="nonzero" fill-opacity="1" /><polyline clip-path="url(#clip043)" style="stroke:#009af9; stroke-linecap:round; stroke-linejoin:round; stroke-width:4; stroke-opacity:1; fill:none" points="396.602,178.165 415.594,223.703 434.586,269.162 453.578,314.46 472.569,359.52 491.561,404.26 510.553,448.602 529.545,492.466 548.537,535.771 567.528,578.439 586.52,620.388 605.512,661.541 624.504,701.816 643.495,741.135 662.487,779.417 681.479,816.582 700.471,852.552 719.463,887.246 738.454,920.623 757.446,952.695 776.438,983.481 795.43,1013 814.421,1041.27 833.413,1068.31 852.405,1094.13 871.397,1118.76 890.389,1142.22 909.38,1164.52 928.372,1185.68 947.364,1205.72 966.356,1224.65 985.348,1242.51 1004.34,1259.29 1023.33,1275.04 1042.32,1289.75 1061.31,1303.43 1080.31,1316.07 1099.3,1327.67 1118.29,1338.22 1137.28,1347.7 1156.27,1356.11 1175.27,1363.44 1194.26,1369.68 1213.25,1374.82 1232.24,1378.86 1251.23,1381.78 1270.22,1383.57 1289.22,1384.23 1308.21,1383.76 1327.2,1382.13 1346.19,1379.34 1365.18,1375.38 1384.17,1370.26 1403.17,1363.97 1422.16,1356.52 1441.15,1347.9 1460.14,1338.11 1479.13,1327.16 1498.13,1315.05 1517.12,1301.77 1536.11,1287.33 1555.1,1271.72 1574.09,1254.96 1593.08,1237.03 1612.08,1217.94 1631.07,1197.69 1650.06,1176.29 1669.05,1153.72 1688.04,1130.02 1707.04,1105.23 1726.03,1079.43 1745.02,1052.66 1764.01,1024.99 1783,996.481 1801.99,967.184 1820.99,937.162 1839.98,906.473 1858.97,875.177 1877.96,843.333 1896.95,811 1915.94,778.237 1934.94,745.104 1953.93,711.659 1972.92,677.961 1991.91,644.068 2010.9,610.008 2029.9,575.792 2048.89,541.429 2067.88,506.931 2086.87,472.309 2105.86,437.571 2124.85,402.729 2143.85,367.794 2162.84,332.775 2181.83,297.684 2200.82,262.53 2219.81,227.323 2238.81,192.075 2257.8,156.796 2276.79,121.496 2295.78,86.1857 "/>
<circle clip-path="url(#clip043)" cx="396.602" cy="178.165" r="14.4" fill="#008000" fill-rule="evenodd" fill-opacity="1" stroke="#000000" stroke-opacity="1" stroke-width="3.2"/>
<circle clip-path="url(#clip043)" cx="713.132" cy="875.828" r="14.4" fill="#008000" fill-rule="evenodd" fill-opacity="1" stroke="#000000" stroke-opacity="1" stroke-width="3.2"/>
<circle clip-path="url(#clip043)" cx="1029.66" cy="1280.05" r="14.4" fill="#008000" fill-rule="evenodd" fill-opacity="1" stroke="#000000" stroke-opacity="1" stroke-width="3.2"/>
<circle clip-path="url(#clip043)" cx="1346.19" cy="1379.34" r="14.4" fill="#008000" fill-rule="evenodd" fill-opacity="1" stroke="#000000" stroke-opacity="1" stroke-width="3.2"/>
<circle clip-path="url(#clip043)" cx="1662.72" cy="1161.37" r="14.4" fill="#008000" fill-rule="evenodd" fill-opacity="1" stroke="#000000" stroke-opacity="1" stroke-width="3.2"/>
<circle clip-path="url(#clip043)" cx="1979.25" cy="666.683" r="14.4" fill="#008000" fill-rule="evenodd" fill-opacity="1" stroke="#000000" stroke-opacity="1" stroke-width="3.2"/>
<circle clip-path="url(#clip043)" cx="2295.78" cy="86.1857" r="14.4" fill="#008000" fill-rule="evenodd" fill-opacity="1" stroke="#000000" stroke-opacity="1" stroke-width="3.2"/>
<circle clip-path="url(#clip043)" cx="1290.77" cy="1384.24" r="14.4" fill="#ff0000" fill-rule="evenodd" fill-opacity="1" stroke="#000000" stroke-opacity="1" stroke-width="3.2"/>
<path clip-path="url(#clip040)" d="M857.378 314.696 L1835.01 314.696 L1835.01 93.1086 L857.378 93.1086  Z" fill="#ffffff" fill-rule="evenodd" fill-opacity="1"/>
<polyline clip-path="url(#clip040)" style="stroke:#000000; stroke-linecap:round; stroke-linejoin:round; stroke-width:4; stroke-opacity:1; fill:none" points="857.378,314.696 1835.01,314.696 1835.01,93.1086 857.378,93.1086 857.378,314.696 "/>
<polyline clip-path="url(#clip040)" style="stroke:#009af9; stroke-linecap:round; stroke-linejoin:round; stroke-width:4; stroke-opacity:1; fill:none" points="879.746,148.505 1013.95,148.505 "/>
<path clip-path="url(#clip040)" d="M1064.19 129.984 L1064.19 134.915 Q1061.83 132.716 1059.15 131.628 Q1056.48 130.54 1053.48 130.54 Q1047.55 130.54 1044.4 134.174 Q1041.25 137.785 1041.25 144.637 Q1041.25 151.466 1044.4 155.1 Q1047.55 158.711 1053.48 158.711 Q1056.48 158.711 1059.15 157.623 Q1061.83 156.535 1064.19 154.336 L1064.19 159.22 Q1061.74 160.887 1058.98 161.72 Q1056.25 162.554 1053.2 162.554 Q1045.35 162.554 1040.84 157.762 Q1036.32 152.947 1036.32 144.637 Q1036.32 136.304 1040.84 131.512 Q1045.35 126.697 1053.2 126.697 Q1056.3 126.697 1059.03 127.531 Q1061.79 128.341 1064.19 129.984 Z" fill="#000000" fill-rule="nonzero" fill-opacity="1" /><path clip-path="url(#clip040)" d="M1070.79 151.651 L1070.79 135.957 L1075.05 135.957 L1075.05 151.489 Q1075.05 155.17 1076.48 157.021 Q1077.92 158.85 1080.79 158.85 Q1084.24 158.85 1086.23 156.651 Q1088.24 154.452 1088.24 150.656 L1088.24 135.957 L1092.5 135.957 L1092.5 161.882 L1088.24 161.882 L1088.24 157.901 Q1086.69 160.262 1084.63 161.419 Q1082.6 162.554 1079.89 162.554 Q1075.42 162.554 1073.1 159.776 Q1070.79 156.998 1070.79 151.651 M1081.51 135.332 L1081.51 135.332 Z" fill="#000000" fill-rule="nonzero" fill-opacity="1" /><path clip-path="url(#clip040)" d="M1119.89 148.943 Q1119.89 144.244 1117.94 141.582 Q1116.02 138.896 1112.64 138.896 Q1109.26 138.896 1107.32 141.582 Q1105.4 144.244 1105.4 148.943 Q1105.4 153.642 1107.32 156.327 Q1109.26 158.989 1112.64 158.989 Q1116.02 158.989 1117.94 156.327 Q1119.89 153.642 1119.89 148.943 M1105.4 139.892 Q1106.74 137.577 1108.78 136.466 Q1110.84 135.332 1113.68 135.332 Q1118.41 135.332 1121.35 139.082 Q1124.31 142.832 1124.31 148.943 Q1124.31 155.054 1121.35 158.804 Q1118.41 162.554 1113.68 162.554 Q1110.84 162.554 1108.78 161.443 Q1106.74 160.308 1105.4 157.994 L1105.4 161.882 L1101.11 161.882 L1101.11 125.864 L1105.4 125.864 L1105.4 139.892 Z" fill="#000000" fill-rule="nonzero" fill-opacity="1" /><path clip-path="url(#clip040)" d="M1131.37 135.957 L1135.63 135.957 L1135.63 161.882 L1131.37 161.882 L1131.37 135.957 M1131.37 125.864 L1135.63 125.864 L1135.63 131.258 L1131.37 131.258 L1131.37 125.864 Z" fill="#000000" fill-rule="nonzero" fill-opacity="1" /><path clip-path="url(#clip040)" d="M1163.2 136.952 L1163.2 140.933 Q1161.39 139.938 1159.56 139.452 Q1157.76 138.943 1155.91 138.943 Q1151.76 138.943 1149.47 141.582 Q1147.18 144.197 1147.18 148.943 Q1147.18 153.688 1149.47 156.327 Q1151.76 158.943 1155.91 158.943 Q1157.76 158.943 1159.56 158.457 Q1161.39 157.947 1163.2 156.952 L1163.2 160.887 Q1161.41 161.72 1159.49 162.137 Q1157.59 162.554 1155.44 162.554 Q1149.59 162.554 1146.14 158.873 Q1142.69 155.193 1142.69 148.943 Q1142.69 142.6 1146.16 138.966 Q1149.66 135.332 1155.72 135.332 Q1157.69 135.332 1159.56 135.748 Q1161.44 136.142 1163.2 136.952 Z" fill="#000000" fill-rule="nonzero" fill-opacity="1" /><path clip-path="url(#clip040)" d="M1190.53 145.378 L1190.53 158.04 L1198.03 158.04 Q1201.81 158.04 1203.61 156.489 Q1205.44 154.915 1205.44 151.697 Q1205.44 148.457 1203.61 146.929 Q1201.81 145.378 1198.03 145.378 L1190.53 145.378 M1190.53 131.165 L1190.53 141.582 L1197.46 141.582 Q1200.88 141.582 1202.55 140.308 Q1204.24 139.012 1204.24 136.373 Q1204.24 133.758 1202.55 132.461 Q1200.88 131.165 1197.46 131.165 L1190.53 131.165 M1185.86 127.322 L1197.8 127.322 Q1203.15 127.322 1206.04 129.545 Q1208.94 131.767 1208.94 135.864 Q1208.94 139.035 1207.46 140.91 Q1205.97 142.785 1203.1 143.248 Q1206.55 143.989 1208.45 146.35 Q1210.37 148.688 1210.37 152.207 Q1210.37 156.836 1207.22 159.359 Q1204.08 161.882 1198.27 161.882 L1185.86 161.882 L1185.86 127.322 Z" fill="#000000" fill-rule="nonzero" fill-opacity="1" /><path clip-path="url(#clip040)" d="M1238.27 128.457 L1238.27 133.017 Q1235.6 131.744 1233.24 131.119 Q1230.88 130.494 1228.68 130.494 Q1224.86 130.494 1222.78 131.975 Q1220.72 133.457 1220.72 136.188 Q1220.72 138.48 1222.09 139.66 Q1223.47 140.818 1227.32 141.535 L1230.14 142.114 Q1235.37 143.109 1237.85 145.633 Q1240.35 148.133 1240.35 152.345 Q1240.35 157.369 1236.97 159.961 Q1233.61 162.554 1227.11 162.554 Q1224.65 162.554 1221.88 161.998 Q1219.12 161.443 1216.16 160.355 L1216.16 155.54 Q1219.01 157.137 1221.74 157.947 Q1224.47 158.757 1227.11 158.757 Q1231.11 158.757 1233.29 157.183 Q1235.46 155.609 1235.46 152.693 Q1235.46 150.146 1233.89 148.711 Q1232.34 147.276 1228.78 146.558 L1225.93 146.003 Q1220.7 144.961 1218.36 142.739 Q1216.02 140.517 1216.02 136.559 Q1216.02 131.975 1219.24 129.336 Q1222.48 126.697 1228.15 126.697 Q1230.58 126.697 1233.1 127.137 Q1235.63 127.577 1238.27 128.457 Z" fill="#000000" fill-rule="nonzero" fill-opacity="1" /><path clip-path="url(#clip040)" d="M1251.58 157.994 L1251.58 171.744 L1247.29 171.744 L1247.29 135.957 L1251.58 135.957 L1251.58 139.892 Q1252.92 137.577 1254.96 136.466 Q1257.02 135.332 1259.86 135.332 Q1264.59 135.332 1267.52 139.082 Q1270.49 142.832 1270.49 148.943 Q1270.49 155.054 1267.52 158.804 Q1264.59 162.554 1259.86 162.554 Q1257.02 162.554 1254.96 161.443 Q1252.92 160.308 1251.58 157.994 M1266.07 148.943 Q1266.07 144.244 1264.12 141.582 Q1262.2 138.896 1258.82 138.896 Q1255.44 138.896 1253.5 141.582 Q1251.58 144.244 1251.58 148.943 Q1251.58 153.642 1253.5 156.327 Q1255.44 158.989 1258.82 158.989 Q1262.2 158.989 1264.12 156.327 Q1266.07 153.642 1266.07 148.943 Z" fill="#000000" fill-rule="nonzero" fill-opacity="1" /><path clip-path="url(#clip040)" d="M1277.55 125.864 L1281.81 125.864 L1281.81 161.882 L1277.55 161.882 L1277.55 125.864 Z" fill="#000000" fill-rule="nonzero" fill-opacity="1" /><path clip-path="url(#clip040)" d="M1290.72 135.957 L1294.98 135.957 L1294.98 161.882 L1290.72 161.882 L1290.72 135.957 M1290.72 125.864 L1294.98 125.864 L1294.98 131.258 L1290.72 131.258 L1290.72 125.864 Z" fill="#000000" fill-rule="nonzero" fill-opacity="1" /><path clip-path="url(#clip040)" d="M1325.44 146.234 L1325.44 161.882 L1321.18 161.882 L1321.18 146.373 Q1321.18 142.693 1319.75 140.864 Q1318.31 139.035 1315.44 139.035 Q1311.99 139.035 1310 141.234 Q1308.01 143.433 1308.01 147.23 L1308.01 161.882 L1303.73 161.882 L1303.73 135.957 L1308.01 135.957 L1308.01 139.984 Q1309.54 137.646 1311.6 136.489 Q1313.68 135.332 1316.39 135.332 Q1320.86 135.332 1323.15 138.109 Q1325.44 140.864 1325.44 146.234 Z" fill="#000000" fill-rule="nonzero" fill-opacity="1" /><path clip-path="url(#clip040)" d="M1356.11 147.855 L1356.11 149.938 L1336.53 149.938 Q1336.81 154.336 1339.17 156.651 Q1341.55 158.943 1345.79 158.943 Q1348.24 158.943 1350.53 158.341 Q1352.85 157.739 1355.12 156.535 L1355.12 160.563 Q1352.83 161.535 1350.42 162.044 Q1348.01 162.554 1345.53 162.554 Q1339.33 162.554 1335.7 158.943 Q1332.08 155.332 1332.08 149.174 Q1332.08 142.808 1335.51 139.082 Q1338.96 135.332 1344.79 135.332 Q1350.02 135.332 1353.06 138.711 Q1356.11 142.068 1356.11 147.855 M1351.85 146.605 Q1351.81 143.109 1349.89 141.026 Q1347.99 138.943 1344.84 138.943 Q1341.27 138.943 1339.12 140.957 Q1336.99 142.971 1336.67 146.628 L1351.85 146.605 Z" fill="#000000" fill-rule="nonzero" fill-opacity="1" /><path clip-path="url(#clip040)" d="M1388.22 138.943 Q1384.79 138.943 1382.8 141.628 Q1380.81 144.29 1380.81 148.943 Q1380.81 153.595 1382.78 156.281 Q1384.77 158.943 1388.22 158.943 Q1391.62 158.943 1393.61 156.257 Q1395.6 153.572 1395.6 148.943 Q1395.6 144.336 1393.61 141.651 Q1391.62 138.943 1388.22 138.943 M1388.22 135.332 Q1393.77 135.332 1396.95 138.943 Q1400.12 142.554 1400.12 148.943 Q1400.12 155.308 1396.95 158.943 Q1393.77 162.554 1388.22 162.554 Q1382.64 162.554 1379.47 158.943 Q1376.32 155.308 1376.32 148.943 Q1376.32 142.554 1379.47 138.943 Q1382.64 135.332 1388.22 135.332 Z" fill="#000000" fill-rule="nonzero" fill-opacity="1" /><path clip-path="url(#clip040)" d="M1420.3 125.864 L1420.3 129.406 L1416.23 129.406 Q1413.94 129.406 1413.03 130.332 Q1412.15 131.258 1412.15 133.665 L1412.15 135.957 L1419.17 135.957 L1419.17 139.267 L1412.15 139.267 L1412.15 161.882 L1407.87 161.882 L1407.87 139.267 L1403.8 139.267 L1403.8 135.957 L1407.87 135.957 L1407.87 134.151 Q1407.87 129.822 1409.89 127.855 Q1411.9 125.864 1416.27 125.864 L1420.3 125.864 Z" fill="#000000" fill-rule="nonzero" fill-opacity="1" /><path clip-path="url(#clip040)" d="M1461.33 141.388 Q1461.5 141.552 1461.5 141.786 Q1461.5 142.02 1460.96 142.559 L1449.55 155.348 Q1453.91 170.666 1456.3 170.666 Q1457.02 170.666 1457.77 170.104 Q1458.55 169.565 1458.85 168.745 Q1458.97 168.347 1459.09 168.207 Q1459.2 168.066 1459.53 168.066 Q1460.09 168.066 1460.09 168.605 Q1460.09 168.886 1459.83 169.354 Q1459.58 169.846 1459.11 170.385 Q1458.64 170.947 1457.82 171.322 Q1457 171.72 1456.02 171.72 Q1454.8 171.72 1453.82 171.439 Q1452.83 171.158 1452.27 170.806 Q1451.71 170.455 1451.19 169.823 Q1450.7 169.214 1450.51 168.839 Q1450.35 168.488 1450.07 167.879 Q1449.51 166.567 1448.99 165.115 Q1448.48 163.663 1448.15 162.609 Q1447.82 161.555 1446.81 158.322 L1435.83 170.666 Q1435.31 171.181 1435.05 171.181 Q1434.84 171.181 1434.66 170.994 Q1434.47 170.83 1434.47 170.619 Q1434.47 170.385 1435.01 169.846 L1446.04 157.526 Q1446.2 157.362 1446.3 157.221 Q1446.39 157.081 1446.39 157.034 L1446.41 156.987 Q1446.41 156.87 1445.99 155.371 Q1445.57 153.872 1444.8 151.553 Q1444.05 149.211 1443.35 147.501 Q1442.9 146.353 1442.6 145.651 Q1442.29 144.948 1441.75 143.894 Q1441.24 142.84 1440.7 142.301 Q1440.16 141.739 1439.67 141.739 Q1439.5 141.739 1439.25 141.809 Q1438.99 141.88 1438.57 142.067 Q1438.17 142.231 1437.77 142.699 Q1437.37 143.144 1437.12 143.8 Q1436.9 144.316 1436.51 144.316 Q1436.25 144.316 1436.08 144.199 Q1435.94 144.081 1435.94 143.964 L1435.92 143.847 Q1435.92 143.426 1436.32 142.723 Q1436.72 142.02 1437.7 141.364 Q1438.68 140.685 1439.95 140.685 Q1441.14 140.685 1442.13 140.966 Q1443.11 141.247 1443.65 141.575 Q1444.21 141.903 1444.7 142.512 Q1445.2 143.098 1445.34 143.379 Q1445.5 143.636 1445.76 144.175 Q1446.55 146.002 1447.07 147.571 Q1447.61 149.117 1449.15 154.013 L1460.14 141.786 Q1460.63 141.2 1460.91 141.2 Q1461.17 141.2 1461.33 141.388 Z" fill="#000000" fill-rule="nonzero" fill-opacity="1" /><path clip-path="url(#clip040)" d="M1466.35 147.543 Q1466.35 146.936 1466.4 146.756 Q1466.47 146.575 1466.73 146.297 L1473.17 139.115 Q1476.7 135.147 1476.7 131.688 Q1476.7 129.442 1475.52 127.835 Q1474.36 126.228 1472.21 126.228 Q1470.73 126.228 1469.49 127.13 Q1468.24 128.032 1467.67 129.638 Q1467.76 129.606 1468.11 129.606 Q1468.94 129.606 1469.4 130.13 Q1469.88 130.655 1469.88 131.36 Q1469.88 132.262 1469.29 132.704 Q1468.72 133.131 1468.14 133.131 Q1467.91 133.131 1467.6 133.082 Q1467.31 133.032 1466.83 132.573 Q1466.35 132.098 1466.35 131.262 Q1466.35 128.917 1468.12 127.048 Q1469.91 125.179 1472.63 125.179 Q1475.72 125.179 1477.73 127.015 Q1479.77 128.835 1479.77 131.688 Q1479.77 132.688 1479.45 133.606 Q1479.16 134.508 1478.75 135.213 Q1478.36 135.918 1477.27 137.049 Q1476.19 138.181 1475.32 138.984 Q1474.45 139.787 1472.5 141.493 L1468.94 144.952 L1474.99 144.952 Q1477.95 144.952 1478.18 144.69 Q1478.5 144.214 1478.91 141.706 L1479.77 141.706 L1478.81 147.543 L1466.35 147.543 Z" fill="#000000" fill-rule="nonzero" fill-opacity="1" /><circle clip-path="url(#clip040)" cx="946.85" cy="203.902" r="20.48" fill="#008000" fill-rule="evenodd" fill-opacity="1" stroke="#000000" stroke-opacity="1" stroke-width="4.55111"/>
<path clip-path="url(#clip040)" d="M1063.19 196.785 Q1063.35 196.949 1063.35 197.183 Q1063.35 197.417 1062.81 197.956 L1051.41 210.744 Q1055.76 226.063 1058.15 226.063 Q1058.88 226.063 1059.63 225.501 Q1060.4 224.962 1060.71 224.142 Q1060.82 223.744 1060.94 223.603 Q1061.06 223.463 1061.38 223.463 Q1061.95 223.463 1061.95 224.002 Q1061.95 224.283 1061.69 224.751 Q1061.43 225.243 1060.96 225.782 Q1060.49 226.344 1059.67 226.719 Q1058.85 227.117 1057.87 227.117 Q1056.65 227.117 1055.67 226.836 Q1054.69 226.555 1054.12 226.203 Q1053.56 225.852 1053.05 225.22 Q1052.55 224.611 1052.37 224.236 Q1052.2 223.884 1051.92 223.275 Q1051.36 221.964 1050.84 220.512 Q1050.33 219.059 1050 218.005 Q1049.67 216.951 1048.67 213.719 L1037.68 226.063 Q1037.17 226.578 1036.91 226.578 Q1036.7 226.578 1036.51 226.391 Q1036.32 226.227 1036.32 226.016 Q1036.32 225.782 1036.86 225.243 L1047.89 212.923 Q1048.06 212.759 1048.15 212.618 Q1048.24 212.478 1048.24 212.431 L1048.27 212.384 Q1048.27 212.267 1047.85 210.768 Q1047.42 209.269 1046.65 206.95 Q1045.9 204.608 1045.2 202.898 Q1044.75 201.75 1044.45 201.048 Q1044.15 200.345 1043.61 199.291 Q1043.09 198.237 1042.55 197.698 Q1042.01 197.136 1041.52 197.136 Q1041.36 197.136 1041.1 197.206 Q1040.84 197.277 1040.42 197.464 Q1040.02 197.628 1039.63 198.096 Q1039.23 198.541 1038.97 199.197 Q1038.76 199.712 1038.36 199.712 Q1038.1 199.712 1037.94 199.595 Q1037.8 199.478 1037.8 199.361 L1037.77 199.244 Q1037.77 198.822 1038.17 198.12 Q1038.57 197.417 1039.55 196.761 Q1040.54 196.082 1041.8 196.082 Q1043 196.082 1043.98 196.363 Q1044.97 196.644 1045.5 196.972 Q1046.07 197.3 1046.56 197.909 Q1047.05 198.495 1047.19 198.776 Q1047.35 199.033 1047.61 199.572 Q1048.41 201.399 1048.92 202.968 Q1049.46 204.514 1051.01 209.409 L1061.99 197.183 Q1062.49 196.597 1062.77 196.597 Q1063.02 196.597 1063.19 196.785 Z" fill="#000000" fill-rule="nonzero" fill-opacity="1" /><path clip-path="url(#clip040)" d="M1068.21 202.939 Q1068.21 202.333 1068.26 202.152 Q1068.32 201.972 1068.59 201.693 L1075.03 194.512 Q1078.55 190.544 1078.55 187.085 Q1078.55 184.839 1077.37 183.232 Q1076.21 181.625 1074.06 181.625 Q1072.59 181.625 1071.34 182.527 Q1070.09 183.429 1069.52 185.035 Q1069.62 185.003 1069.96 185.003 Q1070.8 185.003 1071.26 185.527 Q1071.73 186.052 1071.73 186.757 Q1071.73 187.659 1071.14 188.101 Q1070.57 188.528 1070 188.528 Q1069.77 188.528 1069.45 188.478 Q1069.16 188.429 1068.68 187.97 Q1068.21 187.495 1068.21 186.659 Q1068.21 184.314 1069.98 182.445 Q1071.77 180.576 1074.49 180.576 Q1077.57 180.576 1079.59 182.412 Q1081.62 184.232 1081.62 187.085 Q1081.62 188.085 1081.31 189.003 Q1081.01 189.905 1080.6 190.61 Q1080.21 191.315 1079.13 192.446 Q1078.05 193.578 1077.18 194.381 Q1076.31 195.184 1074.36 196.889 L1070.8 200.349 L1076.85 200.349 Q1079.8 200.349 1080.03 200.087 Q1080.36 199.611 1080.77 197.103 L1081.62 197.103 L1080.67 202.939 L1068.21 202.939 Z" fill="#000000" fill-rule="nonzero" fill-opacity="1" /><circle clip-path="url(#clip040)" cx="946.85" cy="259.299" r="20.48" fill="#ff0000" fill-rule="evenodd" fill-opacity="1" stroke="#000000" stroke-opacity="1" stroke-width="4.55111"/>
<path clip-path="url(#clip040)" d="M1052.16 233.819 L1045.81 251.018 L1058.52 251.018 L1052.16 233.819 M1049.52 229.213 L1054.82 229.213 L1067.99 263.773 L1063.13 263.773 L1059.98 254.907 L1044.4 254.907 L1041.25 263.773 L1036.32 263.773 L1049.52 229.213 Z" fill="#000000" fill-rule="nonzero" fill-opacity="1" /><path clip-path="url(#clip040)" d="M1076.97 259.884 L1076.97 273.634 L1072.69 273.634 L1072.69 237.847 L1076.97 237.847 L1076.97 241.782 Q1078.31 239.467 1080.35 238.356 Q1082.41 237.222 1085.26 237.222 Q1089.98 237.222 1092.92 240.972 Q1095.88 244.722 1095.88 250.833 Q1095.88 256.944 1092.92 260.694 Q1089.98 264.444 1085.26 264.444 Q1082.41 264.444 1080.35 263.333 Q1078.31 262.199 1076.97 259.884 M1091.46 250.833 Q1091.46 246.134 1089.52 243.472 Q1087.6 240.787 1084.22 240.787 Q1080.84 240.787 1078.89 243.472 Q1076.97 246.134 1076.97 250.833 Q1076.97 255.532 1078.89 258.217 Q1080.84 260.879 1084.22 260.879 Q1087.6 260.879 1089.52 258.217 Q1091.46 255.532 1091.46 250.833 Z" fill="#000000" fill-rule="nonzero" fill-opacity="1" /><path clip-path="url(#clip040)" d="M1107.06 259.884 L1107.06 273.634 L1102.78 273.634 L1102.78 237.847 L1107.06 237.847 L1107.06 241.782 Q1108.41 239.467 1110.44 238.356 Q1112.5 237.222 1115.35 237.222 Q1120.07 237.222 1123.01 240.972 Q1125.97 244.722 1125.97 250.833 Q1125.97 256.944 1123.01 260.694 Q1120.07 264.444 1115.35 264.444 Q1112.5 264.444 1110.44 263.333 Q1108.41 262.199 1107.06 259.884 M1121.55 250.833 Q1121.55 246.134 1119.61 243.472 Q1117.69 240.787 1114.31 240.787 Q1110.93 240.787 1108.98 243.472 Q1107.06 246.134 1107.06 250.833 Q1107.06 255.532 1108.98 258.217 Q1110.93 260.879 1114.31 260.879 Q1117.69 260.879 1119.61 258.217 Q1121.55 255.532 1121.55 250.833 Z" fill="#000000" fill-rule="nonzero" fill-opacity="1" /><path clip-path="url(#clip040)" d="M1143.08 240.833 Q1139.66 240.833 1137.66 243.518 Q1135.67 246.18 1135.67 250.833 Q1135.67 255.486 1137.64 258.171 Q1139.63 260.833 1143.08 260.833 Q1146.48 260.833 1148.47 258.148 Q1150.47 255.463 1150.47 250.833 Q1150.47 246.226 1148.47 243.541 Q1146.48 240.833 1143.08 240.833 M1143.08 237.222 Q1148.64 237.222 1151.81 240.833 Q1154.98 244.444 1154.98 250.833 Q1154.98 257.199 1151.81 260.833 Q1148.64 264.444 1143.08 264.444 Q1137.5 264.444 1134.33 260.833 Q1131.18 257.199 1131.18 250.833 Q1131.18 244.444 1134.33 240.833 Q1137.5 237.222 1143.08 237.222 Z" fill="#000000" fill-rule="nonzero" fill-opacity="1" /><path clip-path="url(#clip040)" d="M1182.13 237.847 L1172.76 250.463 L1182.62 263.773 L1177.59 263.773 L1170.05 253.588 L1162.5 263.773 L1157.48 263.773 L1167.55 250.208 L1158.34 237.847 L1163.36 237.847 L1170.23 247.083 L1177.11 237.847 L1182.13 237.847 Z" fill="#000000" fill-rule="nonzero" fill-opacity="1" /><path clip-path="url(#clip040)" d="M1189.24 257.893 L1194.12 257.893 L1194.12 263.773 L1189.24 263.773 L1189.24 257.893 Z" fill="#000000" fill-rule="nonzero" fill-opacity="1" /><path clip-path="url(#clip040)" d="M1214.31 263.773 L1214.31 262.297 Q1216.86 262.297 1217.45 261.993 Q1218.03 261.665 1218.03 260.119 L1218.03 247.26 Q1218.03 245.48 1217.4 245.035 Q1216.79 244.59 1214.31 244.59 L1214.31 243.091 L1221.05 242.575 L1221.05 247.611 Q1223.3 242.575 1228.15 242.575 Q1233.77 242.575 1234.54 247.26 Q1235.36 245.433 1237.07 244.004 Q1238.81 242.575 1241.5 242.575 Q1245.11 242.575 1246.54 244.355 Q1247.59 245.55 1247.8 246.885 Q1248.01 248.22 1248.01 251.687 L1248.01 260.845 Q1248.06 261.852 1248.83 262.086 Q1249.61 262.297 1251.76 262.297 L1251.76 263.773 Q1246.86 263.632 1246.4 263.632 Q1246.02 263.632 1240.96 263.773 L1240.96 262.297 Q1243.52 262.297 1244.1 261.993 Q1244.71 261.665 1244.71 260.119 L1244.71 248.946 Q1244.71 246.51 1243.96 245.082 Q1243.21 243.629 1241.15 243.629 Q1238.67 243.629 1236.68 245.714 Q1234.69 247.799 1234.69 251.312 L1234.69 260.119 Q1234.69 261.665 1235.27 261.993 Q1235.88 262.297 1238.43 262.297 L1238.43 263.773 Q1233.54 263.632 1233.05 263.632 Q1232.67 263.632 1227.64 263.773 L1227.64 262.297 Q1230.19 262.297 1230.77 261.993 Q1231.38 261.665 1231.38 260.119 L1231.38 248.946 Q1231.38 246.51 1230.63 245.082 Q1229.88 243.629 1227.82 243.629 Q1225.34 243.629 1223.35 245.714 Q1221.36 247.799 1221.36 251.312 L1221.36 260.119 Q1221.36 261.665 1221.94 261.993 Q1222.55 262.297 1225.08 262.297 L1225.08 263.773 Q1220.19 263.632 1219.72 263.632 Q1219.34 263.632 1214.31 263.773 Z" fill="#000000" fill-rule="nonzero" fill-opacity="1" /><path clip-path="url(#clip040)" d="M1253.66 263.773 L1253.66 262.297 Q1256.21 262.297 1256.8 261.993 Q1257.38 261.665 1257.38 260.119 L1257.38 247.213 Q1257.38 245.433 1256.78 245.011 Q1256.19 244.59 1253.85 244.59 L1253.85 243.091 L1260.55 242.575 L1260.55 260.166 Q1260.55 261.594 1261.06 261.946 Q1261.58 262.297 1263.92 262.297 L1263.92 263.773 Q1259.02 263.632 1258.93 263.632 Q1258.27 263.632 1253.66 263.773 M1255.67 234.214 Q1255.67 233.253 1256.4 232.48 Q1257.15 231.684 1258.2 231.684 Q1259.26 231.684 1260.01 232.41 Q1260.76 233.113 1260.76 234.237 Q1260.76 235.338 1260.01 236.064 Q1259.26 236.767 1258.2 236.767 Q1257.1 236.767 1256.38 235.994 Q1255.67 235.221 1255.67 234.214 Z" fill="#000000" fill-rule="nonzero" fill-opacity="1" /><path clip-path="url(#clip040)" d="M1267.19 263.773 L1267.19 262.297 Q1269.75 262.297 1270.33 261.993 Q1270.92 261.665 1270.92 260.119 L1270.92 247.26 Q1270.92 245.48 1270.29 245.035 Q1269.68 244.59 1267.19 244.59 L1267.19 243.091 L1273.94 242.575 L1273.94 247.611 Q1276.19 242.575 1281.04 242.575 Q1284.64 242.575 1286.07 244.355 Q1287.13 245.55 1287.34 246.885 Q1287.57 248.22 1287.57 251.687 L1287.57 260.845 Q1287.62 261.852 1288.39 262.086 Q1289.17 262.297 1291.32 262.297 L1291.32 263.773 Q1286.42 263.632 1285.93 263.632 Q1285.56 263.632 1280.52 263.773 L1280.52 262.297 Q1283.08 262.297 1283.66 261.993 Q1284.27 261.665 1284.27 260.119 L1284.27 248.946 Q1284.27 246.51 1283.52 245.082 Q1282.77 243.629 1280.71 243.629 Q1278.23 243.629 1276.24 245.714 Q1274.25 247.799 1274.25 251.312 L1274.25 260.119 Q1274.25 261.665 1274.83 261.993 Q1275.44 262.297 1277.97 262.297 L1277.97 263.773 Q1273.07 263.632 1272.61 263.632 Q1272.23 263.632 1267.19 263.773 Z" fill="#000000" fill-rule="nonzero" fill-opacity="1" /><path clip-path="url(#clip040)" d="M1351.32 243.091 L1344.7 269.769 Q1344.51 270.612 1344.51 270.823 Q1344.51 271.104 1344.58 271.221 Q1344.67 271.362 1345.19 271.479 Q1345.73 271.596 1346.8 271.596 Q1347.2 271.596 1347.34 271.596 Q1347.48 271.596 1347.69 271.643 Q1347.9 271.689 1347.98 271.807 Q1348.05 271.924 1348.05 272.111 Q1348.05 273.071 1347.2 273.071 Q1346.41 273.071 1344.74 273.001 Q1343.08 272.931 1342.26 272.931 Q1341.46 272.931 1339.85 273.001 Q1338.23 273.071 1337.46 273.071 Q1337.18 273.071 1337.01 272.931 Q1336.85 272.814 1336.85 272.673 L1336.83 272.556 Q1336.83 271.9 1337.08 271.736 Q1337.34 271.596 1337.93 271.596 Q1339.94 271.572 1340.53 271.291 Q1341.11 271.01 1341.39 270.003 L1343.55 261.43 Q1340.67 264.311 1337.88 264.311 Q1335.19 264.311 1333.36 262.203 Q1331.56 260.072 1331.56 256.629 Q1331.56 254.076 1332.56 251.499 Q1333.59 248.923 1335.19 246.979 Q1336.8 245.035 1338.91 243.817 Q1341.02 242.575 1343.1 242.575 Q1344.44 242.575 1345.63 243.348 Q1346.85 244.121 1347.58 245.925 Q1348.19 244.894 1349.31 243.77 Q1350.43 242.622 1350.83 242.622 Q1351.07 242.622 1351.18 242.786 Q1351.32 242.927 1351.32 243.091 M1346.9 247.845 Q1346.9 247.611 1346.71 247.026 Q1346.55 246.44 1346.17 245.644 Q1345.82 244.824 1345 244.238 Q1344.18 243.629 1343.1 243.629 Q1341.56 243.629 1339.89 245.128 Q1338.25 246.604 1337.18 249.18 Q1336.5 250.867 1335.73 254.006 Q1334.95 257.144 1334.95 258.737 Q1334.95 259.112 1334.98 259.533 Q1335.02 259.955 1335.21 260.657 Q1335.4 261.36 1335.68 261.899 Q1335.98 262.438 1336.59 262.836 Q1337.2 263.234 1338.02 263.234 Q1339.8 263.234 1341.58 261.712 Q1343.36 260.189 1344.11 258.831 Q1344.2 258.69 1345.54 253.373 Q1346.9 248.056 1346.9 247.845 Z" fill="#000000" fill-rule="nonzero" fill-opacity="1" /><path clip-path="url(#clip040)" d="M1356.24 275.526 Q1356.24 270.591 1357.48 267.902 Q1359.22 263.901 1363.32 263.901 Q1364.19 263.901 1365.09 264.147 Q1366.01 264.377 1367.16 265.278 Q1368.32 266.18 1369.03 267.656 Q1370.37 270.509 1370.37 275.526 Q1370.37 280.428 1369.13 283.1 Q1367.31 287.003 1363.29 287.003 Q1361.78 287.003 1360.24 286.232 Q1358.71 285.461 1357.75 283.609 Q1356.24 280.838 1356.24 275.526 M1359.03 275.116 Q1359.03 280.182 1359.39 282.199 Q1359.8 284.379 1360.91 285.33 Q1362.04 286.265 1363.29 286.265 Q1364.63 286.265 1365.75 285.265 Q1366.88 284.248 1367.22 282.068 Q1367.6 279.92 1367.58 275.116 Q1367.58 270.443 1367.26 268.574 Q1366.81 266.393 1365.63 265.524 Q1364.47 264.639 1363.29 264.639 Q1362.85 264.639 1362.37 264.77 Q1361.91 264.901 1361.24 265.278 Q1360.57 265.655 1360.04 266.59 Q1359.53 267.525 1359.29 268.935 Q1359.03 270.755 1359.03 275.116 Z" fill="#000000" fill-rule="nonzero" fill-opacity="1" /><path clip-path="url(#clip040)" d="M1388.65 256.488 Q1388.7 255.903 1389.61 255.903 L1419.01 255.903 Q1420.39 255.903 1420.41 256.441 Q1420.41 257.027 1419.1 257.004 L1389.94 257.004 Q1388.65 257.027 1388.65 256.488 M1388.65 247.119 Q1388.65 246.534 1389.66 246.557 L1418.96 246.557 Q1420.39 246.557 1420.41 247.119 Q1420.41 247.658 1419.2 247.658 L1389.61 247.658 Q1388.65 247.658 1388.65 247.119 Z" fill="#000000" fill-rule="nonzero" fill-opacity="1" /><path clip-path="url(#clip040)" d="M1438.9 257.308 Q1438.9 255.879 1439.72 255.2 Q1440.54 254.521 1441.6 254.521 Q1442.7 254.521 1443.47 255.247 Q1444.27 255.95 1444.27 257.191 Q1444.27 258.526 1443.33 259.276 Q1442.42 260.025 1441.11 259.838 Q1442.25 261.758 1444.36 262.625 Q1446.49 263.492 1448.46 263.492 Q1450.52 263.492 1452.18 261.712 Q1453.87 259.931 1453.87 255.575 Q1453.87 251.874 1452.42 249.743 Q1450.99 247.611 1448.16 247.611 L1446.05 247.611 Q1445.32 247.611 1445.11 247.541 Q1444.9 247.471 1444.9 247.072 Q1444.9 246.604 1445.63 246.51 Q1446.35 246.51 1447.5 246.37 Q1450.29 246.276 1451.76 243.864 Q1453.1 241.615 1453.1 238.406 Q1453.1 235.478 1451.69 234.26 Q1450.31 233.019 1448.51 233.019 Q1446.82 233.019 1444.97 233.722 Q1443.12 234.424 1442.11 235.994 Q1445.09 235.994 1445.09 238.406 Q1445.09 239.46 1444.41 240.163 Q1443.75 240.842 1442.65 240.842 Q1441.6 240.842 1440.89 240.186 Q1440.19 239.507 1440.19 238.359 Q1440.19 235.619 1442.63 233.722 Q1445.09 231.824 1448.69 231.824 Q1452.25 231.824 1454.88 233.698 Q1457.52 235.572 1457.52 238.453 Q1457.52 241.287 1455.65 243.606 Q1453.78 245.925 1450.8 246.885 Q1454.46 247.611 1456.63 250.094 Q1458.81 252.553 1458.81 255.575 Q1458.81 259.322 1455.86 262.086 Q1452.91 264.827 1448.6 264.827 Q1444.62 264.827 1441.76 262.672 Q1438.9 260.517 1438.9 257.308 Z" fill="#000000" fill-rule="nonzero" fill-opacity="1" /><path clip-path="url(#clip040)" d="M1462.85 248.618 Q1462.85 241.076 1466.69 236.462 Q1470.53 231.824 1475.47 231.824 Q1478.35 231.824 1479.94 233.3 Q1481.56 234.752 1481.56 237.001 Q1481.56 238.242 1480.83 238.781 Q1480.11 239.32 1479.36 239.32 Q1478.49 239.32 1477.81 238.734 Q1477.13 238.149 1477.13 237.095 Q1477.13 234.94 1479.78 234.94 Q1478.54 233.019 1475.56 233.019 Q1474.65 233.019 1473.71 233.3 Q1472.78 233.558 1471.56 234.448 Q1470.34 235.338 1469.4 236.743 Q1468.47 238.149 1467.81 240.795 Q1467.16 243.442 1467.16 246.885 L1467.16 248.033 Q1469.12 243.278 1473.15 243.301 Q1477.18 243.301 1479.97 246.37 Q1482.76 249.438 1482.76 253.982 Q1482.76 258.643 1479.85 261.735 Q1476.95 264.827 1472.87 264.827 Q1471.04 264.827 1469.38 264.054 Q1467.74 263.304 1466.2 261.571 Q1464.67 259.838 1463.76 256.512 Q1462.85 253.186 1462.85 248.618 M1467.25 252.928 Q1467.25 257.636 1468.12 259.885 Q1468.26 260.259 1468.56 260.775 Q1468.89 261.29 1469.43 261.969 Q1469.99 262.625 1470.9 263.07 Q1471.82 263.492 1472.87 263.492 Q1476.08 263.492 1477.63 260.376 Q1478.45 258.643 1478.45 253.935 Q1478.45 249.134 1477.58 247.377 Q1476.1 244.402 1473.11 244.402 Q1471.09 244.402 1469.69 245.784 Q1468.3 247.166 1467.76 249.017 Q1467.25 250.867 1467.25 252.928 Z" fill="#000000" fill-rule="nonzero" fill-opacity="1" /><path clip-path="url(#clip040)" d="M1487.32 263 Q1486.6 262.227 1486.6 261.22 Q1486.6 260.212 1487.32 259.486 Q1488.05 258.737 1489.15 258.737 Q1490.2 258.737 1490.91 259.44 Q1491.63 260.119 1491.63 261.243 Q1491.63 262.344 1490.86 263.07 Q1490.11 263.773 1489.15 263.773 Q1488.05 263.773 1487.32 263 Z" fill="#000000" fill-rule="nonzero" fill-opacity="1" /><path clip-path="url(#clip040)" d="M1499.79 256.535 Q1499.79 251.171 1506.7 247.705 Q1503.73 245.691 1503.19 245.105 Q1501.08 242.763 1501.08 239.835 Q1501.08 236.486 1503.61 234.167 Q1506.16 231.824 1509.77 231.824 Q1513.21 231.824 1515.81 233.815 Q1518.41 235.806 1518.41 238.968 Q1518.41 243.419 1512.61 246.417 Q1516.45 248.806 1517.36 249.813 Q1519.7 252.413 1519.7 255.715 Q1519.7 259.557 1516.75 262.203 Q1513.8 264.827 1509.72 264.827 Q1505.74 264.827 1502.77 262.508 Q1499.79 260.189 1499.79 256.535 M1502.18 256.535 Q1502.18 259.51 1504.41 261.501 Q1506.66 263.492 1509.77 263.492 Q1512.79 263.492 1515.04 261.758 Q1517.31 260.025 1517.31 257.449 Q1517.31 256.441 1516.96 255.575 Q1516.63 254.708 1515.95 254.029 Q1515.3 253.326 1514.88 253.022 Q1514.48 252.694 1513.71 252.155 L1507.8 248.431 Q1502.18 251.546 1502.18 256.535 M1503.19 237.961 Q1503.19 240.257 1505.6 241.849 L1511.55 245.691 Q1516.31 242.903 1516.31 238.968 Q1516.31 236.415 1514.36 234.729 Q1512.42 233.019 1509.72 233.019 Q1507.08 233.019 1505.13 234.424 Q1503.19 235.806 1503.19 237.961 Z" fill="#000000" fill-rule="nonzero" fill-opacity="1" /><path clip-path="url(#clip040)" d="M1523.74 263.773 Q1523.74 262.906 1523.81 262.648 Q1523.9 262.391 1524.27 261.993 L1533.48 251.734 Q1538.51 246.065 1538.51 241.123 Q1538.51 237.914 1536.83 235.619 Q1535.17 233.324 1532.1 233.324 Q1529.99 233.324 1528.21 234.612 Q1526.43 235.9 1525.61 238.195 Q1525.75 238.149 1526.24 238.149 Q1527.44 238.149 1528.09 238.898 Q1528.77 239.648 1528.77 240.655 Q1528.77 241.943 1527.93 242.575 Q1527.11 243.184 1526.29 243.184 Q1525.96 243.184 1525.52 243.114 Q1525.09 243.044 1524.41 242.388 Q1523.74 241.709 1523.74 240.514 Q1523.74 237.165 1526.26 234.495 Q1528.82 231.824 1532.71 231.824 Q1537.11 231.824 1539.99 234.448 Q1542.89 237.048 1542.89 241.123 Q1542.89 242.552 1542.45 243.864 Q1542.03 245.152 1541.44 246.159 Q1540.88 247.166 1539.33 248.782 Q1537.79 250.398 1536.55 251.546 Q1535.31 252.694 1532.52 255.13 L1527.44 260.072 L1536.08 260.072 Q1540.29 260.072 1540.62 259.697 Q1541.09 259.018 1541.68 255.434 L1542.89 255.434 L1541.54 263.773 L1523.74 263.773 Z" fill="#000000" fill-rule="nonzero" fill-opacity="1" /><path clip-path="url(#clip040)" d="M1542.97 255.856 L1542.97 254.38 L1557.7 231.871 Q1558.07 231.286 1558.66 231.309 Q1559.2 231.309 1559.32 231.52 Q1559.43 231.731 1559.43 232.551 L1559.43 254.38 L1564.23 254.38 L1564.23 255.856 L1559.43 255.856 L1559.43 260.025 Q1559.43 261.407 1560 261.852 Q1560.58 262.297 1563.06 262.297 L1564.07 262.297 L1564.07 263.773 Q1562.1 263.632 1557.56 263.632 Q1553.04 263.632 1551.07 263.773 L1551.07 262.297 L1552.08 262.297 Q1554.56 262.297 1555.15 261.875 Q1555.73 261.43 1555.73 260.025 L1555.73 255.856 L1542.97 255.856 M1544.33 254.38 L1556.01 254.38 L1556.01 236.486 L1544.33 254.38 Z" fill="#000000" fill-rule="nonzero" fill-opacity="1" /><path clip-path="url(#clip040)" d="M1567.87 256.535 Q1567.87 251.171 1574.78 247.705 Q1571.8 245.691 1571.27 245.105 Q1569.16 242.763 1569.16 239.835 Q1569.16 236.486 1571.69 234.167 Q1574.24 231.824 1577.85 231.824 Q1581.29 231.824 1583.89 233.815 Q1586.49 235.806 1586.49 238.968 Q1586.49 243.419 1580.68 246.417 Q1584.52 248.806 1585.44 249.813 Q1587.78 252.413 1587.78 255.715 Q1587.78 259.557 1584.83 262.203 Q1581.88 264.827 1577.8 264.827 Q1573.82 264.827 1570.84 262.508 Q1567.87 260.189 1567.87 256.535 M1570.26 256.535 Q1570.26 259.51 1572.48 261.501 Q1574.73 263.492 1577.85 263.492 Q1580.87 263.492 1583.12 261.758 Q1585.39 260.025 1585.39 257.449 Q1585.39 256.441 1585.04 255.575 Q1584.71 254.708 1584.03 254.029 Q1583.37 253.326 1582.95 253.022 Q1582.55 252.694 1581.78 252.155 L1575.88 248.431 Q1570.26 251.546 1570.26 256.535 M1571.27 237.961 Q1571.27 240.257 1573.68 241.849 L1579.63 245.691 Q1584.38 242.903 1584.38 238.968 Q1584.38 236.415 1582.44 234.729 Q1580.49 233.019 1577.8 233.019 Q1575.15 233.019 1573.21 234.424 Q1571.27 235.806 1571.27 237.961 Z" fill="#000000" fill-rule="nonzero" fill-opacity="1" /><path clip-path="url(#clip040)" d="M1591.62 242.622 Q1591.62 240.069 1592.37 238.336 Q1593.12 236.579 1594.69 234.846 Q1597.57 231.824 1601.74 231.824 Q1603.52 231.824 1605.09 232.574 Q1606.68 233.324 1608.18 235.033 Q1609.7 236.72 1610.61 240.069 Q1611.53 243.395 1611.53 247.986 Q1611.53 255.411 1607.92 260.119 Q1604.34 264.827 1599.49 264.827 Q1596.42 264.827 1594.62 263.445 Q1592.81 262.039 1592.81 259.65 Q1592.81 258.409 1593.52 257.894 Q1594.22 257.355 1595.02 257.355 Q1595.88 257.355 1596.56 257.94 Q1597.24 258.503 1597.24 259.557 Q1597.24 260.423 1596.68 261.103 Q1596.14 261.758 1594.73 261.758 Q1596.12 263.492 1599.44 263.492 Q1600.64 263.492 1601.83 262.953 Q1603.03 262.391 1604.31 261.056 Q1605.63 259.697 1606.42 256.863 Q1607.22 254.029 1607.22 250.047 L1607.22 248.525 Q1605.3 253.326 1601.22 253.326 Q1597.19 253.326 1594.41 250.235 Q1591.62 247.143 1591.62 242.622 M1595.93 242.669 Q1595.93 247.424 1596.8 249.18 Q1598.27 252.202 1601.27 252.202 Q1604.2 252.202 1605.65 249.602 Q1607.12 246.979 1607.12 243.583 Q1607.12 238.875 1606.35 236.813 Q1604.92 233.019 1601.74 233.019 Q1598.58 233.019 1596.94 236.041 Q1595.93 237.821 1595.93 242.669 Z" fill="#000000" fill-rule="nonzero" fill-opacity="1" /><path clip-path="url(#clip040)" d="M1615.56 256.043 Q1615.56 254.615 1616.33 254.076 Q1617.11 253.514 1617.93 253.514 Q1619.03 253.514 1619.66 254.216 Q1620.32 254.896 1620.32 255.856 Q1620.32 256.816 1619.66 257.519 Q1619.03 258.198 1617.93 258.198 Q1617.39 258.198 1617.11 258.104 Q1617.74 260.306 1619.66 261.899 Q1621.6 263.492 1624.16 263.492 Q1627.37 263.492 1629.29 260.376 Q1630.43 258.362 1630.43 253.795 Q1630.43 249.766 1629.57 247.752 Q1628.23 244.683 1625.49 244.683 Q1621.6 244.683 1619.31 248.033 Q1619.03 248.454 1618.7 248.478 Q1618.23 248.478 1618.11 248.22 Q1618.02 247.939 1618.02 247.213 L1618.02 233.019 Q1618.02 231.871 1618.49 231.871 Q1618.68 231.871 1619.07 232.012 Q1622.1 233.347 1625.45 233.37 Q1628.89 233.37 1631.98 231.965 Q1632.21 231.824 1632.35 231.824 Q1632.82 231.824 1632.85 232.363 Q1632.85 232.551 1632.45 233.113 Q1632.07 233.651 1631.25 234.378 Q1630.43 235.08 1629.38 235.759 Q1628.33 236.439 1626.78 236.907 Q1625.26 237.352 1623.57 237.352 Q1621.56 237.352 1619.5 236.72 L1619.5 246.065 Q1621.98 243.629 1625.59 243.629 Q1629.43 243.629 1632.07 246.721 Q1634.72 249.813 1634.72 254.123 Q1634.72 258.643 1631.58 261.735 Q1628.47 264.827 1624.25 264.827 Q1620.41 264.827 1617.97 262.086 Q1615.56 259.346 1615.56 256.043 Z" fill="#000000" fill-rule="nonzero" fill-opacity="1" /><path clip-path="url(#clip040)" d="M1637.27 241.217 L1638.84 231.356 L1640.03 231.356 Q1640.18 231.942 1640.41 232.199 Q1640.67 232.457 1642.03 232.668 Q1643.41 232.878 1646.19 232.878 L1657.84 232.878 Q1657.84 233.979 1657.41 234.565 L1650.93 243.676 Q1648.87 246.557 1647.95 251.874 Q1647.41 255.434 1647.44 259.744 L1647.44 262.18 Q1647.44 264.827 1645.21 264.827 Q1643.01 264.827 1643.01 262.18 Q1643.01 253.022 1648.91 244.145 Q1649.54 243.231 1651.86 239.975 Q1654.21 236.72 1654.3 236.579 L1644.37 236.579 Q1640.01 236.579 1639.66 236.86 Q1639.19 237.282 1638.47 241.217 L1637.27 241.217 Z" fill="#000000" fill-rule="nonzero" fill-opacity="1" /><path clip-path="url(#clip040)" d="M1660.25 242.622 Q1660.25 240.069 1661 238.336 Q1661.75 236.579 1663.32 234.846 Q1666.2 231.824 1670.37 231.824 Q1672.15 231.824 1673.72 232.574 Q1675.31 233.324 1676.81 235.033 Q1678.34 236.72 1679.25 240.069 Q1680.16 243.395 1680.16 247.986 Q1680.16 255.411 1676.56 260.119 Q1672.97 264.827 1668.12 264.827 Q1665.05 264.827 1663.25 263.445 Q1661.45 262.039 1661.45 259.65 Q1661.45 258.409 1662.15 257.894 Q1662.85 257.355 1663.65 257.355 Q1664.52 257.355 1665.2 257.94 Q1665.87 258.503 1665.87 259.557 Q1665.87 260.423 1665.31 261.103 Q1664.77 261.758 1663.37 261.758 Q1664.75 263.492 1668.08 263.492 Q1669.27 263.492 1670.47 262.953 Q1671.66 262.391 1672.95 261.056 Q1674.26 259.697 1675.06 256.863 Q1675.85 254.029 1675.85 250.047 L1675.85 248.525 Q1673.93 253.326 1669.86 253.326 Q1665.83 253.326 1663.04 250.235 Q1660.25 247.143 1660.25 242.622 M1664.56 242.669 Q1664.56 247.424 1665.43 249.18 Q1666.91 252.202 1669.9 252.202 Q1672.83 252.202 1674.28 249.602 Q1675.76 246.979 1675.76 243.583 Q1675.76 238.875 1674.99 236.813 Q1673.56 233.019 1670.37 233.019 Q1667.21 233.019 1665.57 236.041 Q1664.56 237.821 1664.56 242.669 Z" fill="#000000" fill-rule="nonzero" fill-opacity="1" /><path clip-path="url(#clip040)" d="M1681.11 255.856 L1681.11 254.38 L1695.84 231.871 Q1696.22 231.286 1696.8 231.309 Q1697.34 231.309 1697.46 231.52 Q1697.58 231.731 1697.58 232.551 L1697.58 254.38 L1702.38 254.38 L1702.38 255.856 L1697.58 255.856 L1697.58 260.025 Q1697.58 261.407 1698.14 261.852 Q1698.72 262.297 1701.21 262.297 L1702.21 262.297 L1702.21 263.773 Q1700.25 263.632 1695.7 263.632 Q1691.18 263.632 1689.21 263.773 L1689.21 262.297 L1690.22 262.297 Q1692.7 262.297 1693.29 261.875 Q1693.88 261.43 1693.88 260.025 L1693.88 255.856 L1681.11 255.856 M1682.47 254.38 L1694.16 254.38 L1694.16 236.486 L1682.47 254.38 Z" fill="#000000" fill-rule="nonzero" fill-opacity="1" /><path clip-path="url(#clip040)" d="M1702.55 255.856 L1702.55 254.38 L1717.28 231.871 Q1717.66 231.286 1718.25 231.309 Q1718.78 231.309 1718.9 231.52 Q1719.02 231.731 1719.02 232.551 L1719.02 254.38 L1723.82 254.38 L1723.82 255.856 L1719.02 255.856 L1719.02 260.025 Q1719.02 261.407 1719.58 261.852 Q1720.17 262.297 1722.65 262.297 L1723.66 262.297 L1723.66 263.773 Q1721.69 263.632 1717.14 263.632 Q1712.62 263.632 1710.66 263.773 L1710.66 262.297 L1711.66 262.297 Q1714.15 262.297 1714.73 261.875 Q1715.32 261.43 1715.32 260.025 L1715.32 255.856 L1702.55 255.856 M1703.91 254.38 L1715.6 254.38 L1715.6 236.486 L1703.91 254.38 Z" fill="#000000" fill-rule="nonzero" fill-opacity="1" /><path clip-path="url(#clip040)" d="M1727.45 248.431 Q1727.45 241.381 1729.23 237.54 Q1731.72 231.824 1737.57 231.824 Q1738.81 231.824 1740.1 232.176 Q1741.41 232.504 1743.05 233.792 Q1744.72 235.08 1745.72 237.188 Q1747.64 241.264 1747.64 248.431 Q1747.64 255.434 1745.86 259.252 Q1743.26 264.827 1737.53 264.827 Q1735.37 264.827 1733.17 263.726 Q1730.99 262.625 1729.61 259.978 Q1727.45 256.02 1727.45 248.431 M1731.44 247.845 Q1731.44 255.083 1731.95 257.964 Q1732.54 261.079 1734.13 262.438 Q1735.75 263.773 1737.53 263.773 Q1739.45 263.773 1741.04 262.344 Q1742.66 260.892 1743.15 257.777 Q1743.69 254.708 1743.66 247.845 Q1743.66 241.17 1743.19 238.5 Q1742.56 235.385 1740.88 234.143 Q1739.21 232.878 1737.53 232.878 Q1736.89 232.878 1736.21 233.066 Q1735.56 233.253 1734.6 233.792 Q1733.64 234.331 1732.89 235.666 Q1732.16 237.001 1731.81 239.015 Q1731.44 241.615 1731.44 247.845 Z" fill="#000000" fill-rule="nonzero" fill-opacity="1" /><path clip-path="url(#clip040)" d="M1749.36 241.217 L1750.93 231.356 L1752.12 231.356 Q1752.26 231.942 1752.49 232.199 Q1752.75 232.457 1754.11 232.668 Q1755.49 232.878 1758.28 232.878 L1769.92 232.878 Q1769.92 233.979 1769.5 234.565 L1763.01 243.676 Q1760.95 246.557 1760.04 251.874 Q1759.5 255.434 1759.52 259.744 L1759.52 262.18 Q1759.52 264.827 1757.3 264.827 Q1755.09 264.827 1755.09 262.18 Q1755.09 253.022 1761 244.145 Q1761.63 243.231 1763.95 239.975 Q1766.29 236.72 1766.38 236.579 L1756.45 236.579 Q1752.1 236.579 1751.75 236.86 Q1751.28 237.282 1750.55 241.217 L1749.36 241.217 Z" fill="#000000" fill-rule="nonzero" fill-opacity="1" /><path clip-path="url(#clip040)" d="M1769.66 263.773 Q1769.66 262.906 1769.73 262.648 Q1769.82 262.391 1770.19 261.993 L1779.4 251.734 Q1784.43 246.065 1784.43 241.123 Q1784.43 237.914 1782.75 235.619 Q1781.09 233.324 1778.02 233.324 Q1775.91 233.324 1774.13 234.612 Q1772.35 235.9 1771.53 238.195 Q1771.67 238.149 1772.16 238.149 Q1773.36 238.149 1774.01 238.898 Q1774.69 239.648 1774.69 240.655 Q1774.69 241.943 1773.85 242.575 Q1773.03 243.184 1772.21 243.184 Q1771.88 243.184 1771.44 243.114 Q1771.01 243.044 1770.33 242.388 Q1769.66 241.709 1769.66 240.514 Q1769.66 237.165 1772.18 234.495 Q1774.74 231.824 1778.63 231.824 Q1783.03 231.824 1785.91 234.448 Q1788.81 237.048 1788.81 241.123 Q1788.81 242.552 1788.37 243.864 Q1787.95 245.152 1787.36 246.159 Q1786.8 247.166 1785.25 248.782 Q1783.71 250.398 1782.47 251.546 Q1781.23 252.694 1778.44 255.13 L1773.36 260.072 L1782 260.072 Q1786.21 260.072 1786.54 259.697 Q1787.01 259.018 1787.6 255.434 L1788.81 255.434 L1787.46 263.773 L1769.66 263.773 Z" fill="#000000" fill-rule="nonzero" fill-opacity="1" /><path clip-path="url(#clip040)" d="M1788.89 255.856 L1788.89 254.38 L1803.62 231.871 Q1803.99 231.286 1804.58 231.309 Q1805.12 231.309 1805.24 231.52 Q1805.35 231.731 1805.35 232.551 L1805.35 254.38 L1810.15 254.38 L1810.15 255.856 L1805.35 255.856 L1805.35 260.025 Q1805.35 261.407 1805.92 261.852 Q1806.5 262.297 1808.98 262.297 L1809.99 262.297 L1809.99 263.773 Q1808.02 263.632 1803.48 263.632 Q1798.96 263.632 1796.99 263.773 L1796.99 262.297 L1798 262.297 Q1800.48 262.297 1801.07 261.875 Q1801.65 261.43 1801.65 260.025 L1801.65 255.856 L1788.89 255.856 M1790.25 254.38 L1801.93 254.38 L1801.93 236.486 L1790.25 254.38 Z" fill="#000000" fill-rule="nonzero" fill-opacity="1" /></svg>
