<?xml version="1.0" encoding="UTF-8" standalone="no"?>
<!-- Uploaded to: SVG Repo, www.svgrepo.com, Generator: SVG Repo Mixer Tools -->

<svg
   width="800px"
   height="800px"
   viewBox="0 0 48 48"
   version="1.1"
   id="svg3"
   sodipodi:docname="pluto-notebook.svg"
   xml:space="preserve"
   inkscape:version="1.4.1 (93de688d07, 2025-03-30)"
   xmlns:inkscape="http://www.inkscape.org/namespaces/inkscape"
   xmlns:sodipodi="http://sodipodi.sourceforge.net/DTD/sodipodi-0.dtd"
   xmlns="http://www.w3.org/2000/svg"
   xmlns:svg="http://www.w3.org/2000/svg"
   xmlns:rdf="http://www.w3.org/1999/02/22-rdf-syntax-ns#"
   xmlns:cc="http://creativecommons.org/ns#"
   xmlns:dc="http://purl.org/dc/elements/1.1/"><defs
     id="defs3" /><sodipodi:namedview
     id="namedview3"
     pagecolor="#ffffff"
     bordercolor="#666666"
     borderopacity="1.0"
     inkscape:showpageshadow="2"
     inkscape:pageopacity="0.0"
     inkscape:pagecheckerboard="0"
     inkscape:deskcolor="#d1d1d1"
     inkscape:zoom="0.794375"
     inkscape:cx="364.43745"
     inkscape:cy="767.89929"
     inkscape:window-width="1402"
     inkscape:window-height="2137"
     inkscape:window-x="1218"
     inkscape:window-y="21"
     inkscape:window-maximized="0"
     inkscape:current-layer="g3" /><title
     id="title1">dashboard-tile-setting-solid</title><g
     id="Layer_2"
     data-name="Layer 2"><g
       id="Layer_1-2"
       data-name="Layer 1"><g
         id="g3"><g
           id="invisible_box"
           data-name="invisible box"><rect
             width="48"
             height="48"
             fill="none"
             id="rect1" /><rect
             width="48"
             height="48"
             fill="none"
             id="rect2" /><rect
             width="48"
             height="48"
             fill="none"
             id="rect3" /></g><path
           d="m 6,31 h 12 c 1.104569,0 2,0.895431 2,2 v 10 c 0,1.104569 -0.895431,2 -2,2 H 6 C 4.8954305,45 4,44.104569 4,43 V 33 c 0,-1.104569 0.8954305,-2 2,-2 z m 0,-4 h 10 c 0.60878,-0.05281 1.057838,-0.591677 1,-1.2 0.01496,-0.14096 -0.02046,-0.282665 -0.1,-0.4 -3.862319,-5.671553 -3.862319,-13.128447 0,-18.8 0.287218,-0.5514516 0.06065,-1.2311693 -0.5,-1.5 H 6 C 4.933333,5.0986659 4.0533326,5.9346663 4,7 v 18 c 0,1.104569 0.8954305,2 2,2 z m 32.6,4.2 C 36.240694,32.381695 33.638697,32.997958 31,33 29.054825,33.01815 27.122831,32.679205 25.3,32 24.745153,31.805901 24.143375,32.129936 24,32.7 V 43 c 0,1.104569 0.895431,2 2,2 h 12 c 1.104569,0 2,-0.895431 2,-2 V 32.1 c 0,-0.552285 -0.447715,-1 -1,-1 z"
           id="path3"
           sodipodi:nodetypes="sssssssssscccccccssccccssssscc" /><g
           style="fill:#000000;stroke-width:1.64773"
           id="g4"
           transform="matrix(1.2137902,0,0,1.2137902,16.194551,1.4659896)"><path
             d="M 12,23 A 11,11 0 1 0 1,12 11.013,11.013 0 0 0 12,23 Z M 10,15 A 3,3 0 1 0 7.184,11 H 3.059 A 8.987,8.987 0 0 1 17.644,5 H 9 a 1,1 0 0 0 0,2 h 10.478 a 8.931,8.931 0 0 1 1.463,4 H 16 a 1,1 0 0 0 0,2 h 4.941 A 8.987,8.987 0 0 1 6.356,19 H 12 a 1,1 0 0 0 0,-2 H 4.522 A 8.931,8.931 0 0 1 3.059,13 H 7.184 A 3,3 0 0 0 10,15 Z M 9,12 a 1,1 0 1 1 1,1 1,1 0 0 1 -1,-1 z m 5,6 a 1,1 0 1 1 1,1 1,1 0 0 1 -1,-1 z"
             id="path1"
             style="stroke-width:1.64773" /></g></g></g></g><metadata
     id="metadata4"><rdf:RDF><cc:Work
         rdf:about=""><dc:title>dashboard-tile-setting-solid</dc:title></cc:Work></rdf:RDF></metadata></svg>
