<?xml version="1.0" encoding="UTF-8" standalone="no"?>
<!-- Uploaded to: SVG Repo, www.svgrepo.com, Generator: SVG Repo Mixer Tools -->

<svg
   width="20"
   height="20"
   viewBox="0 0 1.2 1.2"
   version="1.1"
   id="svg3"
   xml:space="preserve"
   sodipodi:docname="pluto-notebook-simple.svg"
   inkscape:version="1.4.1 (93de688d07, 2025-03-30)"
   xmlns:inkscape="http://www.inkscape.org/namespaces/inkscape"
   xmlns:sodipodi="http://sodipodi.sourceforge.net/DTD/sodipodi-0.dtd"
   xmlns="http://www.w3.org/2000/svg"
   xmlns:svg="http://www.w3.org/2000/svg"
   xmlns:rdf="http://www.w3.org/1999/02/22-rdf-syntax-ns#"
   xmlns:cc="http://creativecommons.org/ns#"
   xmlns:dc="http://purl.org/dc/elements/1.1/"><sodipodi:namedview
     id="namedview1"
     pagecolor="#ffffff"
     bordercolor="#666666"
     borderopacity="1.0"
     inkscape:showpageshadow="2"
     inkscape:pageopacity="0.0"
     inkscape:pagecheckerboard="0"
     inkscape:deskcolor="#d1d1d1"
     showgrid="false"
     inkscape:zoom="58.833679"
     inkscape:cx="10.478692"
     inkscape:cy="11.473021"
     inkscape:window-width="1402"
     inkscape:window-height="2137"
     inkscape:window-x="1218"
     inkscape:window-y="21"
     inkscape:window-maximized="0"
     inkscape:current-layer="svg3" /><defs
     id="defs3" /><title
     id="title1">dashboard-tile-setting-solid</title><path
     id="path3"
     d="M 0.76823572,0.00191563 A 0.37779314,0.37779314 0 0 0 0.40788887,0.37930608 0.37823961,0.37823961 0 0 0 0.78568392,0.75709779 0.37779314,0.37779314 0 1 0 0.76823572,0.00191563 Z M 0.08508446,0.069994 c -0.0301819,-3.775e-5 -0.0550831,0.02361627 -0.0565921,0.05376036 v 0.50931947 c 0,0.0312544 0.0253378,0.0565921 0.0565921,0.0565921 h 0.28295415 c 0.0172258,-0.001495 0.0299343,-0.0167418 0.0282977,-0.0339546 4.2331e-4,-0.003989 -5.8118e-4,-0.007997 -0.002832,-0.0113173 -0.10928636,-0.16047958 -0.10928636,-0.37147742 0,-0.53195699 0.008127,-0.01560367 0.001719,-0.03483656 -0.0141455,-0.04244336 z m 0.70375286,2.2551e-4 a 0.30865701,0.30865701 0 0 1 0.1906864,0.06867192 h -0.2968742 a 0.03434595,0.03434595 0 0 0 0,0.0686919 H 1.0425117 a 0.30673369,0.30673369 0 0 1 0.050249,0.13737698 H 0.92306082 a 0.03434595,0.03434595 0 0 0 0,0.0686919 H 1.0927605 A 0.30865701,0.30865701 0 0 1 0.59184074,0.61972083 h 0.19384318 a 0.03434595,0.03434595 0 0 0 0,-0.0686919 H 0.52885225 A 0.30673369,0.30673369 0 0 1 0.47860669,0.41365205 h 0.14167106 a 0.10303449,0.10303449 0 0 0 0.0967143,0.0686885 0.10303449,0.10303449 0 1 0 -0.0967143,-0.13738032 H 0.47860669 A 0.30865701,0.30865701 0 0 1 0.78883732,0.07021951 Z m -0.07343,0.27477718 a 0.03434483,0.03434483 0 1 1 0.00158,0.0686553 0.03434483,0.03434483 0 0 1 -0.034343,-0.0343459 0.03434483,0.03434483 0 0 1 0.032758,-0.0343094 z m 0.1717228,0.20606882 a 0.03434483,0.03434483 0 0 0 -0.032758,0.0343094 0.03434483,0.03434483 0 0 0 0.034346,0.0343459 0.03434483,0.03434483 0 1 0 -0.00159,-0.0686553 z M 0.0850846,0.80284701 c -0.0312544,0 -0.0565921,0.0253378 -0.0565921,0.0565921 V 1.1423933 c 0,0.031254 0.0253378,0.056592 0.0565921,0.056592 h 0.33954631 c 0.0312544,0 0.0565921,-0.025338 0.0565921,-0.056592 V 0.85943916 c 0,-0.0312544 -0.0253378,-0.0565921 -0.0565921,-0.0565921 z m 0.933752,0.002832 -0.011317,0.002828 c -0.066758,0.0334366 -0.14038474,0.0508741 -0.21504804,0.050932 -0.05504,5.1357e-4 -0.1097065,-0.009076 -0.16128448,-0.0282944 -0.0156996,-0.005492 -0.0327262,0.003675 -0.0367831,0.0198058 V 1.1423937 c 0,0.031254 0.0253378,0.056592 0.0565922,0.056592 h 0.33954598 c 0.031254,0 0.056589,-0.025338 0.056589,-0.056592 V 0.8339732 c 0,-0.0156272 -0.012667,-0.0282944 -0.028295,-0.0282942 z"
     style="stroke-width:1;fill:#ffffff;fill-opacity:1;stroke:none;stroke-opacity:1" /><metadata
     id="metadata4"><rdf:RDF><cc:Work
         rdf:about=""><dc:title>dashboard-tile-setting-solid</dc:title></cc:Work></rdf:RDF></metadata></svg>
